<ttFont>
<head>
    <!-- Most of this table will be recalculated by the compiler -->
    <tableVersion value="1.0"/>
    <fontRevision value="1.002"/>
    <checkSumAdjustment value="0x7db6b5fa"/>
    <magicNumber value="0x5f0f3cf5"/>
    <flags value="00000000 00001011"/>
    <unitsPerEm value="1000"/>
    <created value="Thu Jan 14 16:24:16 2016"/>
    <modified value="Thu Jan  2 08:45:01 2020"/>
    <xMin value="-1622"/>
    <yMin value="-284"/>
    <xMax value="609"/>
    <yMax value="1140"/>
    <macStyle value="00000000 00000000"/>
    <lowestRecPPEM value="8"/>
    <fontDirectionHint value="2"/>
    <indexToLocFormat value="0"/>
    <glyphDataFormat value="0"/>
  </head>
          <CharString index="0">
            -219 -175 -88 -148 0 -144 0 -141 87 -145 216 -174 rrcurveto
            42 40 rlineto
            -206 160 -79 132 0 130 0 131 79 133 210 161 rrcurveto
            return
          </CharString>
          <CharString index="1">
            219 175 88 148 0 144 0 141 -87 145 -216 174 rrcurveto
            -42 -42 rlineto
            206 -159 79 -132 0 -129 0 -131 -79 -133 -210 -161 rrcurveto
            return
          </CharString>
          <CharString index="2">
            135 87 132 199 195 -75 118 -134 -136 -86 -131 -200 -195 75 -118 134 hvcurveto
            return
          </CharString>
          <CharString index="3">
            62 6 rlineto
            -59 206 -62 205 -67 208 rrcurveto
            -88 hlineto
            return
          </CharString>
          <CharString index="4">
            -67 -209 -62 -206 -59 -207 rrcurveto
            61 hlineto
            19 68 19 67 19 67 rrcurveto
            225 hlineto
            20 -68 20 -68 19 -69 rrcurveto
            return
          </CharString>
          <CharString index="5">
            7 hlineto
            33 -106 31 -105 31 -106 rrcurveto
            -197 hlineto
            31 105 32 106 32 106 rrcurveto
            return
          </CharString>
          <CharString index="6">
            -273 -11 -70 98 0 170 0 147 56 104 281 8 rrcurveto
            -4 60 rlineto
            -301 -12 -96 -147 0 -169 0 -184 87 -137 314 19 rrcurveto
            return
          </CharString>
          <CharString index="7">
            0 237 -114 103 -290 -42 rrcurveto
            -622 vlineto
            263 -42 141 121 0 245 rrcurveto
            return
          </CharString>
          <CharString index="8">
            0 -194 -92 -95 -188 28 rrcurveto
            521 vlineto
            198 25 82 -83 0 -202 rrcurveto
            return
          </CharString>
          <CharString index="9">
            -310 236 267 48 -267 228 306 54 -369 -620 367 hlineto
            return
          </CharString>
          <CharString index="10">
            -2 80 1 97 0 128 rrcurveto
            -60 hlineto
            1 -101 1 -95 1 -69 -223 -21 -70 107 0 174 0 145 56 111 276 5 rrcurveto
            -4 60 rlineto
            -300 -11 -91 -147 0 -175 0 -213 120 -137 294 62 rrcurveto
            return
          </CharString>
          <CharString index="11">
            160 50 -382 -50 160 -520 -160 -50 382 hlineto
            5 50 -165 0 rlineto
            return
          </CharString>
          <CharString index="12">
            68 9 -226 312 212 304 -67 0 -195 -282 -74 0 0 282 -62 0 rlineto
            return
          </CharString>
          <CharString index="13">
            6 54 -315 0 0 566 -62 0 0 -620 rlineto
            return
          </CharString>
          <CharString index="14">
            2 -514 -4 0 -243 514 -74 0 0 -620 59 0 -2 526 5 0 rlineto
            return
          </CharString>
          <CharString index="15">
            144 0 92 121 -1 215 -1 201 -79 113 -136 0 rrcurveto
            -144 -92 -120 -216 -201 81 -113 136 hvcurveto
            return
          </CharString>
          <CharString index="16">
            107 58 -96 -178 -175 -58 -95 -103 -108 -57 96 178 175 57 95 104 hvcurveto
            return
          </CharString>
          <CharString index="17">
            66 12 -150 267 rlineto
            61 43 47 59 0 83 0 126 -96 82 -271 -44 rrcurveto
            return
          </CharString>
          <CharString index="18">
            -618 62 235 vlineto
            146 4 rlineto
            return
          </CharString>
          <CharString index="19">
            172 27 71 -60 0 -95 0 -70 -37 -51 -52 -35 rrcurveto
            -154 -3 rlineto
            return
          </CharString>
          <CharString index="20">
            -1 -60 rlineto
            279 -17 108 99 0 92 0 149 -322 44 0 116 0 56 61 47 227 -14 rrcurveto
            -4 58 rlineto
            -254 15 -93 -87 0 -86 0 -145 322 -41 0 -122 0 -64 -86 -61 -237 21 rrcurveto
            return
          </CharString>
          <CharString index="21">
            200 54 -460 hlineto
            -5 -54 202 0 0 -566 63 0 rlineto
            return
          </CharString>
          <CharString index="22">
            124 74 76 136 hvcurveto
            423 -63 -431 vlineto
            -104 -42 -45 -86 -82 -51 51 112 vhcurveto
            417 -62 -424 vlineto
            -137 71 -74 117 vhcurveto
            return
          </CharString>
          <CharString index="23">
            71 hlineto
            15 117 22 236 13 267 rrcurveto
            -59 hlineto
            -7 -165 -18 -298 -9 -81 rrcurveto
            -3 hlineto
            -32 116 -36 130 -31 116 rrcurveto
            -41 hlineto
            -31 -114 -29 -116 -37 -132 rrcurveto
            -4 hlineto
            -8 81 -19 298 -7 165 rrcurveto
            -62 hlineto
            13 -267 21 -236 15 -117 rrcurveto
            73 0 94 348 rlineto
            return
          </CharString>
          <CharString index="24">
            202 412 -65 0 -166 -353 rlineto
            return
          </CharString>
          <CharString index="25">
            -169 354 -67 -2 202 -413 0 -206 rlineto
            return
          </CharString>
          <CharString index="26">
            5 56 -346 -2 341 512 0 54 -398 0 -5 -56 338 2 -343 -512 0 -54 rlineto
            return
          </CharString>
          <CharString index="27">
            318 0 6 50 -266 0 0 769 263 0 0 51 -321 0 rlineto
            return
          </CharString>
          <CharString index="28">
            -1 -51 320 0 0 871 -319 0 0 -52 262 0 0 -768 rlineto
            return
          </CharString>
          <CharString index="29">
            -56 43 -85 84 -46 53 rrcurveto
            -50 -52 rlineto
            56 -49 96 -68 65 -38 rrcurveto
            return
          </CharString>
          <CharString index="30">
            55 3 rlineto
            -3 71 -3 63 0 106 0 184 -77 58 -272 10 rrcurveto
            -7 -54 rlineto
            222 -9 67 -33 6 -124 -221 16 -104 -73 0 -103 rrcurveto
            return
          </CharString>
          <CharString index="31">
            -78 62 -47 88 vhcurveto
            79 0 62 37 40 37 rrcurveto
            2 -21 3 -29 1 -14 rrcurveto
            return
          </CharString>
          <CharString index="32">
            0 -147 83 -108 289 16 rrcurveto
            8 52 rlineto
            -251 -11 -69 76 0 130 0 109 58 78 254 4 rrcurveto
            -4 58 rlineto
            -277 -9 -91 -117 0 -131 rrcurveto
            return
          </CharString>
          <CharString index="33">
            58 4 rlineto
            -5 112 -2 156 0 210 rrcurveto
            0 223 rlineto
            return
          </CharString>
          <CharString index="34">
            -19 3 -19 2 -21 0 rrcurveto
            -143 -127 -100 -177 -143 80 -87 106 hvcurveto
            62 0 51 29 36 33 rrcurveto
            return
          </CharString>
          <CharString index="35">
            8 53 rlineto
            -248 7 -73 53 -6 125 rrcurveto
            344 8 rlineto
            18 154 -67 107 -130 0 -125 0 -100 -113 0 -147 0 -157 83 -85 296 -5 rrcurveto
            return
          </CharString>
          <CharString index="36">
            92 0 45 -69 -2 -101 rrcurveto
            -288 -8 rlineto
            6 112 58 66 89 0 rrcurveto
            return
          </CharString>
          <CharString index="37">
            261 13 68 97 0 161 0 40 -1 305 -1 27 -47 15 -44 8 -46 0 rrcurveto
            -135 -121 -96 -158 -130 80 -77 106 hvcurveto
            61 0 51 23 36 28 rrcurveto
            return
          </CharString>
          <CharString index="38">
            0 -144 -33 -38 -241 -18 rrcurveto
            return
          </CharString>
          <CharString index="39">
            -85 -62 58 114 120 77 67 97 hvcurveto
            33 0 33 -6 33 -11 rrcurveto
            -299 vlineto
            -35 -24 -46 -19 -45 0 rrcurveto
            return
          </CharString>
          <CharString index="40">
            -191 437 -244 hlineto
            -5 -42 188 -8 0 -387 -190 0 0 -47 rlineto
            return
          </CharString>
          <CharString index="41">
            65 10 -201 245 rlineto
            67 73 63 78 60 81 rrcurveto
            return
          </CharString>
          <CharString index="42">
            -62 5 rlineto
            -57 -77 -58 -72 -65 -68 rrcurveto
            -85 -2 0 435 rlineto
            return
          </CharString>
          <CharString index="43">
            -60 -5 0 -698 60 0 0 222 83 2 rlineto
            return
          </CharString>
          <CharString index="44">
            6 47 -164 0 0 650 -208 0 -6 -43 153 -7 0 -600 -163 0 0 -47 rlineto
            return
          </CharString>
          <CharString index="45">
            69 41 -36 -99 hvcurveto
            -308 60 327 vlineto
            119 -58 49 -90 vhcurveto
            -70 0 -54 -31 -42 -33 rrcurveto
            return
          </CharString>
          <CharString index="46">
            -5 55 -56 -4 rlineto
            5 -113 2 -162 0 -207 rrcurveto
            61 hlineto
            return
          </CharString>
          <CharString index="47">
            0 180 -2 128 -3 86 rrcurveto
            43 29 46 20 53 0 rrcurveto
            return
          </CharString>
          <CharString index="48">
            121 102 105 159 154 -86 93 -120 -121 -103 -105 -157 -155 88 -94 119 hvcurveto
            return
          </CharString>
          <CharString index="49">
            -91 -64 76 134 127 64 72 89 92 64 -75 -133 -128 -64 -73 -90 hvcurveto
            return
          </CharString>
          <CharString index="50">
            6 47 -175 0 rlineto
            return
          </CharString>
          <CharString index="51">
            -1 120 -2 105 -1 91 53 39 73 27 107 8 rrcurveto
            -3 64 rlineto
            -105 -11 -78 -40 -49 -47 rrcurveto
            return
          </CharString>
          <CharString index="52">
            -1 23 -3 45 -1 13 rrcurveto
            -178 0 -5 -43 128 -7 rlineto
            3 -104 1 -123 3 -160 rrcurveto
            -137 -47 hlineto
            return
          </CharString>
          <CharString index="53">
            -243 20 -79 -79 0 -71 0 -122 280 -11 0 -98 0 -47 -61 -45 -224 18 rrcurveto
            -3 -55 rlineto
            266 -17 84 78 0 75 0 125 -280 18 0 91 0 42 51 43 212 -20 rrcurveto
            return
          </CharString>
          <CharString index="54">
            5 53 rlineto
            -171 3 -48 24 0 90 rrcurveto
            275 209 48 -209 143 vlineto
            return
          </CharString>
          <CharString index="55">
            -60 -6 0 -137 -94 0 -8 -48 102 0 0 -285 rlineto
            0 -116 70 -45 204 1 rrcurveto
            return
          </CharString>
          <CharString index="56">
            56 3 rlineto
            -5 114 -2 161 0 207 rrcurveto
            -60 hlineto
            return
          </CharString>
          <CharString index="57">
            0 -179 1 -129 3 -85 -43 -30 -45 -20 -53 0 rrcurveto
            -68 -39 35 100 hvcurveto
            0 311 rlineto
            return
          </CharString>
          <CharString index="58">
            -61 -5 0 -325 rlineto
            -120 58 -49 88 vhcurveto
            70 0 54 33 41 33 rrcurveto
            return
          </CharString>
          <CharString index="59">
            58 hlineto
            18 122 20 183 12 179 rrcurveto
            -58 hlineto
            return
          </CharString>
          <CharString index="60">
            -9 -144 -9 -129 -11 -131 rrcurveto
            -3 hlineto
            -8 23 -85 241 -6 17 rrcurveto
            -40 hlineto
            -6 -17 -82 -239 -9 -23 rrcurveto
            -4 hlineto
            -12 131 -9 128 -9 143 rrcurveto
            -61 hlineto
            12 -179 19 -183 20 -122 rrcurveto
            56 0 103 292 rlineto
            return
          </CharString>
          <CharString index="61">
            156 22 44 46 61 154 rrcurveto
            return
          </CharString>
          <CharString index="62">
            71 171 53 143 45 126 rrcurveto
            -58 hlineto
            -35 -95 -69 -200 -46 -110 rrcurveto
            -7 hlineto
            return
          </CharString>
          <CharString index="63">
            -61 134 -59 138 -54 135 rrcurveto
            -62 -3 rlineto
            56 -135 86 -201 65 -139 rrcurveto
            1 hlineto
            -38 -86 -27 -22 -128 -20 rrcurveto
            return
          </CharString>
          <CharString index="64">
            5 54 -337 -1 328 380 0 51 -388 0 -5 -53 324 0 -328 -379 0 -52 rlineto
            return
          </CharString>
          <CharString index="65">
            21 51 rlineto
            -184 57 -77 40 0 56 0 62 89 42 0 62 0 38 -32 41 -82 20 rrcurveto
            return
          </CharString>
          <CharString index="66">
            85 22 32 41 0 36 0 57 -98 50 0 55 0 48 80 44 189 54 rrcurveto
            -19 53 rlineto
            -227 -72 -82 -68 0 -67 0 -73 102 -45 0 -48 0 -31 -37 -27 -132 -11 rrcurveto
            -1 -45 rlineto
            return
          </CharString>
          <CharString index="67">
            0 -49 -94 -44 0 -78 rrcurveto
            0 -73 79 -46 223 -72 rrcurveto
            return
          </CharString>
          <CharString index="68">
            0 75 -102 44 0 48 0 31 38 28 131 10 rrcurveto
            2 45 rlineto
            return
          </CharString>
          <CharString index="69">
            0 49 94 44 0 78 0 73 -78 46 -223 72 rrcurveto
            -21 -52 rlineto
            184 -56 77 -40 0 -56 0 -62 -90 -42 0 -62 0 -39 33 -40 85 -20 rrcurveto
            return
          </CharString>
          <CharString index="70">
            -87 -22 -33 -41 0 -37 0 -56 98 -49 0 -56 0 -47 -81 -45 -188 -54 rrcurveto
            return
          </CharString>
          <CharString index="71">
            2 132 -63 0 0 -132 rlineto
            return
          </CharString>
          <CharString index="72">
            2 132 -64 0 1 -132 rlineto
            return
          </CharString>
          <CharString index="73">
            47 35 -173 225 174 215 -46 38 -171 -223 -3 -63 rlineto
            return
          </CharString>
          <CharString index="74">
            47 35 -173 224 174 216 -45 38 -171 -223 -4 -63 rlineto
            return
          </CharString>
          <CharString index="75">
            -326 -53 326 hlineto
            return
          </CharString>
          <CharString index="76">
            45 -227 vlineto
            138 98 75 67 0 78 0 65 -59 52 -203 -2 rrcurveto
            -4 -44 rlineto
            168 -3 48 -31 0 -50 0 -65 -81 -63 -149 -105 rrcurveto
            5 -42 rlineto
            return
          </CharString>
          <CharString index="77">
            201 6 75 52 0 64 0 48 -46 41 -135 19 rrcurveto
            173 133 -4 42 -263 0 0 -45 205 1 0 -2 -170 -133 -1 -26 rlineto
            143 -15 49 -30 0 -35 0 -39 -60 -28 -171 -6 rrcurveto
            return
          </CharString>
          <CharString index="78">
            19 -28 rlineto
            65 37 99 68 54 53 rrcurveto
            -52 48 rlineto
            -45 -56 -83 -80 -57 -42 rrcurveto
            return
          </CharString>
          <CharString index="79">
            4 44 -117 0 0 368 -50 -4 0 -61 -125 -17 1 -37 124 9 0 -258 -130 0 0 -44 rlineto
            return
          </CharString>
          <CharString index="80">
            172 224 3 62 -172 227 -47 -35 173 -224 -174 -216 rlineto
            return
          </CharString>
          <CharString index="81">
            171 224 4 62 -173 227 -47 -35 174 -224 -174 -216 rlineto
            return
          </CharString>
          <CharString index="82">
            426 43 -426 hlineto
            return
          </CharString>
          <CharString index="83">
            4 44 -59 0 1 141 -48 -4 1 -137 -163 0 rlineto
            3 41 39 161 20 68 rrcurveto
            -55 4 rlineto
            -32 -120 -19 -124 1 -74 rrcurveto
            206 2 -1 -86 48 0 -1 85 rlineto
            return
          </CharString>
          <CharString index="84">
            45 -227 vlineto
            138 98 75 67 0 78 0 65 -59 52 -203 -2 rrcurveto
            -4 -44 rlineto
            168 -3 48 -31 0 -50 rrcurveto
            return
          </CharString>
          <CharString index="85">
            38 37 -170 147 -3 0 -172 -153 32 -30 138 120 rlineto
            return
          </CharString>
          <CharString index="86">
            47 0 44 51 35 86 rrcurveto
            -37 16 rlineto
            -27 -62 -27 -40 -29 0 -45 0 -37 110 -64 0 -48 0 -43 -51 -36 -86 rrcurveto
            37 -15 rlineto
            26 61 28 40 29 0 rrcurveto
            45 0 38 -110 64 0 rrcurveto
            return
          </CharString>
          <CharString index="87">
            -79 -52 -45 -62 -56 54 -46 77 79 51 45 61 hvcurveto
            57 -54 46 -76 vhcurveto
            return
          </CharString>
          <CharString index="88">
            50 33 -27 -37 -37 -31 -27 -52 -51 -32 27 37 37 31 27 52 hvcurveto
            return
          </CharString>
          <CharString index="89">
            6 -325 -115 hlineto
            36 109 37 110 36 106 rrcurveto
            return
          </CharString>
          <CharString index="90">
            236 0 6 54 -185 0 0 236 156 0 0 48 -156 0 0 228 181 0 0 54 -282 0 rlineto
            -73 -206 -71 -207 -69 -207 rrcurveto
            63 hlineto
            20 63 21 65 22 65 rrcurveto
            131 hlineto
            return
          </CharString>
          <CharString index="91">
            0 237 -114 103 -290 -42 rrcurveto
            -283 -75 -46 75 -293 vlineto
            263 -42 141 121 0 245 rrcurveto
            return
          </CharString>
          <CharString index="92">
            242 143 vlineto
            3 46 -146 0 0 233 rlineto
            198 25 82 -83 0 -202 0 -194 -92 -95 -188 28 rrcurveto
            return
          </CharString>
          <CharString index="93">
            47 0 44 51 35 86 rrcurveto
            -37 16 rlineto
            -27 -62 -27 -40 -29 0 -45 0 -37 110 -64 0 -48 0 -43 -51 -36 -86 rrcurveto
            37 -15 rlineto
            26 61 28 40 29 0 45 0 38 -110 64 0 rrcurveto
            return
          </CharString>
          <CharString index="94">
            176 57 94 104 vhcurveto
            43 0 35 -15 27 -30 rrcurveto
            -232 -415 rlineto
            -22 46 -12 63 0 81 rrcurveto
            return
          </CharString>
          <CharString index="95">
            -43 0 -36 15 -26 30 rrcurveto
            232 414 rlineto
            22 -45 12 -64 0 -80 0 -176 -58 -94 -103 0 rrcurveto
            return
          </CharString>
          <CharString index="96">
            144 0 92 121 -1 215 rrcurveto
            return
          </CharString>
          <CharString index="97">
            -1 103 -20 79 -39 54 rrcurveto
            41 72 rlineto
            return
          </CharString>
          <CharString index="98">
            -41 22 -32 -59 rlineto
            -34 28 -41 15 -49 0 -144 0 -92 -120 0 -216 0 -104 21 -80 40 -53 rrcurveto
            -40 -71 rlineto
            return
          </CharString>
          <CharString index="99">
            41 -22 32 58 rlineto
            33 -28 41 -14 49 0 rrcurveto
            return
          </CharString>
          <CharString index="100">
            -67 -45 32 57 hvcurveto
            0 76 71 43 195 -20 0 -54 1 -39 1 -34 -41 -34 -58 -27 -57 0 rrcurveto
            return
          </CharString>
          <CharString index="101">
            5 53 rlineto
            -162 3 -38 54 -1 123 rrcurveto
            211 5 rlineto
            11 161 -43 97 -87 0 -55 0 -41 -35 -24 -60 rrcurveto
            return
          </CharString>
          <CharString index="102">
            53 0 22 -57 -2 -111 rrcurveto
            -155 -4 rlineto
            3 117 28 55 51 0 rrcurveto
            return
          </CharString>
          <CharString index="103">
            0 69 50 27 93 1 0 -43 4 -38 12 -33 -23 -37 -32 -28 -39 0 rrcurveto
            return
          </CharString>
          <CharString index="104">
            5 47 -191 0 0 437 -244 0 -5 -42 188 -8 0 -387 -190 0 0 -47 rlineto
            return
          </CharString>
          <CharString index="105">
            0 180 -2 128 -3 86 43 29 46 20 53 0 rrcurveto
            return
          </CharString>
          <CharString index="106">
            127 64 72 89 vhcurveto
            37 0 32 -12 26 -23 rrcurveto
            -213 -307 rlineto
            -22 35 -13 48 0 60 rrcurveto
            return
          </CharString>
          <CharString index="107">
            -35 0 -32 12 -25 22 rrcurveto
            212 308 rlineto
            22 -35 13 -47 0 -59 0 -128 -65 -73 -90 0 rrcurveto
            return
          </CharString>
          <CharString index="108">
            0 76 -21 61 -35 42 rrcurveto
            42 59 rlineto
            return
          </CharString>
          <CharString index="109">
            -38 26 -37 -54 rlineto
            -33 24 -40 13 -44 0 -121 0 -103 -105 0 -157 0 -77 22 -62 36 -42 rrcurveto
            -42 -60 rlineto
            return
          </CharString>
          <CharString index="110">
            38 -25 37 53 rlineto
            33 -23 39 -13 44 0 rrcurveto
            return
          </CharString>
          <CharString index="111">
            69 0 63 54 56 91 rrcurveto
            -37 20 rlineto
            -51 -74 -40 -41 -55 0 -51 0 -37 33 -52 86 rrcurveto
            -44 -26 rlineto
            56 -96 57 -47 66 0 rrcurveto
            return
          </CharString>
          <CharString index="112">
            6 50 rlineto
            -88 10 -34 16 0 25 rrcurveto
            return
          </CharString>
          <CharString index="113">
            5 132 -64 0 -3 -132 rlineto
            return
          </CharString>
          <CharString index="114">
            172 151 -32 31 -137 -120 -137 121 -39 -38 171 -145 rlineto
            return
          </CharString>
          <CharString index="115">
            28 -11 rlineto
            62 91 12 80 -16 78 rrcurveto
            -73 -2 rlineto
            22 -73 10 -71 -45 -92 rrcurveto
            return
          </CharString>
          <CharString index="116">
            30 -10 rlineto
            54 67 13 75 -12 61 -7 0 -65 -3 -6 0 23 -58 8 -60 -38 -72 rrcurveto
            return
          </CharString>
          <CharString index="117">
            -30 10 rlineto
            -54 -67 -14 -75 12 -61 rrcurveto
            79 3 rlineto
            -23 57 -8 61 38 72 rrcurveto
            return
          </CharString>
          <CharString index="118">
            30 -10 rlineto
            54 67 13 75 -12 61 -7 0 -65 -3 -6 0 rrcurveto
            23 -58 8 -60 -38 -72 rrcurveto
            return
          </CharString>
          <CharString index="119">
            30 -20 rlineto
            49 53 61 79 32 54 rrcurveto
            -64 32 rlineto
            -24 -57 -45 -86 -39 -55 rrcurveto
            return
          </CharString>
          <CharString index="120">
            29 -19 rlineto
            51 52 59 79 34 55 rrcurveto
            -67 28 rlineto
            -24 -58 -44 -82 -38 -55 rrcurveto
            return
          </CharString>
          <CharString index="121">
            -79 -52 -45 -62 -56 54 -46 77 79 51 45 61 57 -54 46 -76 hvcurveto
            return
          </CharString>
          <CharString index="122">
            5 101 -88 0 -5 -101 rlineto
            return
          </CharString>
          <CharString index="123">
            41 42 -241 216 245 214 -40 43 -250 -225 -4 -63 rlineto
            return
          </CharString>
          <CharString index="124">
            250 225 4 63 -249 227 -41 -42 241 -217 -245 -214 rlineto
            return
          </CharString>
          <CharString index="125">
            101 65 86 127 124 -57 76 -98 -101 -64 -86 -126 -125 56 -76 98 hvcurveto
            return
          </CharString>
          <CharString index="126">
            71 38 -62 -104 -100 -36 -60 -73 -71 -38 62 103 101 36 60 73 hvcurveto
            return
          </CharString>
          <CharString index="127">
            0 53 -52 46 -166 13 rrcurveto
            8 110 193 0 4 45 -238 0 -15 -192 rlineto
            165 -10 53 -29 0 -37 0 -46 -61 -31 -167 -13 rrcurveto
            4 -47 rlineto
            188 14 84 53 0 71 rrcurveto
            return
          </CharString>
          <CharString index="128">
            81 69 54 82 hvcurveto
            0 119 -149 33 -98 -89 12 75 55 54 123 48 rrcurveto
            -18 43 rlineto
            -151 -59 -72 -91 0 -112 rrcurveto
            -102 61 -55 87 vhcurveto
            return
          </CharString>
          <CharString index="129">
            -62 -44 39 82 hvcurveto
            5 vlineto
            92 71 110 -21 0 -88 rrcurveto
            -55 -44 -33 -52 vhcurveto
            return
          </CharString>
          <CharString index="130">
            46 121 64 121 78 116 rrcurveto
            43 -289 vlineto
            -4 -45 240 0 1 -3 rlineto
            -79 -113 -63 -115 -46 -119 rrcurveto
            return
          </CharString>
          <CharString index="131">
            95 60 50 56 hvcurveto
            0 49 -51 30 -55 27 rrcurveto
            return
          </CharString>
          <CharString index="132">
            61 27 38 33 0 47 rrcurveto
            57 -58 37 -76 -93 -52 -53 -49 vhcurveto
            0 -47 45 -30 51 -26 rrcurveto
            return
          </CharString>
          <CharString index="133">
            -64 -26 -40 -36 0 -50 rrcurveto
            -57 55 -39 84 vhcurveto
            return
          </CharString>
          <CharString index="134">
            30 31 27 58 57 33 -26 -36 vhcurveto
            0 -35 -31 -26 -52 -22 rrcurveto
            -51 25 -45 25 0 38 rrcurveto
            return
          </CharString>
          <CharString index="135">
            -60 -35 29 38 hvcurveto
            0 35 32 29 55 21 54 -27 51 -25 0 -38 rrcurveto
            -34 -37 -28 -60 vhcurveto
            return
          </CharString>
          <CharString index="136">
            151 60 73 90 0 112 rrcurveto
            103 -62 54 -87 -81 -69 -54 -82 vhcurveto
            0 -119 147 -32 99 86 -13 -74 -54 -54 -123 -46 rrcurveto
            return
          </CharString>
          <CharString index="137">
            55 45 35 52 61 43 -40 -81 vhcurveto
            -7 vlineto
            -91 -70 -110 20 0 88 rrcurveto
            return
          </CharString>
          <CharString index="138">
            163 77 108 109 104 90 -97 -168 -170 -92 -97 -106 -105 -77 99 162 vhcurveto
            return
          </CharString>
          <CharString index="139">
            30 0 58 221 3 0 -1 -273 42 0 0 326 -59 0 -56 -214 -2 0 -59 214 -59 0 0 -326 41 0 -1 273 3 0 rlineto
            return
          </CharString>
          <CharString index="140">
            61 27 38 33 0 47 rrcurveto
            57 -58 37 -76 -93 -52 -53 -49 vhcurveto
            return
          </CharString>
          <CharString index="141">
            0 -47 45 -30 51 -26 rrcurveto
            return
          </CharString>
          <CharString index="142">
            9 7 6 9 9 7 -6 -9 -9 -7 -7 -9 vhcurveto
            -9 -7 6 10 hvcurveto
            return
          </CharString>
          <CharString index="143">
            8 -2 3 -4 -4 -2 -3 -8 -9 2 -3 4 vhcurveto
            4 2 3 9 hvcurveto
            return
          </CharString>
          <CharString index="144">
            -6 2 -3 5 vhcurveto
            4 0 2 2 1 4 rrcurveto
            5 hlineto
            return
          </CharString>
          <CharString index="145">
            -23.83301 -47 -31.16699 -40 -38.5 0 -56.83301 0 -25.66699 100 -92.58301 0 -92.58398 0 -26.58301 -100 -55.91699 0 -56.83301 0 -25.66699 100 -92.58301 0 -81.58301 0 -37.58398 -68 -23.83301 -51 rrcurveto
            46.75 -27 rlineto
            23.83301 48 29.33398 39 40.33301 0 59.58301 0 30.25 -100 85.25 0 85.25 0 31.16699 100 58.66699 0 59.58301 0 30.25 -100 85.25 0 80.66699 0 38.5 71 23.83301 46 rrcurveto
            return
          </CharString>
          <CharString index="146">
            60.5 0 -1.83398 -206 178.75 64 18.33398 -60 -179.66699 -63 111.83301 -166 -47.66602 -38 -110 169 -110 -169 -47.66699 38 111.83301 166 -179.66602 63 18.33301 60 178.75 -64 rlineto
            return
          </CharString>
          <CharString index="147">
            60.5 0 -1.83301 -206 178.75 64 18.33301 -60 -179.66602 -63 111.83301 -166 -47.66699 -38 -110 169 -110 -169 -47.66602 38 111.83301 166 -179.66699 63 18.33398 60 178.75 -64 rlineto
            return
          </CharString>
          <CharString index="148">
            0 -68 331.83301 -227 -331.83301 -226 0 -72 380.41602 259 0 78 rlineto
            return
          </CharString>
          <CharString index="149">
            393.25 882 -45.83398 25 -394.16602 -885 rlineto
            return
          </CharString>
          <CharString index="150">
            60.5 0 -1.83301 -206 178.75 64 18.33301 -60 -179.66699 -63 111.83398 -166 -47.66699 -38 -110 169 -110 -169 -47.66699 38 111.83398 166 -179.66699 63 18.33301 60 178.75 -64 rlineto
            return
          </CharString>
          <CharString index="151">
            -48.58301 -907 48.58301 hlineto
            return
          </CharString>
          <CharString index="152">
            -56.83301 -802 56.83301 hlineto
            534.41699 364 0 78 rlineto
            return
          </CharString>
          <CharString index="153">
            -146.66699 0 27.5 229 148.5 0 rlineto
            return
          </CharString>
          <CharString index="154">
            -41 28.41699 -34 38.5 39.41699 28.41602 34 41 41 -28.41602 32 -39.41699 -38.5 -28.41699 -32 -41 vhcurveto
            return
          </CharString>
          <CharString index="155">
            -41 28.41699 -34 38.5 39.41602 28.41699 34 41 41 -28.41699 32 -39.41602 -38.5 -28.41699 -32 -41 vhcurveto
            return
          </CharString>
          <CharString index="156">
            -43 28.41699 -32 38.5 39.41699 28.41602 32 43 39 -28.41602 34 -39.41699 -38.5 -28.41699 -34 -39 vhcurveto
            return
          </CharString>
          <CharString index="157">
            -43 28.41699 -32 38.5 39.41602 28.41699 32 43 39 -28.41699 34 -39.41602 -38.5 -28.41699 -34 -39 vhcurveto
            return
          </CharString>
          <CharString index="158">
            -41 28.41699 -34 38.5 39.41602 29.33398 34 41 41 -29.33398 32 -39.41602 vhcurveto
            -38.5 -28.41699 -32 -41 hvcurveto
            return
          </CharString>
          <CharString index="159">
            -498.66602 -57 498.66602 hlineto
            return
          </CharString>
          <CharString index="160">
            -42 28.41699 -32 38.5 39.41602 29.33398 32 42 40 -29.33398 34 -39.41602 -38.5 -28.41699 -34 -40 vhcurveto
            return
          </CharString>
          <CharString index="161">
            -498.66602 -58 498.66602 hlineto
            return
          </CharString>
          <CharString index="162">
            0 -63 376.75 -212 -376.75 -212 0 -63 427.16699 236 0 77 rlineto
            return
          </CharString>
          <CharString index="163">
            0 -117 -57.75 -36 -67.83301 -15 rrcurveto
            312 vlineto
            76.08301 -33 49.5 -58 0 -53 rrcurveto
            return
          </CharString>
          <CharString index="164">
            -66 0 6.41699 -468 55 0 rlineto
            return
          </CharString>
          <CharString index="165">
            6.41699 -468 55 0 rlineto
            return
          </CharString>
          <CharString index="166">
            -32.08301 -22.91699 -26 -33 -34 22.91699 -27 32.08301 32.08398 22.91602 27 34 33 -22.91602 26 -32.08398 hvcurveto
            return
          </CharString>
          <CharString index="167">
            -23.83398 -51 376.75 -212 -376.75 -212 24.75 -50 402.41699 223 0 77 rlineto
            return
          </CharString>
          <CharString index="168">
            -23.83301 -51 376.75 -212 -376.75 -212 24.75 -50 402.41602 223 0 77 rlineto
            return
          </CharString>
          <CharString index="169">
            340.08301 58 -340.08301 hlineto
            return
          </CharString>
          <CharString index="170">
            -379.5 -255 0 -79 379.5 -259 0 69 -331.83301 229 331.83301 225 rlineto
            return
          </CharString>
          <CharString index="171">
            -534.41699 -360 0 -78 534.41699 -364 56.83301 0 0 802 rlineto
            return
          </CharString>
          <CharString index="172">
            -427.16699 -237 0 -77 427.16699 -236 0 63 -376.75 212 376.75 212 rlineto
            return
          </CharString>
          <CharString index="173">
            -403.33301 -225 0 -77 402.41602 -223 24.75 50 -376.75 212 376.75 212 rlineto
            return
          </CharString>
          <CharString index="174">
            -403.33301 -225 0 -77 402.41699 -223 24.75 50 -376.75 212 376.75 212 rlineto
            return
          </CharString>
          <CharString index="175">
            85.25 54 -78.83301 hlineto
            22 174 -49.5 0 -21.08398 -174 -148.5 0 22.91699 174 -49.5 0 -22 -174 -85.25 0 0 -54 79.75 0 -29.33301 -229 -84.33398 0 0 -53 77.91699 0 -22 -177 rlineto
            49.5 0 22 177 146.66699 0 -21.08398 -177 49.5 0 20.16699 177 87.08301 0 0 53 -79.75 0 rlineto
            return
          </CharString>
          <CharString index="176">
            27.5 229 148.5 0 -29.33398 -229 rlineto
            return
          </CharString>
          <CharString index="177">
            -304.33301 0 28.41602 229 305.25 0 rlineto
            return
          </CharString>
          <CharString index="178">
            27.5 229 148.5 0 -29.33301 -229 rlineto
            return
          </CharString>
          <CharString index="179">
            -468.41699 -686 39.41699 -35 470.25 686 rlineto
            return
          </CharString>
          <CharString index="180">
            -86.16699 -50.41699 -76 -86 -82 50.41699 -81 86.16699 hvcurveto
            return
          </CharString>
          <CharString index="181">
            87.08301 48.58301 81 82 84 -48.58301 78 -87.08301 hvcurveto
            return
          </CharString>
          <CharString index="182">
            38.5 33 -29 -78 -78 -33 -31 -38.5 -40.33398 -32.08301 39 70 74 33.91699 33 38.5 hvcurveto
            return
          </CharString>
          <CharString index="183">
            -86.16602 -50.41699 -77 -85 -82 50.41699 -81 86.16602 87.08398 48.58301 81 82 84 -48.58301 78 -87.08398 hvcurveto
            return
          </CharString>
          <CharString index="184">
            38.5 33 -29 -78 -78 -33 -31 -38.5 hvcurveto
            return
          </CharString>
          <CharString index="185">
            -40.33301 -32.08301 39 70 77 33.91602 30 38.5 hvcurveto
            return
          </CharString>
          <CharString index="186">
            60.5 45.83301 49 66 66 -45.83301 50 -60.5 -60.5 -45.83301 -49 -66 -67 45.83301 -49 60.5 hvcurveto
            return
          </CharString>
          <CharString index="187">
            -47 31.16699 -35 43.08301 43.08398 31.16602 35 47 45 -31.16602 35 -43.08398 -43.08301 -31.16699 -35 -45 vhcurveto
            return
          </CharString>
          <CharString index="188">
            -31.16602 -22.91699 -26 -33 -34 22.91699 -27 31.16602 33 22.91699 27 34 33 -22.91699 26 -33 hvcurveto
            return
          </CharString>
          <CharString index="189">
            -31.16699 -23.83301 -26 -33 -34 23.83301 -27 31.16699 32.08301 22.91699 27 34 33 -22.91699 26 -32.08301 hvcurveto
            return
          </CharString>
          <CharString index="190">
            -66.91602 0 -63.25 -28 -53.16699 -69 rrcurveto
            43.08301 -34 rlineto
            40.33398 54 50.41602 23 44 0 66.91699 0 51.33301 -36 0 -64 0 -122 -165 0 0 -159 rrcurveto
            -43 60.5 38 vlineto
            0 155 164.08398 -25 0 159 rrcurveto
            76 -67.83398 75 -104.5 vhcurveto
            return
          </CharString>
          <CharString index="191">
            -31.16602 -23.83398 -26 -33 -34 23.83398 -27 31.16602 32.08398 22.91602 27 34 33 -22.91602 26 -32.08398 hvcurveto
            return
          </CharString>
          <CharString index="192">
            393.25 882 -45.83301 25 -394.16699 -885 rlineto
            return
          </CharString>
          <CharString index="193">
            -490.41699 0 -26.58301 -57 517 0 rlineto
            return
          </CharString>
          <CharString index="194">
            -572.91699 0 -26.58301 -58 599.5 0 rlineto
            return
          </CharString>
          <CharString index="195">
            -41 28.41602 -34 38.5 39.41699 28.41699 34 41 41 -28.41699 32 -39.41699 -38.5 -28.41602 -32 -41 vhcurveto
            return
          </CharString>
          <CharString index="196">
            -43 28.41602 -32 38.5 39.41699 28.41699 32 43 39 -28.41699 34 -39.41699 -38.5 -28.41602 -34 -39 vhcurveto
            return
          </CharString>
          <CharString index="197">
            -56.83398 -802 56.83398 hlineto
            return
          </CharString>
          <CharString index="198">
            0 662 485.83301 -331 rlineto
            return
          </CharString>
          <CharString index="199">
            -1439.16602 -57 1439.16602 hlineto
            return
          </CharString>
          <CharString index="200">
            -588.5 -57 588.5 hlineto
            return
          </CharString>
          <CharString index="201">
            -588.5 -58 588.5 hlineto
            return
          </CharString>
          <CharString index="202">
            -46.75 -42 210.83301 -253 -210.83301 -253 46.75 -42 240.16602 295 rlineto
            return
          </CharString>
          <CharString index="203">
            -240.16602 -295 240.16602 -295 46.75 42 -210.83301 253 210.83301 253 rlineto
            return
          </CharString>
          <CharString index="204">
            385.91699 58 -385.91699 hlineto
            return
          </CharString>
          <CharString index="205">
            -349.25 -236 0 -79 345.58398 -236 33.91602 46 -331.83301 229 331.83301 225 rlineto
            return
          </CharString>
          <CharString index="206">
            0 -68 331.83398 -227 -331.83398 -226 0 -72 380.41699 259 0 78 rlineto
            return
          </CharString>
          <CharString index="207">
            -802 56.83398 802 vlineto
            return
          </CharString>
          <CharString index="208">
            -485.83301 331 485.83301 331 rlineto
            return
          </CharString>
          <CharString index="209">
            -47 31.16699 -35 43.08301 43.08301 31.16699 35 47 45 -31.16699 35 -43.08301 -43.08301 -31.16699 -35 -45 vhcurveto
            return
          </CharString>
        <CharString name=".notdef">
          -200 50 900 50 hstem
          5 54 432 54 vstem
          5 -200 rmoveto
          540 1000 -540 hlineto
          77 -50 rmoveto
          386 0 -193 -390 rlineto
          216 316 rmoveto
          0 -752 -186 376 rlineto
          -246 -376 rmoveto
          0 752 186 -376 rlineto
          30 -60 rmoveto
          193 -390 -386 0 rlineto
          endchar
        </CharString>
        <CharString name="A">
          18 -21 24 -21 24 -21 199 48 317 55 hstemhm
          43 464 hintmask 10011100
          445 -3 rmoveto
          hintmask 00111100
          -104 callsubr
          hintmask 01011100
          -103 callsubr
          hintmask 00111100
          -175 570 rmoveto
          -102 callsubr
          endchar
        </CharString>
        <CharString name="AE">
          0 54 139 48 49 48 228 54 hstem
          265 57 vstem
          259 566 rmoveto
          -18 callsubr
          6 -566 rmoveto
          -17 callsubr
          endchar
        </CharString>
        <CharString name="AEacute">
          0 54 139 48 49 48 228 54 hstem
          265 57 vstem
          223 721 rmoveto
          -29 callsubr
          36 -155 rmoveto
          -18 callsubr
          6 -566 rmoveto
          -17 callsubr
          endchar
        </CharString>
        <CharString name="Aacute">
          18 -21 24 -21 24 -21 199 48 317 55 hstemhm
          43 464 hintmask 00111100
          179 721 rmoveto
          -29 callsubr
          hintmask 10011100
          266 -724 rmoveto
          hintmask 00111100
          -104 callsubr
          hintmask 01011100
          -103 callsubr
          hintmask 00111100
          -175 570 rmoveto
          -102 callsubr
          endchar
        </CharString>
        <CharString name="Abreve">
          18 -21 24 -21 24 -21 199 48 317 55 79 50 hstemhm
          43 464 hintmask 00111110
          271 701 rmoveto
          4 callsubr
          hintmask 10011110
          174 -704 rmoveto
          hintmask 00111110
          -104 callsubr
          hintmask 01011110
          -103 callsubr
          hintmask 00111110
          -175 570 rmoveto
          -102 callsubr
          endchar
        </CharString>
        <CharString name="Acircumflex">
          18 -21 24 -21 24 -21 199 48 317 55 hstemhm
          43 464 hintmask 00111100
          408 696 rmoveto
          -22 callsubr
          hintmask 10011100
          174 -820 rmoveto
          hintmask 00111100
          -104 callsubr
          hintmask 01011100
          -103 callsubr
          hintmask 00111100
          -175 570 rmoveto
          -102 callsubr
          endchar
        </CharString>
        <CharString name="Adieresis">
          18 -21 24 -21 24 -21 199 48 317 55 81 132 hstemhm
          135.5 62.5 156 62 hintmask 00111111
          415 703 rmoveto
          -36 callsubr
          -157 hmoveto
          -35 callsubr
          hintmask 10011111
          309 -706 rmoveto
          hintmask 00111111
          -104 callsubr
          hintmask 01011111
          -103 callsubr
          hintmask 00111111
          -175 570 rmoveto
          -102 callsubr
          endchar
        </CharString>
        <CharString name="Agrave">
          18 -21 24 -21 24 -21 199 48 317 55 hstemhm
          43 464 hintmask 00111100
          367 713 rmoveto
          -78 callsubr
          hintmask 10011100
          98 -689 rmoveto
          hintmask 00111100
          -104 callsubr
          hintmask 01011100
          -103 callsubr
          hintmask 00111100
          -175 570 rmoveto
          -102 callsubr
          endchar
        </CharString>
        <CharString name="Amacron">
          18 -21 24 -21 24 -21 199 48 317 55 124 53 hstemhm
          43 464 hintmask 00111110
          437 799 rmoveto
          -32 callsubr
          hintmask 10011110
          8 -749 rmoveto
          hintmask 00111110
          -104 callsubr
          hintmask 01011110
          -103 callsubr
          hintmask 00111110
          -175 570 rmoveto
          -102 callsubr
          endchar
        </CharString>
        <CharString name="Aogonek">
          -207 50 178 -21 24 -21 24 -21 196 48 317 55 hstemhm
          314 56 hintmask 10011110
          485 -207 rmoveto
          7 50 rlineto
          -89 10 -33 16 0 25 rrcurveto
          hintmask 10101110
          0 24 29 32 108 53 -59 206 -62 205 -67 208 rrcurveto
          -88 hlineto
          hintmask 11001110
          -67 -209 -62 -206 -59 -207 rrcurveto
          61 hlineto
          19 68 19 67 19 67 rrcurveto
          225 hlineto
          hintmask 10011110
          19 -65 19 -65 18 -66 -94 -50 -34 -38 0 -38 rrcurveto
          0 -45 45 -30 126 -12 rrcurveto
          -215 774 rmoveto
          -102 callsubr
          endchar
        </CharString>
        <CharString name="Aring">
          18 -21 24 -21 24 -21 199 48 317 55 59 40 128 41 hstemhm
          142 48 166 47 hintmask 0011111110000000
          273 890 rmoveto
          -20 callsubr
          -41 vmoveto
          -19 callsubr
          hintmask 1001111110000000
          172 -852 rmoveto
          hintmask 0011111110000000
          -104 callsubr
          hintmask 0101111110000000
          -103 callsubr
          hintmask 0011111110000000
          -175 570 rmoveto
          -102 callsubr
          endchar
        </CharString>
        <CharString name="Aringacute">
          18 -21 24 -21 24 -21 199 48 317 55 59 40 128 41 hstemhm
          142 48 166 47 hintmask 0011111110000000
          179 962 rmoveto
          -29 callsubr
          94 -72 rmoveto
          14 callsubr
          -41 vmoveto
          -19 callsubr
          hintmask 1001111110000000
          172 -852 rmoveto
          hintmask 0011111110000000
          -104 callsubr
          hintmask 0101111110000000
          -103 callsubr
          hintmask 0011111110000000
          -175 570 rmoveto
          -102 callsubr
          endchar
        </CharString>
        <CharString name="Atilde">
          18 -21 24 -21 24 -21 199 48 317 55 80 51 59 51 hstemhm
          43 464 hintmask 00111111
          351 702 rmoveto
          -21 callsubr
          hintmask 10011111
          94 -705 rmoveto
          hintmask 00111111
          -104 callsubr
          hintmask 01011111
          -103 callsubr
          hintmask 00111111
          -175 570 rmoveto
          -102 callsubr
          endchar
        </CharString>
        <CharString name="B">
          -9 52 -22 -21 287 49 240 52 -8 -20 hstemhm
          101 62 246 60 -41 62 hintmask 10110101
          490 172 rmoveto
          -1 90 -61 46 -91 14 rrcurveto
          hintmask 01101110
          75 21 57 49 0 86 0 132 -142 37 -226 -27 rrcurveto
          -620 vlineto
          220 -30 170 47 -1 155 rrcurveto
          -327 400 rmoveto
          hintmask 10110110
          148 17 98 -28 0 -97 0 -91 -67 -41 -179 4 rrcurveto
          hintmask 10110101
          -287 vmoveto
          238 vlineto
          177 7 88 -23 0 -103 rrcurveto
          0 -112 -105 -28 -160 21 rrcurveto
          endchar
        </CharString>
        <CharString name="C">
          -3 54 516 60 hstem
          69 64 vstem
          476 51 rmoveto
          -101 callsubr
          endchar
        </CharString>
        <CharString name="CR.1.0">
          endchar
        </CharString>
        <CharString name="CR.10.0">
          endchar
        </CharString>
        <CharString name="CR.100.0">
          endchar
        </CharString>
        <CharString name="CR.100.1">
          endchar
        </CharString>
        <CharString name="CR.101.0">
          endchar
        </CharString>
        <CharString name="CR.101.1">
          endchar
        </CharString>
        <CharString name="CR.102.0">
          endchar
        </CharString>
        <CharString name="CR.102.1">
          endchar
        </CharString>
        <CharString name="CR.103.0">
          endchar
        </CharString>
        <CharString name="CR.103.1">
          endchar
        </CharString>
        <CharString name="CR.104.0">
          endchar
        </CharString>
        <CharString name="CR.104.1">
          endchar
        </CharString>
        <CharString name="CR.105.0">
          endchar
        </CharString>
        <CharString name="CR.105.1">
          endchar
        </CharString>
        <CharString name="CR.106.0">
          endchar
        </CharString>
        <CharString name="CR.106.1">
          endchar
        </CharString>
        <CharString name="CR.107.0">
          endchar
        </CharString>
        <CharString name="CR.107.1">
          endchar
        </CharString>
        <CharString name="CR.108.0">
          endchar
        </CharString>
        <CharString name="CR.108.1">
          endchar
        </CharString>
        <CharString name="CR.109.0">
          endchar
        </CharString>
        <CharString name="CR.109.1">
          endchar
        </CharString>
        <CharString name="CR.11.0">
          endchar
        </CharString>
        <CharString name="CR.110.0">
          endchar
        </CharString>
        <CharString name="CR.110.1">
          endchar
        </CharString>
        <CharString name="CR.111.0">
          endchar
        </CharString>
        <CharString name="CR.111.1">
          endchar
        </CharString>
        <CharString name="CR.112.0">
          endchar
        </CharString>
        <CharString name="CR.112.1">
          endchar
        </CharString>
        <CharString name="CR.113.0">
          endchar
        </CharString>
        <CharString name="CR.113.1">
          endchar
        </CharString>
        <CharString name="CR.114.0">
          endchar
        </CharString>
        <CharString name="CR.114.1">
          endchar
        </CharString>
        <CharString name="CR.115.0">
          endchar
        </CharString>
        <CharString name="CR.115.1">
          endchar
        </CharString>
        <CharString name="CR.116.0">
          endchar
        </CharString>
        <CharString name="CR.116.1">
          endchar
        </CharString>
        <CharString name="CR.117.0">
          endchar
        </CharString>
        <CharString name="CR.117.1">
          endchar
        </CharString>
        <CharString name="CR.118.0">
          endchar
        </CharString>
        <CharString name="CR.118.1">
          endchar
        </CharString>
        <CharString name="CR.119.0">
          endchar
        </CharString>
        <CharString name="CR.119.1">
          endchar
        </CharString>
        <CharString name="CR.12.0">
          endchar
        </CharString>
        <CharString name="CR.120.0">
          endchar
        </CharString>
        <CharString name="CR.120.1">
          endchar
        </CharString>
        <CharString name="CR.121.0">
          endchar
        </CharString>
        <CharString name="CR.121.1">
          endchar
        </CharString>
        <CharString name="CR.122.0">
          endchar
        </CharString>
        <CharString name="CR.122.1">
          endchar
        </CharString>
        <CharString name="CR.123.0">
          endchar
        </CharString>
        <CharString name="CR.123.1">
          endchar
        </CharString>
        <CharString name="CR.124.0">
          endchar
        </CharString>
        <CharString name="CR.124.1">
          endchar
        </CharString>
        <CharString name="CR.125.0">
          endchar
        </CharString>
        <CharString name="CR.125.1">
          endchar
        </CharString>
        <CharString name="CR.126.0">
          endchar
        </CharString>
        <CharString name="CR.126.1">
          endchar
        </CharString>
        <CharString name="CR.126.2">
          endchar
        </CharString>
        <CharString name="CR.127.0">
          endchar
        </CharString>
        <CharString name="CR.127.1">
          endchar
        </CharString>
        <CharString name="CR.127.2">
          endchar
        </CharString>
        <CharString name="CR.128.0">
          endchar
        </CharString>
        <CharString name="CR.128.1">
          endchar
        </CharString>
        <CharString name="CR.128.2">
          endchar
        </CharString>
        <CharString name="CR.129.0">
          endchar
        </CharString>
        <CharString name="CR.129.1">
          endchar
        </CharString>
        <CharString name="CR.129.2">
          endchar
        </CharString>
        <CharString name="CR.13.0">
          endchar
        </CharString>
        <CharString name="CR.130.0">
          endchar
        </CharString>
        <CharString name="CR.130.1">
          endchar
        </CharString>
        <CharString name="CR.130.2">
          endchar
        </CharString>
        <CharString name="CR.14.0">
          endchar
        </CharString>
        <CharString name="CR.15.0">
          endchar
        </CharString>
        <CharString name="CR.16.0">
          endchar
        </CharString>
        <CharString name="CR.17.0">
          endchar
        </CharString>
        <CharString name="CR.18.0">
          endchar
        </CharString>
        <CharString name="CR.19.0">
          endchar
        </CharString>
        <CharString name="CR.2.0">
          endchar
        </CharString>
        <CharString name="CR.20.0">
          endchar
        </CharString>
        <CharString name="CR.21.0">
          endchar
        </CharString>
        <CharString name="CR.22.0">
          endchar
        </CharString>
        <CharString name="CR.23.0">
          endchar
        </CharString>
        <CharString name="CR.24.0">
          endchar
        </CharString>
        <CharString name="CR.25.0">
          endchar
        </CharString>
        <CharString name="CR.26.0">
          endchar
        </CharString>
        <CharString name="CR.27.0">
          endchar
        </CharString>
        <CharString name="CR.28.0">
          endchar
        </CharString>
        <CharString name="CR.29.0">
          endchar
        </CharString>
        <CharString name="CR.3.0">
          endchar
        </CharString>
        <CharString name="CR.30.0">
          endchar
        </CharString>
        <CharString name="CR.31.0">
          endchar
        </CharString>
        <CharString name="CR.32.0">
          endchar
        </CharString>
        <CharString name="CR.33.0">
          endchar
        </CharString>
        <CharString name="CR.34.0">
          endchar
        </CharString>
        <CharString name="CR.35.0">
          endchar
        </CharString>
        <CharString name="CR.36.0">
          endchar
        </CharString>
        <CharString name="CR.37.0">
          endchar
        </CharString>
        <CharString name="CR.38.0">
          endchar
        </CharString>
        <CharString name="CR.39.0">
          endchar
        </CharString>
        <CharString name="CR.4.0">
          endchar
        </CharString>
        <CharString name="CR.40.0">
          endchar
        </CharString>
        <CharString name="CR.41.0">
          endchar
        </CharString>
        <CharString name="CR.42.0">
          endchar
        </CharString>
        <CharString name="CR.43.0">
          endchar
        </CharString>
        <CharString name="CR.44.0">
          endchar
        </CharString>
        <CharString name="CR.45.0">
          endchar
        </CharString>
        <CharString name="CR.46.0">
          endchar
        </CharString>
        <CharString name="CR.47.0">
          endchar
        </CharString>
        <CharString name="CR.48.0">
          endchar
        </CharString>
        <CharString name="CR.49.0">
          endchar
        </CharString>
        <CharString name="CR.5.0">
          endchar
        </CharString>
        <CharString name="CR.50.0">
          endchar
        </CharString>
        <CharString name="CR.51.0">
          endchar
        </CharString>
        <CharString name="CR.52.0">
          endchar
        </CharString>
        <CharString name="CR.53.0">
          endchar
        </CharString>
        <CharString name="CR.54.0">
          endchar
        </CharString>
        <CharString name="CR.55.0">
          endchar
        </CharString>
        <CharString name="CR.56.0">
          endchar
        </CharString>
        <CharString name="CR.57.0">
          endchar
        </CharString>
        <CharString name="CR.58.0">
          endchar
        </CharString>
        <CharString name="CR.59.0">
          endchar
        </CharString>
        <CharString name="CR.6.0">
          endchar
        </CharString>
        <CharString name="CR.60.0">
          endchar
        </CharString>
        <CharString name="CR.61.0">
          endchar
        </CharString>
        <CharString name="CR.62.0">
          endchar
        </CharString>
        <CharString name="CR.63.0">
          endchar
        </CharString>
        <CharString name="CR.64.0">
          endchar
        </CharString>
        <CharString name="CR.65.0">
          endchar
        </CharString>
        <CharString name="CR.66.0">
          endchar
        </CharString>
        <CharString name="CR.67.0">
          endchar
        </CharString>
        <CharString name="CR.68.0">
          endchar
        </CharString>
        <CharString name="CR.69.0">
          endchar
        </CharString>
        <CharString name="CR.7.0">
          endchar
        </CharString>
        <CharString name="CR.70.0">
          endchar
        </CharString>
        <CharString name="CR.71.0">
          endchar
        </CharString>
        <CharString name="CR.72.0">
          endchar
        </CharString>
        <CharString name="CR.73.0">
          endchar
        </CharString>
        <CharString name="CR.74.0">
          endchar
        </CharString>
        <CharString name="CR.75.0">
          endchar
        </CharString>
        <CharString name="CR.75.1">
          endchar
        </CharString>
        <CharString name="CR.76.0">
          endchar
        </CharString>
        <CharString name="CR.76.1">
          endchar
        </CharString>
        <CharString name="CR.77.0">
          endchar
        </CharString>
        <CharString name="CR.77.1">
          endchar
        </CharString>
        <CharString name="CR.78.0">
          endchar
        </CharString>
        <CharString name="CR.78.1">
          endchar
        </CharString>
        <CharString name="CR.79.0">
          endchar
        </CharString>
        <CharString name="CR.79.1">
          endchar
        </CharString>
        <CharString name="CR.8.0">
          endchar
        </CharString>
        <CharString name="CR.80.0">
          endchar
        </CharString>
        <CharString name="CR.80.1">
          endchar
        </CharString>
        <CharString name="CR.81.0">
          endchar
        </CharString>
        <CharString name="CR.81.1">
          endchar
        </CharString>
        <CharString name="CR.82.0">
          endchar
        </CharString>
        <CharString name="CR.82.1">
          endchar
        </CharString>
        <CharString name="CR.83.0">
          endchar
        </CharString>
        <CharString name="CR.83.1">
          endchar
        </CharString>
        <CharString name="CR.84.0">
          endchar
        </CharString>
        <CharString name="CR.84.1">
          endchar
        </CharString>
        <CharString name="CR.85.0">
          endchar
        </CharString>
        <CharString name="CR.85.1">
          endchar
        </CharString>
        <CharString name="CR.86.0">
          endchar
        </CharString>
        <CharString name="CR.86.1">
          endchar
        </CharString>
        <CharString name="CR.87.0">
          endchar
        </CharString>
        <CharString name="CR.87.1">
          endchar
        </CharString>
        <CharString name="CR.88.0">
          endchar
        </CharString>
        <CharString name="CR.88.1">
          endchar
        </CharString>
        <CharString name="CR.89.0">
          endchar
        </CharString>
        <CharString name="CR.89.1">
          endchar
        </CharString>
        <CharString name="CR.9.0">
          endchar
        </CharString>
        <CharString name="CR.90.0">
          endchar
        </CharString>
        <CharString name="CR.90.1">
          endchar
        </CharString>
        <CharString name="CR.91.0">
          endchar
        </CharString>
        <CharString name="CR.91.1">
          endchar
        </CharString>
        <CharString name="CR.92.0">
          endchar
        </CharString>
        <CharString name="CR.92.1">
          endchar
        </CharString>
        <CharString name="CR.93.0">
          endchar
        </CharString>
        <CharString name="CR.93.1">
          endchar
        </CharString>
        <CharString name="CR.94.0">
          endchar
        </CharString>
        <CharString name="CR.94.1">
          endchar
        </CharString>
        <CharString name="CR.95.0">
          endchar
        </CharString>
        <CharString name="CR.95.1">
          endchar
        </CharString>
        <CharString name="CR.96.0">
          endchar
        </CharString>
        <CharString name="CR.96.1">
          endchar
        </CharString>
        <CharString name="CR.97.0">
          endchar
        </CharString>
        <CharString name="CR.97.1">
          endchar
        </CharString>
        <CharString name="CR.98.0">
          endchar
        </CharString>
        <CharString name="CR.98.1">
          endchar
        </CharString>
        <CharString name="CR.99.0">
          endchar
        </CharString>
        <CharString name="CR.99.1">
          endchar
        </CharString>
        <CharString name="Cacute">
          -3 54 516 60 hstem
          69 64 vstem
          218 721 rmoveto
          -29 callsubr
          258 -670 rmoveto
          -101 callsubr
          endchar
        </CharString>
        <CharString name="Ccaron">
          -3 54 516 60 hstem
          69 64 vstem
          320 691 rmoveto
          7 callsubr
          158 -640 rmoveto
          -101 callsubr
          endchar
        </CharString>
        <CharString name="Ccedilla">
          14 -21 4 54 516 60 hstemhm
          69 64 196 54 hintmask 01111000
          383 -111 rmoveto
          0 36 -33 40 -69 44 51 -12 62 -5 76 5 rrcurveto
          6 54 rlineto
          -273 -11 -70 98 0 170 0 147 56 104 281 8 rrcurveto
          -4 60 rlineto
          -301 -12 -96 -147 0 -169 rrcurveto
          hintmask 10111000
          0 -129 43 -106 134 -45 rrcurveto
          -14 -26 rlineto
          69 -44 28 -32 0 -23 0 -24 -35 -15 -87 -14 rrcurveto
          5 -50 rlineto
          113 16 58 35 0 47 rrcurveto
          endchar
        </CharString>
        <CharString name="Cdotaccent">
          -3 54 516 60 76 132 hstem
          69 64 149.5 63 vstem
          343 703 rmoveto
          6 callsubr
          195 -652 rmoveto
          -101 callsubr
          endchar
        </CharString>
        <CharString name="D">
          -9 54 -25 -21 576 55 -9 -20 hstemhm
          92 61 280 63 hintmask 10101100
          496 323 rmoveto
          hintmask 01011100
          -100 callsubr
          -63 -12 rmoveto
          -99 callsubr
          endchar
        </CharString>
        <CharString name="Dcaron">
          -9 54 -25 -21 576 55 -9 -20 hstemhm
          92 61 280 63 hintmask 10101100
          273 697 rmoveto
          7 callsubr
          225 -374 rmoveto
          hintmask 01011100
          -100 callsubr
          -63 -12 rmoveto
          -99 callsubr
          endchar
        </CharString>
        <CharString name="Dcroat">
          -9 54 -25 -21 293 46 237 55 -9 -20 hstemhm
          92 61 280 63 hintmask 10110110
          496 323 rmoveto
          hintmask 01101110
          -16 callsubr
          -343 -273 rmoveto
          -15 callsubr
          endchar
        </CharString>
        <CharString name="E">
          0 54 236 48 228 54 hstem
          110 63 vstem
          483 54 rmoveto
          -98 callsubr
          endchar
        </CharString>
        <CharString name="Eacute">
          0 54 236 48 228 54 hstem
          110 63 vstem
          203 721 rmoveto
          -29 callsubr
          280 -667 rmoveto
          -98 callsubr
          endchar
        </CharString>
        <CharString name="Ebreve">
          0 54 236 48 228 54 81 50 hstem
          110 63 vstem
          295 701 rmoveto
          4 callsubr
          188 -647 rmoveto
          -98 callsubr
          endchar
        </CharString>
        <CharString name="Ecaron">
          0 54 236 48 228 54 hstem
          110 63 vstem
          304 691 rmoveto
          7 callsubr
          181 -637 rmoveto
          -98 callsubr
          endchar
        </CharString>
        <CharString name="Ecircumflex">
          0 54 236 48 228 54 hstem
          110 63 vstem
          432 696 rmoveto
          -22 callsubr
          188 -763 rmoveto
          -98 callsubr
          endchar
        </CharString>
        <CharString name="Edieresis">
          0 54 236 48 228 54 83 132 hstemhm
          110 63 -13.5 62.5 156 62 hintmask 11111010
          439 703 rmoveto
          -36 callsubr
          hintmask 11110110
          -157 hmoveto
          -35 callsubr
          323 -649 rmoveto
          hintmask 11111010
          -98 callsubr
          endchar
        </CharString>
        <CharString name="Edotaccent">
          0 54 236 48 228 54 83 132 hstem
          110 63 94.5 63 vstem
          328 703 rmoveto
          6 callsubr
          217 -649 rmoveto
          -98 callsubr
          endchar
        </CharString>
        <CharString name="Egrave">
          0 54 236 48 228 54 hstem
          110 63 vstem
          391 713 rmoveto
          -78 callsubr
          112 -632 rmoveto
          -98 callsubr
          endchar
        </CharString>
        <CharString name="Emacron">
          0 54 236 48 228 54 126 53 hstem
          110 63 vstem
          461 799 rmoveto
          -32 callsubr
          22 -692 rmoveto
          -98 callsubr
          endchar
        </CharString>
        <CharString name="Eogonek">
          0 54 236 48 228 54 hstem
          110 63 111 56 vstem
          462 -159 rmoveto
          -88 10 -34 15 0 25 0 25 29 32 108 52 rrcurveto
          6 54 -310 0 0 236 267 0 0 48 -267 0 0 228 306 0 0 54 -369 0 0 -620 296 0 rlineto
          -89 -49 -33 -36 0 -37 0 -46 45 -30 127 -12 rrcurveto
          endchar
        </CharString>
        <CharString name="Eth">
          -9 54 -25 -21 293 46 237 55 -9 -20 hstemhm
          92 61 280 63 hintmask 10110110
          496 323 rmoveto
          hintmask 01101110
          -16 callsubr
          -343 -273 rmoveto
          -15 callsubr
          endchar
        </CharString>
        <CharString name="Euro">
          1 -21 222 48 -43 44 110 45 235 -20 hstemhm
          132 54 hintmask 10111100
          485 32 rmoveto
          -178 26 -79 56 -29 93 rrcurveto
          223 0 3 44 -235 0 rlineto
          -3 19 -1 20 0 21 0 18 1 16 1 16 rrcurveto
          237 0 3 45 -233 0 rlineto
          24 95 73 52 186 29 rrcurveto
          -11 59 rlineto
          -210 -40 -89 -78 -28 -114 rrcurveto
          -75 -48 67 hlineto
          hintmask 11011100
          -2 -17 -1 -18 0 -19 0 -20 1 -19 2 -18 rrcurveto
          -67 -48 76 hlineto
          32 -120 97 -77 206 -25 rrcurveto
          endchar
        </CharString>
        <CharString name="F">
          21 -21 279 49 238 54 hstem
          118 62 vstem
          449 279 rmoveto
          49 -269 238 311 54 -373 -620 62 279 vlineto
          endchar
        </CharString>
        <CharString name="G">
          -9 55 521 60 hstem
          57 63 290 60 vstem
          471 6 rmoveto
          -97 callsubr
          endchar
        </CharString>
        <CharString name="Gbreve">
          -9 55 521 60 74 50 hstem
          57 63 290 60 vstem
          288 701 rmoveto
          4 callsubr
          183 -695 rmoveto
          -97 callsubr
          endchar
        </CharString>
        <CharString name="Gcommaaccent">
          -9 55 521 60 hstem
          57 63 147 63 80 60 vstem
          471 6 rmoveto
          -97 callsubr
          -230 -277 rmoveto
          9 callsubr
          endchar
        </CharString>
        <CharString name="Gdotaccent">
          -9 55 521 60 76 132 hstem
          57 63 140.5 63 86.5 60 vstem
          321 703 rmoveto
          6 callsubr
          212 -697 rmoveto
          -97 callsubr
          endchar
        </CharString>
        <CharString name="H">
          21 -21 290 49 281 -20 hstem
          86 63 252 63 vstem
          401 hmoveto
          63 620 -63 -281 -252 281 -63 -620 63 290 252 hlineto
          endchar
        </CharString>
        <CharString name="Hbar">
          21 -21 278 49 122 46 -45 43 -43 170 hstemhm
          86 63 252 63 hintmask 11010110
          401 327 rmoveto
          -252 123 252 hlineto
          -450 vmoveto
          63 hlineto
          hintmask 11100110
          449 75 46 -75 vlineto
          hintmask 11001110
          125 -63 vlineto
          hintmask 11010110
          -127 -252 vlineto
          hintmask 11001110
          127 -63 vlineto
          hintmask 11100110
          -125 -75 -46 75 -449 63 278 252 vlineto
          endchar
        </CharString>
        <CharString name="I">
          0 50 520 50 hstem
          243 62 vstem
          305 570 rmoveto
          -96 callsubr
          endchar
        </CharString>
        <CharString name="Iacute">
          0 50 520 50 hstem
          243 62 vstem
          181 721 rmoveto
          -29 callsubr
          124 -151 rmoveto
          -96 callsubr
          endchar
        </CharString>
        <CharString name="Ibreve">
          0 50 520 50 81 50 hstem
          243 62 vstem
          273 701 rmoveto
          4 callsubr
          32 -131 rmoveto
          -96 callsubr
          endchar
        </CharString>
        <CharString name="Icircumflex">
          0 50 520 50 hstem
          243 62 vstem
          410 696 rmoveto
          -22 callsubr
          32 -247 rmoveto
          -96 callsubr
          endchar
        </CharString>
        <CharString name="Idieresis">
          0 50 520 50 83 132 hstem
          137.5 62.5 43 62 51 62 vstem
          417 703 rmoveto
          -36 callsubr
          -157 hmoveto
          -35 callsubr
          167 -133 rmoveto
          -96 callsubr
          endchar
        </CharString>
        <CharString name="Idotaccent">
          0 50 520 50 83 132 hstemhm
          243 62 -59.5 63 hintmask 11101000
          306 703 rmoveto
          6 callsubr
          hintmask 11110000
          61 -133 rmoveto
          -96 callsubr
          endchar
        </CharString>
        <CharString name="Igrave">
          0 50 520 50 hstem
          243 62 vstem
          369 713 rmoveto
          -78 callsubr
          -44 -116 rmoveto
          -96 callsubr
          endchar
        </CharString>
        <CharString name="Imacron">
          0 50 520 50 126 53 hstem
          243 62 vstem
          439 799 rmoveto
          -32 callsubr
          -134 -176 rmoveto
          -96 callsubr
          endchar
        </CharString>
        <CharString name="Iogonek">
          -209 50 159 50 520 50 hstem
          164 57 22 62 vstem
          343 -159 rmoveto
          -89 10 -33 17 0 28 0 24 20 29 62 51 rrcurveto
          162 0 5 50 rlineto
          -165 520 160 50 -382 -50 160 -520 hlineto
          -160 -50 166 hlineto
          -61 -48 -24 -34 0 -35 0 -49 46 -31 126 -12 rrcurveto
          endchar
        </CharString>
        <CharString name="J">
          -11 58 522 51 hstem
          352 63 vstem
          132 620 rmoveto
          -51 220 -373 vlineto
          0 -127 -38 -31 -221 9 rrcurveto
          -58 vlineto
          246 -6 76 67 0 145 rrcurveto
          425 vlineto
          endchar
        </CharString>
        <CharString name="K">
          16 -21 26 -21 25 -21 284 50 282 -20 hstemhm
          100 62 hintmask 10011100
          444 -5 rmoveto
          hintmask 00111100
          -95 callsubr
          hintmask 01011100
          -620 62 288 71 vlineto
          endchar
        </CharString>
        <CharString name="Kcommaaccent">
          16 -21 26 -21 25 -21 284 50 282 -20 hstemhm
          100 62 89 63 hintmask 10011110
          444 -5 rmoveto
          hintmask 00111110
          -95 callsubr
          hintmask 01011110
          -620 62 288 71 vlineto
          -8 -555 rmoveto
          9 callsubr
          endchar
        </CharString>
        <CharString name="L">
          0 54 566 -20 hstem
          120 62 vstem
          491 hmoveto
          -94 callsubr
          endchar
        </CharString>
        <CharString name="Lacute">
          0 54 566 -20 hstem
          120 62 vstem
          211 721 rmoveto
          -29 callsubr
          280 -721 rmoveto
          -94 callsubr
          endchar
        </CharString>
        <CharString name="Lcaron">
          0 54 566 -20 99 -20 hstem
          120 62 230 60 vstem
          380 461 rmoveto
          8 callsubr
          111 -461 rmoveto
          -94 callsubr
          endchar
        </CharString>
        <CharString name="Lcommaaccent">
          0 54 566 -20 hstem
          120 62 101 63 vstem
          491 hmoveto
          -94 callsubr
          137 -262 rmoveto
          9 callsubr
          endchar
        </CharString>
        <CharString name="Ldot">
          0 54 215 96 255 -20 hstem
          120 62 204 79.5 vstem
          491 hmoveto
          -94 callsubr
          343 269 rmoveto
          5 96 -80 0 -4 -96 rlineto
          endchar
        </CharString>
        <CharString name="Lslash">
          0 54 566 -20 hstem
          120 62 vstem
          491 hmoveto
          6 54 -315 0 0 284 164 85 -11 45 -153 -80 0 232 -62 0 0 -264 -86 -45 11 -44 75 39 0 -306 rlineto
          endchar
        </CharString>
        <CharString name="M">
          21 -21 98 80 347 95 hstem
          71 57 291 59 vstem
          397 620 rmoveto
          0 0 -100 -371 -19 -71 rrcurveto
          -4 hlineto
          -19 71 -102 371 0 0 rrcurveto
          -82 -620 58 hlineto
          -2 525 4 0 118 -427 52 0 115 427 4 0 -2 -525 60 0 0 620 rlineto
          endchar
        </CharString>
        <CharString name="N">
          21 -21 0 106 420 94 hstemhm
          86 58 262 58 hintmask 10111000
          399 hmoveto
          65 620 -59 hlineto
          hintmask 01111000
          -93 callsubr
          endchar
        </CharString>
        <CharString name="NUL">
          0 endchar
        </CharString>
        <CharString name="Nacute">
          21 -21 0 106 420 94 hstemhm
          86 58 262 58 hintmask 10111000
          178 721 rmoveto
          -29 callsubr
          221 -721 rmoveto
          65 620 -59 hlineto
          hintmask 01111000
          -93 callsubr
          endchar
        </CharString>
        <CharString name="Ncaron">
          21 -21 0 106 420 94 hstemhm
          86 58 262 58 hintmask 10111000
          279 691 rmoveto
          7 callsubr
          122 -691 rmoveto
          65 620 -59 hlineto
          hintmask 01111000
          -93 callsubr
          endchar
        </CharString>
        <CharString name="Ncommaaccent">
          21 -21 0 106 420 94 hstemhm
          86 58 105 63 94 58 hintmask 10111100
          399 hmoveto
          65 620 -59 hlineto
          hintmask 01111100
          -93 callsubr
          75 -788 rmoveto
          9 callsubr
          endchar
        </CharString>
        <CharString name="Ntilde">
          21 -21 0 106 420 94 82 51 59 51 hstemhm
          86 58 262 58 hintmask 10111110
          350 702 rmoveto
          -21 callsubr
          49 -702 rmoveto
          65 620 -59 hlineto
          hintmask 01111110
          -93 callsubr
          endchar
        </CharString>
        <CharString name="O">
          -15 53 544 53 hstem
          49 63 326 63 vstem
          266 -15 rmoveto
          -92 callsubr
          7 597 rmoveto
          -91 callsubr
          endchar
        </CharString>
        <CharString name="OE">
          0 54 236 48 228 54 hstem
          41 63 171 57 vstem
          104 309 rmoveto
          0 175 55 79 116 2 rrcurveto
          -510 vlineto
          -118 -53 75 179 hvcurveto
          401 -255 rmoveto
          -173 236 146 48 -146 228 170 54 -205 hlineto
          -175 -81 -117 -205 -202 80 -96 174 hvcurveto
          206 hlineto
          endchar
        </CharString>
        <CharString name="Oacute">
          -15 53 544 53 hstem
          49 63 326 63 vstem
          182 728 rmoveto
          -29 callsubr
          84 -743 rmoveto
          -92 callsubr
          7 597 rmoveto
          -91 callsubr
          endchar
        </CharString>
        <CharString name="Obreve">
          -15 53 544 53 73 50 hstem
          49 63 326 63 vstem
          275 708 rmoveto
          4 callsubr
          -9 -723 rmoveto
          -92 callsubr
          7 597 rmoveto
          -91 callsubr
          endchar
        </CharString>
        <CharString name="Ocircumflex">
          -15 53 544 53 hstem
          49 63 326 63 vstem
          412 703 rmoveto
          -22 callsubr
          -9 -839 rmoveto
          -92 callsubr
          7 597 rmoveto
          -91 callsubr
          endchar
        </CharString>
        <CharString name="Odieresis">
          -15 53 544 53 75 132 hstem
          49 63 27.5 62.5 156 62 18 63 vstem
          419 710 rmoveto
          -36 callsubr
          -157 hmoveto
          -35 callsubr
          126 -725 rmoveto
          144 0 92 121 -1 215 -1 201 -79 113 -136 0 rrcurveto
          -144 -92 -120 -216 hvcurveto
          -201 81 -113 136 vhcurveto
          7 597 rmoveto
          -91 callsubr
          endchar
        </CharString>
        <CharString name="Ograve">
          -15 53 544 53 hstem
          49 63 326 63 vstem
          370 720 rmoveto
          -78 callsubr
          -84 -708 rmoveto
          -92 callsubr
          7 597 rmoveto
          -91 callsubr
          endchar
        </CharString>
        <CharString name="Ohungarumlaut">
          -15 53 544 53 hstem
          49 63 326 63 vstem
          137 721 rmoveto
          12 callsubr
          207 -1 rmoveto
          13 callsubr
          -78 -735 rmoveto
          -92 callsubr
          7 597 rmoveto
          -91 callsubr
          endchar
        </CharString>
        <CharString name="Omacron">
          -15 53 544 53 118 53 hstem
          49 63 326 63 vstem
          441 806 rmoveto
          -32 callsubr
          -175 -768 rmoveto
          -92 callsubr
          7 597 rmoveto
          -91 callsubr
          endchar
        </CharString>
        <CharString name="Omega">
          0 50 526 57 hstem
          75 58 283 60 vstem
          223 5 rmoveto
          -62 147 -28 124 0 95 rrcurveto
          129 50 76 92 92 49 -76 -130 vhcurveto
          0 -96 -26 -123 -62 -146 rrcurveto
          1 -5 176 0 0 50 -111 0 rlineto
          55 126 27 111 0 92 1 154 -70 100 -128 0 -131 0 -73 -101 0 -155 0 -91 26 -111 56 -125 rrcurveto
          -111 -50 175 hlineto
          endchar
        </CharString>
        <CharString name="Oslash">
          -15 53 -26 -21 591 53 -6 -20 hstemhm
          49 63 326 63 hintmask 10101100
          112 312 rmoveto
          -13 callsubr
          165 -274 rmoveto
          -12 callsubr
          -11 -53 rmoveto
          -11 callsubr
          hintmask 10011100
          -10 callsubr
          hintmask 01101100
          -9 callsubr
          hintmask 10101100
          -8 callsubr
          endchar
        </CharString>
        <CharString name="Oslashacute">
          -15 53 -26 -21 591 53 -6 -20 hstemhm
          49 63 326 63 hintmask 10101100
          180 728 rmoveto
          -29 callsubr
          -68 -416 rmoveto
          -13 callsubr
          165 -274 rmoveto
          -12 callsubr
          -11 -53 rmoveto
          -11 callsubr
          hintmask 10011100
          -10 callsubr
          hintmask 01101100
          -9 callsubr
          hintmask 10101100
          -8 callsubr
          endchar
        </CharString>
        <CharString name="Otilde">
          -15 53 544 53 74 51 59 51 hstem
          49 63 326 63 vstem
          355 709 rmoveto
          -14 callsubr
          -89 -724 rmoveto
          -92 callsubr
          7 597 rmoveto
          -91 callsubr
          endchar
        </CharString>
        <CharString name="P">
          21 -21 210 58 307 54 -11 -20 hstemhm
          106 62 266 62 hintmask 11101100
          168 hmoveto
          210 vlineto
          198 10 130 66 0 146 rrcurveto
          hintmask 11011100
          0 149 -134 78 -256 -41 rrcurveto
          -618 vlineto
          hintmask 11101100
          328 421 rmoveto
          0 -119 -96 -44 -170 10 rrcurveto
          301 vlineto
          180 26 86 -62 0 -112 rrcurveto
          endchar
        </CharString>
        <CharString name="Q">
          -14 52 -50 50 544 53 hstemhm
          49 63 326 63 hintmask 10111000
          449 -128 rmoveto
          hintmask 01111000
          19 52 -165 63 0 1 rlineto
          123 19 76 118 -1 196 -1 201 -79 113 -136 0 -144 0 -92 -120 0 -216 rrcurveto
          hintmask 10111000
          0 -189 71 -111 121 -13 rrcurveto
          -12 -33 rlineto
          44 629 rmoveto
          -91 callsubr
          endchar
        </CharString>
        <CharString name="R">
          11 -21 31 -21 23 -21 235 47.5 291.5 54 -12 -20 hstemhm
          100 62 243 62 hintmask 10011011
          443 -10 rmoveto
          hintmask 00110111
          -90 callsubr
          hintmask 01011011
          -89 callsubr
          -146 331 rmoveto
          -88 callsubr
          endchar
        </CharString>
        <CharString name="R_p">
          -149 -21 27 -21 153 50 -25 -21 25 -21 24 -21 26 -21 234.5 44 161.5 49 -9 -20 109 53 -9 -20 hstemhm
          46 54 102 54 55 53 107 52 hintmask 0100100110011111
          224 -3 rmoveto
          hintmask 0100001110011111
          53 8 -77 265 rlineto
          33 38 23 60 0 86 0 126 -54 74 -156 -36 rrcurveto
          hintmask 0100010110101111
          -618 54 238 vlineto
          54 3 rlineto
          -54 333 rmoveto
          74 14 28 -46 0 -98 0 -68 -14 -54 -24 -37 rrcurveto
          -64 -3 rlineto
          hintmask 0110000110011111
          304 -243 rmoveto
          -14 0 -13 2 -13 8 0 166 -1 105 -2 91 16 19 20 15 18 0 rrcurveto
          40 16 -67 -134 hvcurveto
          -143 -18 -62 -49 vhcurveto
          -40 -203 rmoveto
          hintmask 0101000110011111
          157 vlineto
          hintmask 0110000110011111
          9 -3 10 -1 9 0 rrcurveto
          84 47 82 197 142 -26 84 -60 hvcurveto
          -32 0 -28 -22 -19 -23 rrcurveto
          hintmask 1010000101011111
          -2 36 -49 -4 rlineto
          3 -105 1 -158 0 -219 rrcurveto
          -169 vlineto
          endchar
        </CharString>
        <CharString name="Racute">
          11 -21 31 -21 23 -21 235 47.5 291.5 54 -12 -20 hstemhm
          100 62 243 62 hintmask 00111011
          171 730 rmoveto
          -29 callsubr
          hintmask 10011011
          272 -740 rmoveto
          hintmask 00110111
          -90 callsubr
          hintmask 01011011
          -89 callsubr
          -146 331 rmoveto
          -88 callsubr
          endchar
        </CharString>
        <CharString name="Rcaron">
          11 -21 31 -21 23 -21 235 47.5 291.5 54 -12 -20 hstemhm
          100 62 243 62 hintmask 00111011
          272 700 rmoveto
          7 callsubr
          hintmask 10011011
          173 -710 rmoveto
          hintmask 00110111
          -90 callsubr
          hintmask 01011011
          -89 callsubr
          -146 331 rmoveto
          -88 callsubr
          endchar
        </CharString>
        <CharString name="Rcommaaccent">
          11 -21 31 -21 23 -21 235 47.5 291.5 54 -12 -20 hstemhm
          100 62 115 63 65 62 hintmask 1001101110000000
          443 -10 rmoveto
          hintmask 0011011110000000
          -90 callsubr
          hintmask 0101101110000000
          -89 callsubr
          -146 331 rmoveto
          -88 callsubr
          89 -555 rmoveto
          9 callsubr
          endchar
        </CharString>
        <CharString name="S">
          -6 56 516 58 hstem
          90 63 259 63 vstem
          89 54 rmoveto
          -87 callsubr
          endchar
        </CharString>
        <CharString name="Sacute">
          -6 56 516 58 hstem
          90 63 259 63 vstem
          200 723 rmoveto
          -29 callsubr
          -111 -669 rmoveto
          -87 callsubr
          endchar
        </CharString>
        <CharString name="Scaron">
          -6 56 516 58 hstem
          90 63 259 63 vstem
          302 693 rmoveto
          7 callsubr
          -211 -639 rmoveto
          -87 callsubr
          endchar
        </CharString>
        <CharString name="Scedilla">
          -149 -21 173 -21 12 56 -51 51 516 58 hstemhm
          90 63 147 54 58 63 hintmask 10101111
          183 -220 rmoveto
          113 16 58 35 0 47 rrcurveto
          hintmask 10011111
          0 36 -33 41 -71 44 160 22 65 76 0 71 0 149 -322 44 0 116 0 56 61 47 227 -14 rrcurveto
          -4 58 rlineto
          -254 15 -93 -87 0 -86 0 -145 322 -41 0 -122 rrcurveto
          hintmask 10101111
          0 -64 -86 -61 -237 21 rrcurveto
          -1 -60 rlineto
          45 -3 40 1 37 2 rrcurveto
          hintmask 11001111
          -7 -12 rlineto
          69 -44 28 -32 0 -23 0 -24 -35 -15 -87 -14 rrcurveto
          endchar
        </CharString>
        <CharString name="Scommaaccent">
          -6 56 516 58 hstem
          90 63 99 63 97 63 vstem
          89 54 rmoveto
          -87 callsubr
          137 -328 rmoveto
          9 callsubr
          endchar
        </CharString>
        <CharString name="T">
          21 -21 566 54 hstem
          244 63 vstem
          307 566 rmoveto
          -86 callsubr
          endchar
        </CharString>
        <CharString name="Tcaron">
          21 -21 566 54 hstem
          244 63 vstem
          279 691 rmoveto
          7 callsubr
          30 -125 rmoveto
          -86 callsubr
          endchar
        </CharString>
        <CharString name="Tcommaaccent">
          21 -21 566 54 hstemhm
          244 63 -58 63 hintmask 11100000
          307 566 rmoveto
          -86 callsubr
          hintmask 11010000
          -84 -262 rmoveto
          11 callsubr
          endchar
        </CharString>
        <CharString name="Thorn">
          21 -21 108 58 300 55 -55 154 hstemhm
          106 63 268 62 hintmask 11101100
          169 hmoveto
          108 vlineto
          200 10 130 65 0 144 0 137 -117 75 -213 -22 rrcurveto
          hintmask 11011100
          103 -63 -620 vlineto
          hintmask 11101100
          331 316 rmoveto
          0 -116 -98 -42 -170 8 rrcurveto
          295 vlineto
          176 25 92 -60 0 -110 rrcurveto
          endchar
        </CharString>
        <CharString name="U">
          -15 55 580 -20 hstem
          82 62 261 63 vstem
          270 -15 rmoveto
          -85 callsubr
          endchar
        </CharString>
        <CharString name="Uacute">
          -15 55 580 -20 hstem
          82 62 261 63 vstem
          179 721 rmoveto
          -29 callsubr
          91 -736 rmoveto
          -85 callsubr
          endchar
        </CharString>
        <CharString name="Ubreve">
          -15 55 580 -20 101 50 hstem
          82 62 261 63 vstem
          272 701 rmoveto
          4 callsubr
          -2 -716 rmoveto
          -85 callsubr
          endchar
        </CharString>
        <CharString name="Ucircumflex">
          -15 55 580 -20 hstem
          82 62 261 63 vstem
          409 696 rmoveto
          -22 callsubr
          -2 -832 rmoveto
          -85 callsubr
          endchar
        </CharString>
        <CharString name="Udieresis">
          -15 55 580 -20 103 132 hstemhm
          82 62 -7.5 62.5 156 62 -12 63 hintmask 11110100
          416 703 rmoveto
          -36 callsubr
          hintmask 11101100
          -157 hmoveto
          -35 callsubr
          hintmask 11110010
          133 -718 rmoveto
          -85 callsubr
          endchar
        </CharString>
        <CharString name="Ugrave">
          -15 55 580 -20 hstem
          82 62 261 63 vstem
          368 713 rmoveto
          -78 callsubr
          -78 -701 rmoveto
          -85 callsubr
          endchar
        </CharString>
        <CharString name="Uhungarumlaut">
          -15 55 580 -20 hstem
          82 62 261 63 vstem
          134 714 rmoveto
          12 callsubr
          207 -1 rmoveto
          13 callsubr
          -71 -728 rmoveto
          -85 callsubr
          endchar
        </CharString>
        <CharString name="Umacron">
          -15 55 580 -20 146 53 hstem
          82 62 261 63 vstem
          438 799 rmoveto
          -32 callsubr
          -168 -761 rmoveto
          -85 callsubr
          endchar
        </CharString>
        <CharString name="Uogonek">
          -16 56 580 -20 hstem
          82 62 47 56 158 63 vstem
          363 -210 rmoveto
          6 51 rlineto
          -88 10 -34 16 0 25 0 26 27 31 92 57 73 45 29 53 0 93 rrcurveto
          423 -63 -431 vlineto
          -104 -42 -45 -86 -82 -51 51 112 vhcurveto
          417 -62 -424 vlineto
          0 -134 68 -75 123 -3 -61 -41 -21 -31 0 -34 0 -46 45 -30 127 -12 rrcurveto
          endchar
        </CharString>
        <CharString name="Uring">
          -15 55 580 -20 81 40 128 41 hstemhm
          82 62 -1 48 166 47 1 63 hintmask 11110110
          274 890 rmoveto
          -20 callsubr
          -41 vmoveto
          -19 callsubr
          hintmask 11111001
          -4 -864 rmoveto
          -85 callsubr
          endchar
        </CharString>
        <CharString name="V">
          -2 57 565 -20 23 -20 hstemhm
          45 460 hintmask 10110000
          321 -2 rmoveto
          hintmask 11010000
          66 210 61 205 57 207 rrcurveto
          -60 hlineto
          -52 -190 -54 -186 -58 -189 rrcurveto
          -9 hlineto
          hintmask 10110000
          -58 189 -55 189 -51 190 rrcurveto
          -63 -6 rlineto
          57 -206 61 -203 67 -210 rrcurveto
          endchar
        </CharString>
        <CharString name="W">
          0 76 544 -20 hstem
          59 62 312 59 vstem
          371 hmoveto
          -84 callsubr
          endchar
        </CharString>
        <CharString name="Wacute">
          0 76 544 -20 hstem
          59 62 312 59 vstem
          184 721 rmoveto
          -29 callsubr
          187 -721 rmoveto
          -84 callsubr
          endchar
        </CharString>
        <CharString name="Wcircumflex">
          0 76 544 -20 hstem
          59 62 312 59 vstem
          413 696 rmoveto
          -22 callsubr
          95 -817 rmoveto
          -84 callsubr
          endchar
        </CharString>
        <CharString name="Wdieresis">
          0 76 544 -20 103 132 hstem
          59 62 19.5 62.5 156 62 12 59 vstem
          420 703 rmoveto
          -36 callsubr
          -157 hmoveto
          -35 callsubr
          230 -703 rmoveto
          -84 callsubr
          endchar
        </CharString>
        <CharString name="Wgrave">
          0 76 544 -20 hstem
          59 62 312 59 vstem
          372 713 rmoveto
          -78 callsubr
          19 -686 rmoveto
          -84 callsubr
          endchar
        </CharString>
        <CharString name="X">
          18 -21 24 -21 24 -21 617 -20 23 -20 hstemhm
          48 457 hintmask 10001100
          437 -3 rmoveto
          hintmask 00110100
          67 6 -189 307 190 310 -67 0 -158 -267 rlineto
          hintmask 01001100
          -165 270 -67 -6 190 -308 -190 -309 66 0 160 266 rlineto
          endchar
        </CharString>
        <CharString name="Y">
          21 -21 620 -20 21 -20 hstemhm
          244 63 hintmask 10110000
          307 hmoveto
          0 208 rlineto
          hintmask 11010000
          -83 callsubr
          hintmask 10110000
          -82 callsubr
          endchar
        </CharString>
        <CharString name="Yacute">
          21 -21 620 -20 21 -20 hstemhm
          244 63 hintmask 10110000
          183 722 rmoveto
          -29 callsubr
          124 -722 rmoveto
          0 208 rlineto
          hintmask 11010000
          -83 callsubr
          hintmask 10110000
          -82 callsubr
          endchar
        </CharString>
        <CharString name="Ycircumflex">
          21 -21 620 -20 21 -20 hstemhm
          244 63 hintmask 10110000
          412 697 rmoveto
          -22 callsubr
          32 -818 rmoveto
          0 208 rlineto
          hintmask 11010000
          -83 callsubr
          hintmask 10110000
          -82 callsubr
          endchar
        </CharString>
        <CharString name="Ydieresis">
          21 -21 620 -20 21 -20 103 132 hstemhm
          139.5 62.5 42 63 51 62 hintmask 10111110
          419 704 rmoveto
          -36 callsubr
          -157 hmoveto
          -35 callsubr
          167 -704 rmoveto
          0 208 rlineto
          hintmask 11011110
          -83 callsubr
          hintmask 10111110
          -82 callsubr
          endchar
        </CharString>
        <CharString name="Ygrave">
          21 -21 620 -20 21 -20 hstemhm
          244 63 hintmask 10110000
          371 714 rmoveto
          -78 callsubr
          -44 -687 rmoveto
          0 208 rlineto
          hintmask 11010000
          -83 callsubr
          hintmask 10110000
          -82 callsubr
          endchar
        </CharString>
        <CharString name="Z">
          0 55 510 55 hstem
          70 413 vstem
          478 hmoveto
          -81 callsubr
          endchar
        </CharString>
        <CharString name="Zacute">
          0 55 510 55 hstem
          70 413 vstem
          191 721 rmoveto
          -29 callsubr
          287 -721 rmoveto
          -81 callsubr
          endchar
        </CharString>
        <CharString name="Zcaron">
          0 55 510 55 hstem
          70 413 vstem
          292 691 rmoveto
          7 callsubr
          188 -691 rmoveto
          -81 callsubr
          endchar
        </CharString>
        <CharString name="Zdotaccent">
          0 55 510 55 83 132 hstem
          255.5 63 vstem
          316 703 rmoveto
          6 callsubr
          224 -703 rmoveto
          -81 callsubr
          endchar
        </CharString>
        <CharString name="a">
          -12 50 -19 -21 24 -21 230 42 166 54 hstemhm
          72 60 266 60 hintmask 10011110
          244 38 rmoveto
          -67 -45 32 57 hvcurveto
          0 76 71 43 195 -20 0 -54 1 -39 1 -34 rrcurveto
          -41 -34 -58 -27 -57 0 rrcurveto
          hintmask 01011110
          165 -40 rmoveto
          hintmask 00111110
          -77 callsubr
          hintmask 10011110
          -76 callsubr
          endchar
        </CharString>
        <CharString name="aacute">
          -12 50 -19 -21 24 -21 230 42 166 54 hstemhm
          72 60 266 60 hintmask 10011110
          180 587 rmoveto
          -29 callsubr
          64 -549 rmoveto
          -7 callsubr
          hintmask 01011110
          165 -40 rmoveto
          hintmask 00111110
          -77 callsubr
          hintmask 10011110
          -76 callsubr
          endchar
        </CharString>
        <CharString name="abreve">
          -12 50 -19 -21 24 -21 230 42 166 54 74 50 hstemhm
          72 60 266 60 hintmask 10011111
          272 567 rmoveto
          4 callsubr
          -28 -529 rmoveto
          -7 callsubr
          hintmask 01011111
          165 -40 rmoveto
          hintmask 00111111
          -77 callsubr
          hintmask 10011111
          -76 callsubr
          endchar
        </CharString>
        <CharString name="acircumflex">
          -12 50 -19 -21 24 -21 230 42 166 54 hstemhm
          72 60 266 60 hintmask 10011110
          409 562 rmoveto
          -22 callsubr
          -28 -645 rmoveto
          -7 callsubr
          hintmask 01011110
          165 -40 rmoveto
          hintmask 00111110
          -77 callsubr
          hintmask 10011110
          -76 callsubr
          endchar
        </CharString>
        <CharString name="acute">
          557 206 hstem
          175 237 vstem
          175 585 rmoveto
          -29 callsubr
          endchar
        </CharString>
        <CharString name="adieresis">
          -12 50 -19 -21 24 -21 230 42 166 54 76 132 hstemhm
          72 60 4.5 62.5 156 62 -19 60 hintmask 1001110110000000
          416 569 rmoveto
          -36 callsubr
          -157 hmoveto
          -35 callsubr
          107 -531 rmoveto
          hintmask 1001111001000000
          -7 callsubr
          hintmask 0101110101000000
          165 -40 rmoveto
          hintmask 0011111001000000
          -77 callsubr
          hintmask 1001111001000000
          -76 callsubr
          endchar
        </CharString>
        <CharString name="ae">
          -6 53 177 43 -37.5 38.5 167 53 -50 52 hstemhm
          39 59 143 55 155 56 hintmask 10101111
          492 -6 rmoveto
          -6 callsubr
          hintmask 11010111
          -26 64 -60 22 -117 7 rrcurveto
          -5 -53 rlineto
          142 -10 36 -30 3 -128 -131 -4 -71 -54 0 -96 0 -77 44 -42 59 0 60 0 46 39 27 42 rrcurveto
          34 -51 65 -27 118 -3 rrcurveto
          -114 444 rmoveto
          -5 callsubr
          -215 -393 rmoveto
          -38 -27 25 57 hvcurveto
          hintmask 11001111
          -4 callsubr
          endchar
        </CharString>
        <CharString name="aeacute">
          -6 53 177 43 -37.5 38.5 167 53 -50 52 hstemhm
          39 59 143 55 155 56 hintmask 10101111
          179 585 rmoveto
          -29 callsubr
          313 -591 rmoveto
          -6 callsubr
          hintmask 11010111
          -26 64 -60 22 -117 7 rrcurveto
          -5 -53 rlineto
          142 -10 36 -30 3 -128 -131 -4 -71 -54 0 -96 0 -77 44 -42 59 0 60 0 46 39 27 42 34 -51 65 -27 118 -3 rrcurveto
          -114 444 rmoveto
          -5 callsubr
          -215 -393 rmoveto
          -38 -27 25 57 hvcurveto
          hintmask 11001111
          -4 callsubr
          endchar
        </CharString>
        <CharString name="agrave">
          -12 50 -19 -21 24 -21 230 42 166 54 hstemhm
          72 60 266 60 hintmask 10011110
          368 579 rmoveto
          -78 callsubr
          -104 -514 rmoveto
          -7 callsubr
          hintmask 01011110
          165 -40 rmoveto
          hintmask 00111110
          -77 callsubr
          hintmask 10011110
          -76 callsubr
          endchar
        </CharString>
        <CharString name="amacron">
          -12 50 -19 -21 24 -21 230 42 166 54 119 53 hstemhm
          72 60 266 60 hintmask 10011111
          438 665 rmoveto
          -32 callsubr
          -194 -574 rmoveto
          -7 callsubr
          hintmask 01011111
          165 -40 rmoveto
          hintmask 00111111
          -77 callsubr
          hintmask 10011111
          -76 callsubr
          endchar
        </CharString>
        <CharString name="ampersand">
          -10 54 316 56 230 50 hstemhm
          18 61 -24 61 263 56 hintmask 11110100
          238 696 rmoveto
          hintmask 11101100
          -116 -67 -78 -87 hvcurveto
          0 -56 27 -65 93 -21 rrcurveto
          -3 vlineto
          hintmask 11110100
          -102 -20 -55 -71 0 -101 0 -97 61 -107 155 0 115 0 59 58 27 36 rrcurveto
          276 96 56 -282 vlineto
          hintmask 11101100
          -74 -59 58 63 63 38 46 77 hvcurveto
          54 0 36 -21 36 -41 rrcurveto
          40 38 rlineto
          -55 61 -51 13 -53 0 rrcurveto
          141 -336 rmoveto
          -256 vlineto
          -31 -39 -52 -21 -61 0 rrcurveto
          -112 -44 76 74 74 46 92 110 hvcurveto
          endchar
        </CharString>
        <CharString name="aogonek">
          9 -21 0 50 -16 -21 230 42 166 54 hstemhm
          72 60 138 56 72 60 hintmask 01011111
          442 -208 rmoveto
          5 callsubr
          hintmask 00111111
          0 24 30 32 108 52 -3 71 -3 63 0 106 0 184 -77 58 -272 10 rrcurveto
          -7 -54 rlineto
          222 -9 67 -33 6 -124 -221 16 -104 -73 0 -103 rrcurveto
          hintmask 01011111
          -78 58 -47 83 vhcurveto
          81 0 65 51 42 51 rrcurveto
          hintmask 10011111
          2 -22 3 -37 2 -21 -101 -53 -37 -39 0 -39 rrcurveto
          0 -45 46 -30 126 -12 rrcurveto
          -206 246 rmoveto
          -62 -42 32 57 hvcurveto
          0 76 71 43 195 -20 0 -46 0 -23 1 -29 -42 -50 -62 -40 -59 0 rrcurveto
          endchar
        </CharString>
        <CharString name="approxequal">
          103 51 65 51 41 52 64 51 hstem
          59 429 vstem
          364 311 rmoveto
          53 0 34 48 37 97 rrcurveto
          -40 16 rlineto
          -26 -62 -25 -47 -32 0 -52 0 -46 115 -79 0 -54 0 -38 -50 -37 -98 rrcurveto
          39 -16 rlineto
          28 64 25 49 33 0 53 0 48 -116 79 0 rrcurveto
          -208 vmoveto
          53 0 34 48 37 97 rrcurveto
          -39 16 rlineto
          -27 -62 -24 -48 -33 0 -52 0 -46 116 -79 0 -54 0 -38 -50 -37 -98 rrcurveto
          40 -16 rlineto
          27 64 25 49 33 0 53 0 48 -116 79 0 rrcurveto
          endchar
        </CharString>
        <CharString name="aring">
          -12 50 -19 -21 24 -21 230 42 166 54 54 40 128 41 hstemhm
          72 60 11 48 166 47 -6 60 hintmask 1001111111000000
          274 756 rmoveto
          -20 callsubr
          -41 vmoveto
          -19 callsubr
          -30 -677 rmoveto
          hintmask 1001111100100000
          -7 callsubr
          hintmask 0101111100100000
          165 -40 rmoveto
          hintmask 0011111100100000
          -77 callsubr
          hintmask 1001111100100000
          -76 callsubr
          endchar
        </CharString>
        <CharString name="aringacute">
          -12 50 -19 -21 24 -21 230 42 166 54 54 40 128 41 hstemhm
          72 60 11 48 166 47 -6 60 hintmask 1001111100100000
          180 831 rmoveto
          -29 callsubr
          hintmask 1001111111000000
          94 -75 rmoveto
          -20 callsubr
          -41 vmoveto
          -19 callsubr
          -30 -677 rmoveto
          hintmask 1001111100100000
          -7 callsubr
          hintmask 0101111100100000
          165 -40 rmoveto
          hintmask 0011111100100000
          -77 callsubr
          hintmask 1001111100100000
          -76 callsubr
          endchar
        </CharString>
        <CharString name="asciicircum">
          527 311 hstem
          59 432 vstem
          302 838 rmoveto
          -54 0 -189 -311 70 0 145 248 144 -248 73 0 rlineto
          endchar
        </CharString>
        <CharString name="asciitilde">
          233 59 41 59 hstem
          25 500 vstem
          181 392 rmoveto
          -89 0 -41 -68 -26 -51 rrcurveto
          51 -27 rlineto
          26 48 32 39 44 0 65 0 33 -100 93 0 88 0 42 71 26 46 rrcurveto
          -51 29 rlineto
          -26 -47 -34 -40 -42 0 -62 0 -28 100 -101 0 rrcurveto
          endchar
        </CharString>
        <CharString name="asterisk">
          105 469 hstem
          29 492 vstem
          242 574 rmoveto
          66 0 -2 -206 195 64 20 -60 -196 -63 122 -166 -52 -38 -120 169 -120 -169 -52 38 122 166 -196 63 20 60 195 -64 rlineto
          endchar
        </CharString>
        <CharString name="asterisk.alt">
          636 -20 hstemhm
          250 28.5 -5.5 28 hintmask 10100000
          301 556 rmoveto
          34 128 -61 10 -2 -134 rlineto
          -44 -17 rmoveto
          -95 93 -39 -47 115 -71 rlineto
          140 -20 rmoveto
          129 35 -22 58 -117 -64 rlineto
          -137 -55 rmoveto
          -128 -36 22 -56 117 63 rlineto
          111 -15 rmoveto
          95 -94 38 47 -113 71 rlineto
          hintmask 11000000
          -94 -37 rmoveto
          -34 -130 61 -9 3 134 rlineto
          endchar
        </CharString>
        <CharString name="at">
          -157 51 165 50 318 50 154 50 hstem
          58 53 108 56 152 55 vstem
          446 -152 rmoveto
          50 vlineto
          -268 -32 -67 146 0 242 0 246 86 131 115 0 74 0 35 -53 5 -101 -125 11 -82 -83 0 -157 0 -117 49 -72 67 0 42 0 27 19 28 32 rrcurveto
          1 -15 2 -17 1 -11 rrcurveto
          51 6 rlineto
          -3 99 -2 86 0 189 rrcurveto
          151 -50 83 -113 -151 -110 -169 -265 vhcurveto
          0 -261 90 -177 298 39 rrcurveto
          -93 261 rmoveto
          -51 -27 53 98 hvcurveto
          0 118 37 70 115 -26 rrcurveto
          -275 vlineto
          -20 -21 -24 -17 -30 0 rrcurveto
          endchar
        </CharString>
        <CharString name="atilde">
          -12 50 -19 -21 24 -21 230 42 166 54 75 51 59 51 hstemhm
          72 60 266 60 hintmask 1001111110000000
          352 568 rmoveto
          -21 callsubr
          -108 -530 rmoveto
          -7 callsubr
          hintmask 0101111110000000
          165 -40 rmoveto
          hintmask 0011111110000000
          -77 callsubr
          hintmask 1001111110000000
          -76 callsubr
          endchar
        </CharString>
        <CharString name="b">
          -11 53 402 51 203 -20 25 -20 hstemhm
          98 61 271 60 hintmask 11011100
          237 -11 rmoveto
          131 122 104 170 142 -79 90 -105 hvcurveto
          -60 0 -49 -25 -38 -31 rrcurveto
          0 264 rlineto
          hintmask 11101100
          -61 -5 0 -685 rlineto
          43 -16 48 -8 48 0 rrcurveto
          21 53 rmoveto
          -31 0 -33 6 -35 12 rrcurveto
          338 vlineto
          35 28 45 18 45 0 rrcurveto
          84 62 -70 -126 -133 -75 -73 -97 hvcurveto
          endchar
        </CharString>
        <CharString name="backslash">
          -100 907 hstem
          35 480 vstem
          35 782 rmoveto
          429 -882 51 22 -430 885 rlineto
          endchar
        </CharString>
        <CharString name="bar">
          -101 907 hstem
          248 53 vstem
          301 806 rmoveto
          -53 -907 53 hlineto
          endchar
        </CharString>
        <CharString name="braceleft">
          235 45 hstemhm
          156 59 -56 62 32 57 -52 55 hintmask 10110000
          461 -207 rmoveto
          -42 callsubr
          hintmask 11001000
          -41 callsubr
          hintmask 11010000
          116 -6 49 -35 0 -39 rrcurveto
          hintmask 10110000
          -40 callsubr
          endchar
        </CharString>
        <CharString name="braceleft.cap">
          283 45 hstemhm
          156 59 -56 62 32 57 -52 55 hintmask 10110000
          461 -159 rmoveto
          -42 callsubr
          hintmask 11001000
          -41 callsubr
          hintmask 11010000
          116 -6 49 -35 0 -39 rrcurveto
          hintmask 10110000
          -40 callsubr
          endchar
        </CharString>
        <CharString name="braceright">
          236 45 hstemhm
          239 54 -52 57 33 61 -55 58 hintmask 10101000
          88 -206 rmoveto
          226 72 81 68 0 66 rrcurveto
          hintmask 11001000
          -39 callsubr
          hintmask 10101000
          -117 6 -49 35 0 39 rrcurveto
          hintmask 10110000
          -38 callsubr
          hintmask 11001000
          -37 callsubr
          endchar
        </CharString>
        <CharString name="braceright.cap">
          283 45 hstemhm
          239 54 -52 57 33 61 -55 58 hintmask 10101000
          88 -159 rmoveto
          226 72 81 68 0 66 rrcurveto
          hintmask 11001000
          -39 callsubr
          hintmask 10101000
          -117 6 -49 35 0 39 rrcurveto
          hintmask 10110000
          -38 callsubr
          hintmask 11001000
          -37 callsubr
          endchar
        </CharString>
        <CharString name="bracketleft">
          -178 50 769 51 hstem
          143 58 vstem
          143 -178 rmoveto
          -80 callsubr
          endchar
        </CharString>
        <CharString name="bracketleft.cap">
          -130 50 769 51 hstem
          143 58 vstem
          143 -130 rmoveto
          -80 callsubr
          endchar
        </CharString>
        <CharString name="bracketright">
          -178 51 768 52 hstem
          351 57 vstem
          89 -127 rmoveto
          -79 callsubr
          endchar
        </CharString>
        <CharString name="bracketright.cap">
          -130 51 768 52 hstem
          351 57 vstem
          89 -79 rmoveto
          -79 callsubr
          endchar
        </CharString>
        <CharString name="breve">
          565 50 hstem
          92 367 vstem
          271 565 rmoveto
          4 callsubr
          endchar
        </CharString>
        <CharString name="bullet">
          181 234 hstem
          155 240 vstem
          395 299 rmoveto
          67 -50 49 -69 -68 -53 -46 -71 -68 51 -49 69 67 53 46 72 vhcurveto
          endchar
        </CharString>
        <CharString name="bullet.alt">
          197 199 hstem
          178 193 vstem
          370 197 rmoveto
          2 199 -193 0 -2 -199 rlineto
          endchar
        </CharString>
        <CharString name="c">
          -4 52 386 58 hstem
          85 60 vstem
          85 235 rmoveto
          -75 callsubr
          endchar
        </CharString>
        <CharString name="cacute">
          -4 52 386 58 hstem
          85 60 vstem
          209 585 rmoveto
          -29 callsubr
          -124 -350 rmoveto
          -75 callsubr
          endchar
        </CharString>
        <CharString name="caron">
          617 -20 103 -20 hstem
          102 345 vstem
          275 555 rmoveto
          7 callsubr
          endchar
        </CharString>
        <CharString name="caron.alt">
          553 249 hstem
          241 60 vstem
          209 564 rmoveto
          8 callsubr
          endchar
        </CharString>
        <CharString name="ccaron">
          -4 52 386 58 125 -20 103 -20 hstem
          85 60 vstem
          311 555 rmoveto
          7 callsubr
          -224 -320 rmoveto
          -75 callsubr
          endchar
        </CharString>
        <CharString name="ccedilla">
          -143 -21 173 -21 8 52 -24 -21 431 58 hstemhm
          85 60 196 54 hintmask 10101110
          395 -116 rmoveto
          hintmask 10011110
          0 36 -32 39 -68 44 rrcurveto
          hintmask 10101110
          45 -8 53 -3 64 4 rrcurveto
          8 52 rlineto
          -251 -11 -69 76 0 130 0 109 58 78 254 4 rrcurveto
          -4 58 rlineto
          -277 -9 -91 -117 0 -131 rrcurveto
          hintmask 11001110
          0 -105 42 -85 129 -34 rrcurveto
          -12 -23 rlineto
          69 -44 28 -32 0 -23 0 -24 -35 -15 -87 -14 rrcurveto
          5 -50 rlineto
          113 16 58 35 0 47 rrcurveto
          endchar
        </CharString>
        <CharString name="cdotaccent">
          -4 52 386 58 75 132 hstem
          85 60 129.5 63 vstem
          335 567 rmoveto
          6 callsubr
          -188 -332 rmoveto
          -75 callsubr
          endchar
        </CharString>
        <CharString name="cedilla">
          15 -21 hstem
          332 54 vstem
          235 -6 rmoveto
          69 -44 28 -32 0 -23 0 -24 -35 -15 -87 -14 rrcurveto
          5 -50 rlineto
          113 16 58 35 0 47 0 41 -42 46 -91 51 rrcurveto
          endchar
        </CharString>
        <CharString name="cent">
          37 52 335 57 139 -20 hstem
          81 57 vstem
          138 267 rmoveto
          0 71 37 62 134 19 rrcurveto
          -39 -304 rlineto
          -97 30 -35 53 0 69 rrcurveto
          303 -230 rmoveto
          6 52 rlineto
          -52 2 -44 5 -37 8 rrcurveto
          40 320 rlineto
          32 2 36 0 41 -2 rrcurveto
          7 57 rlineto
          -39 1 -35 -1 -32 -2 rrcurveto
          19 141 -54 0 -18 -147 rlineto
          -177 -29 -53 -90 0 -94 0 -88 46 -74 131 -36 rrcurveto
          -19 -147 54 0 16 135 rlineto
          38 -7 44 -4 50 -2 rrcurveto
          endchar
        </CharString>
        <CharString name="check.1">
          -1 -21 hstem
          78 425 vstem
          503 658 rmoveto
          -63 22 rlineto
          -76 -187 -64 -210 -49 -225 rrcurveto
          -3 0 -117 287 -53 -24 147 -348 54 5 rlineto
          58 244 75 229 91 207 rrcurveto
          endchar
        </CharString>
        <CharString name="check.2">
          10 -21 27 -21 31 -21 492 -20 hstemhm
          93 392 hintmask 01011000
          364 -5 rmoveto
          59 14 -137 263 199 386 -61 24 -169 -363 -90 178 -56 -21 112 -210 rlineto
          hintmask 00111000
          -128 -261 rlineto
          hintmask 10011000
          40 -16 119 232 rlineto
          endchar
        </CharString>
        <CharString name="circumflex">
          560 184 hstem
          102 345 vstem
          409 560 rmoveto
          -22 callsubr
          endchar
        </CharString>
        <CharString name="colon">
          -10 148 217 148 hstem
          201 147 vstem
          201 430 rmoveto
          -41 31 -34 42 43 31 34 41 41 -31 32 -43 -42 -31 -32 -41 vhcurveto
          -365 vmoveto
          -43 31 -32 42 43 31 32 43 39 -31 34 -43 -42 -31 -34 -39 vhcurveto
          endchar
        </CharString>
        <CharString name="colon.alt">
          92 100 236 100 hstemhm
          228.5 96 -93 96.5 hintmask 11010000
          327 428 rmoveto
          2 100 -97 0 -1 -100 rlineto
          hintmask 11100000
          93 -336 rmoveto
          1 100 -96 0 -1 -100 rlineto
          endchar
        </CharString>
        <CharString name="colonmonetary">
          23 53 465 56 hstem
          70 54 72.5 46.5 8 48.5 23.5 45.5 13 46 vstem
          336 94 rmoveto
          -31 6 -27 8 -24 10 rrcurveto
          35 393 rlineto
          25 8 29 6 32 5 rrcurveto
          -251 -221 rmoveto
          0 83 33 64 90 40 rrcurveto
          -32 -360 rlineto
          -64 38 -27 56 0 79 rrcurveto
          194 -383 rmoveto
          46 0 9 107 rlineto
          29 -5 32 -3 34 -2 rrcurveto
          11 53 rlineto
          -38 3 -35 3 -31 5 rrcurveto
          39 448 rlineto
          27 3 28 2 31 1 rrcurveto
          -4 56 rlineto
          -26 -1 -24 -2 -23 -2 rrcurveto
          9 101 -46 0 -9 -108 rlineto
          -30 -4 -28 -7 -25 -7 rrcurveto
          11 126 -48 0 -12 -143 rlineto
          -126 -53 -49 -91 0 -106 0 -102 41 -73 93 -45 rrcurveto
          -15 -154 48 0 12 135 rlineto
          24 -8 26 -7 29 -6 rrcurveto
          endchar
        </CharString>
        <CharString name="comma">
          -194 299 hstem
          255 70 vstem
          197 -183 rmoveto
          31 -11 rlineto
          86 83 31 101 -32 115 rrcurveto
          -92 -6 rlineto
          52 -114 -5 -87 -71 -81 rrcurveto
          endchar
        </CharString>
        <CharString name="commaaccent">
          -272 203 hstem
          245 63 vstem
          219 -262 rmoveto
          9 callsubr
          endchar
        </CharString>
        <CharString name="commaaccent.rot">
          564 203 hstem
          233 64 vstem
          323 757 rmoveto
          10 callsubr
          endchar
        </CharString>
        <CharString name="copyright">
          7 37 94 44 259 48 87 37 hstem
          46 40 92 47 239 40 vstem
          504 314 rmoveto
          187 -93 112 -127 -131 -107 -123 -184 -189 100 -110 132 127 99 113 194 vhcurveto
          -418 -5 rmoveto
          161 85 106 111 105 77 -102 -163 -169 -79 -98 -104 -110 -85 98 167 vhcurveto
          264 -127 rmoveto
          -99 -5 -26 48 0 88 0 74 16 50 107 4 rrcurveto
          -5 48 rlineto
          -122 -10 -43 -78 0 -92 0 -106 41 -74 126 9 rrcurveto
          endchar
        </CharString>
        <CharString name="d">
          -12 52 -21 -21 25 -21 441 52 -5 -20 228 -20 25 -20 hstemhm
          60 61 268 61 hintmask 1001001110000000
          268 40 rmoveto
          -86 -61 66 128 135 80 74 101 hvcurveto
          29 0 28 -5 30 -10 0 -150 1 -97 2 -93 rrcurveto
          -34 -27 -45 -21 -45 0 rrcurveto
          hintmask 0101001110000000
          131 -42 rmoveto
          hintmask 0011001110000000
          -74 callsubr
          hintmask 1000110110000000
          -61 -5 0 -208 rlineto
          hintmask 1001001110000000
          -73 callsubr
          endchar
        </CharString>
        <CharString name="dagger">
          477.5 49 -45 49 hstemhm
          246.5 52 -51.5 60 hintmask 10100000
          292 121 rmoveto
          13 358 181 -3 3 49 rlineto
          hintmask 10010000
          -183 3 2 166 -61 1 rlineto
          hintmask 01010000
          0 -166 -176 3 -3 -49 rlineto
          hintmask 01100000
          179 -3 -1 -373 9 -7 rlineto
          endchar
        </CharString>
        <CharString name="daggerdbl">
          278.5 48 -45 49 148 48 -44 48 hstemhm
          246 50 -49.5 56.5 -56 60 hintmask 10101000
          293 70 rmoveto
          6 210 181 -3 3 48 rlineto
          hintmask 10100100
          -182 3 4 152 181 -3 3 48 rlineto
          hintmask 10100010
          -183 3 2 166 -61 1 rlineto
          hintmask 10010010
          0 -166 -176 3 -3 -48 rlineto
          hintmask 01010100
          179 -3 -1 -152 -182 3 -2 -49 rlineto
          hintmask 01101000
          184 -3 0 -224 10 -6 rlineto
          endchar
        </CharString>
        <CharString name="dcaron">
          -12 52 -21 -21 25 -21 441 52 -5 -20 228 -20 25 -20 hstemhm
          60 61 268 61 99 60 hintmask 1001001111000000
          517 564 rmoveto
          8 callsubr
          -249 -524 rmoveto
          -86 -61 66 128 135 80 74 101 hvcurveto
          29 0 28 -5 30 -10 0 -150 1 -97 2 -93 -34 -27 -45 -21 -45 0 rrcurveto
          hintmask 0101001111000000
          131 -42 rmoveto
          hintmask 0011001111000000
          -74 callsubr
          hintmask 1000110111000000
          -61 -5 0 -208 rlineto
          hintmask 1001001111000000
          -73 callsubr
          endchar
        </CharString>
        <CharString name="dcroat">
          -12 52 -21 -21 25 -21 440 52 -5 -20 115 42 -42 118 -5 -20 hstemhm
          60 61 268 61 hintmask 1001010111000000
          268 40 rmoveto
          -86 -61 66 128 135 80 73 101 hvcurveto
          29 0 28 -5 30 -9 0 -150 1 -97 2 -93 rrcurveto
          -34 -27 -45 -21 -45 0 rrcurveto
          hintmask 0101010111000000
          131 -42 rmoveto
          hintmask 0011010111000000
          58 4 rlineto
          -5 112 -2 156 0 210 rrcurveto
          103 74 43 -74 vlineto
          hintmask 1001001011000000
          0 76 rlineto
          hintmask 1000110111000000
          -61 -5 0 -71 -138 0 0 -42 138 0 0 -95 rlineto
          hintmask 1001010111000000
          -19 3 -19 2 -21 0 rrcurveto
          -143 -127 -100 -176 -143 80 -87 106 hvcurveto
          62 0 51 29 36 33 rrcurveto
          endchar
        </CharString>
        <CharString name="degree">
          321 47 256 47 hstem
          106 52 234 52 vstem
          444 500 rmoveto
          106 -71 65 -92 -92 -83 -70 -109 -105 71 -66 92 92 83 70 109 vhcurveto
          -52 1 rmoveto
          -1 -81 -51 -52 -66 0 -70 0 -48 55 2 72 1 78 50 51 67 0 70 0 48 -54 -2 -69 rrcurveto
          endchar
        </CharString>
        <CharString name="dieresis">
          567 132 hstem
          136.5 62.5 156 62 vstem
          416 567 rmoveto
          -36 callsubr
          -157 hmoveto
          -35 callsubr
          endchar
        </CharString>
        <CharString name="divide">
          69 82 113 52 113 81 hstem
          237.5 74 vstem
          311 429 rmoveto
          1 81 -74 0 -1 -81 rlineto
          249 -113 rmoveto
          -422 -52 421 hlineto
          -174 -195 rmoveto
          1 82 -74 0 -1 -82 rlineto
          endchar
        </CharString>
        <CharString name="dollar">
          24 52 465 53 hstem
          100 62 242 62 vstem
          162 470 rmoveto
          0 39 39 30 103 2 rrcurveto
          -33 -185 rlineto
          -59 37 -50 36 0 41 rrcurveto
          242 -309 rmoveto
          0 -43 -43 -36 -102 -5 rrcurveto
          36 199 rlineto
          59 -37 50 -36 0 -42 rrcurveto
          -168 -248 rmoveto
          19 111 rlineto
          148 12 63 64 0 65 0 69 -80 52 -78 47 rrcurveto
          38 208 rlineto
          32 -2 37 -4 42 -6 rrcurveto
          6 58 rlineto
          -37 5 -33 2 -31 1 rrcurveto
          22 111 -55 0 -20 -112 rlineto
          -149 -8 -60 -60 0 -64 0 -67 79 -50 78 -46 rrcurveto
          -40 -223 rlineto
          -36 1 -42 4 -48 8 rrcurveto
          -11 -58 rlineto
          45 -6 40 -3 36 0 rrcurveto
          -20 -109 rlineto
          endchar
        </CharString>
        <CharString name="dotaccent">
          567 132 hstem
          242.5 63 vstem
          303 567 rmoveto
          6 callsubr
          endchar
        </CharString>
        <CharString name="dotlessi">
          0 47 391 46 hstem
          264 61 vstem
          511 hmoveto
          -3 callsubr
          endchar
        </CharString>
        <CharString name="e">
          -11 53 189 40 174 51 hstem
          71 60 288 59 vstem
          450 -11 rmoveto
          -72 callsubr
          -166 456 rmoveto
          -71 callsubr
          endchar
        </CharString>
        <CharString name="eacute">
          -11 53 189 40 174 51 hstem
          71 60 288 59 vstem
          190 592 rmoveto
          -29 callsubr
          260 -603 rmoveto
          -72 callsubr
          -166 456 rmoveto
          -71 callsubr
          endchar
        </CharString>
        <CharString name="ebreve">
          -11 53 189 40 174 51 76 50 hstem
          71 60 288 59 vstem
          283 572 rmoveto
          4 callsubr
          167 -583 rmoveto
          -72 callsubr
          -166 456 rmoveto
          -71 callsubr
          endchar
        </CharString>
        <CharString name="ecaron">
          -11 53 189 40 174 51 128 -20 hstem
          71 60 288 59 vstem
          291 562 rmoveto
          7 callsubr
          161 -573 rmoveto
          -72 callsubr
          -166 456 rmoveto
          -71 callsubr
          endchar
        </CharString>
        <CharString name="ecircumflex">
          -11 53 189 40 174 51 hstem
          71 60 288 59 vstem
          420 567 rmoveto
          -22 callsubr
          167 -699 rmoveto
          -72 callsubr
          -166 456 rmoveto
          -71 callsubr
          endchar
        </CharString>
        <CharString name="edieresis">
          -11 53 189 40 174 51 78 132 hstemhm
          71 60 15.5 62.5 156 62 -8 59 hintmask 11110110
          426 574 rmoveto
          -36 callsubr
          -157 hmoveto
          -35 callsubr
          hintmask 11111101
          303 -585 rmoveto
          8 53 rlineto
          -248 7 -73 53 -6 125 rrcurveto
          344 8 rlineto
          18 154 -67 107 -130 0 -125 0 -100 -113 0 -147 rrcurveto
          0 -157 83 -85 296 -5 rrcurveto
          -166 456 rmoveto
          -71 callsubr
          endchar
        </CharString>
        <CharString name="edotaccent">
          -11 53 189 40 174 51 78 132 hstem
          71 60 123.5 63 101.5 59 vstem
          315 574 rmoveto
          6 callsubr
          197 -585 rmoveto
          -72 callsubr
          -166 456 rmoveto
          -71 callsubr
          endchar
        </CharString>
        <CharString name="egrave">
          -11 53 189 40 174 51 hstem
          71 60 288 59 vstem
          378 584 rmoveto
          -78 callsubr
          92 -568 rmoveto
          -72 callsubr
          -166 456 rmoveto
          -71 callsubr
          endchar
        </CharString>
        <CharString name="eight">
          -12 50 544 50 hstemhm
          77 60 -49 59 257 59 -49 60 hintmask 11100100
          264 -12 rmoveto
          127 83 72 91 hvcurveto
          0 79 -75 47 -78 43 rrcurveto
          hintmask 11011000
          87 42 55 51 0 77 rrcurveto
          86 -78 56 -102 -125 -70 -79 -77 vhcurveto
          0 -74 64 -47 71 -41 rrcurveto
          hintmask 11100100
          -89 -43 -57 -60 0 -77 rrcurveto
          -88 78 -58 109 vhcurveto
          hintmask 11011000
          -117 497 rmoveto
          50 44 47 85 82 46 -44 -60 vhcurveto
          0 -58 -45 -44 -74 -36 rrcurveto
          -72 40 -66 40 0 65 rrcurveto
          hintmask 11100100
          127 -447 rmoveto
          -88 -49 46 65 hvcurveto
          0 58 44 50 78 37 79 -44 76 -41 0 -67 rrcurveto
          -60 -55 -44 -85 vhcurveto
          endchar
        </CharString>
        <CharString name="eight.den">
          -220 40 189 -21 25 -21 161 40 hstemhm
          128 50 -42 51 179 49 -45 52 hintmask 10111010
          267 -220 rmoveto
          hintmask 10111001
          24 callsubr
          hintmask 10110110
          33 callsubr
          hintmask 11010110
          34 callsubr
          hintmask 10111010
          26 callsubr
          hintmask 11010110
          -80 316 rmoveto
          27 callsubr
          hintmask 10111001
          86 -276 rmoveto
          28 callsubr
          endchar
        </CharString>
        <CharString name="eight.inf">
          -160 40 333 40 hstemhm
          128 50 -42 51 179 49 -45 52 hintmask 11101000
          267 -160 rmoveto
          hintmask 11100100
          24 callsubr
          hintmask 11011000
          25 callsubr
          hintmask 11101000
          26 callsubr
          hintmask 11011000
          -80 316 rmoveto
          27 callsubr
          hintmask 11100100
          86 -276 rmoveto
          28 callsubr
          endchar
        </CharString>
        <CharString name="eight.num">
          415 40 168 -20 24 -20 36 -20 165 40 hstemhm
          128 50 -42 51 179 49 -45 52 hintmask 1001110100000000
          267 415 rmoveto
          hintmask 1010110010000000
          24 callsubr
          hintmask 1100101100000000
          25 callsubr
          hintmask 1100110100000000
          26 callsubr
          hintmask 1001101100000000
          -80 316 rmoveto
          27 callsubr
          hintmask 1010110010000000
          86 -276 rmoveto
          28 callsubr
          endchar
        </CharString>
        <CharString name="eight.small">
          -10 40 333 40 hstemhm
          128 50 -42 51 179 49 -45 52 hintmask 11101000
          267 -10 rmoveto
          hintmask 11100100
          24 callsubr
          hintmask 11011000
          25 callsubr
          hintmask 11101000
          26 callsubr
          hintmask 11011000
          -80 316 rmoveto
          27 callsubr
          hintmask 11100100
          86 -276 rmoveto
          28 callsubr
          endchar
        </CharString>
        <CharString name="eight.sup">
          315 40 333 40 hstemhm
          128 50 -42 51 179 49 -45 52 hintmask 11101000
          267 315 rmoveto
          hintmask 11100100
          24 callsubr
          hintmask 11011000
          25 callsubr
          hintmask 11101000
          26 callsubr
          hintmask 11011000
          -80 316 rmoveto
          27 callsubr
          hintmask 11100100
          86 -276 rmoveto
          28 callsubr
          endchar
        </CharString>
        <CharString name="ellipsis">
          0 101 hstem
          47.5 88 95 88 95 88 vstem
          cntrmask 01110000
          499 hmoveto
          15 callsubr
          -95 hmoveto
          15 callsubr
          -95 hmoveto
          15 callsubr
          endchar
        </CharString>
        <CharString name="emacron">
          -11 53 189 40 174 51 121 53 hstem
          71 60 288 59 vstem
          448 670 rmoveto
          -32 callsubr
          2 -628 rmoveto
          -72 callsubr
          -166 456 rmoveto
          -71 callsubr
          endchar
        </CharString>
        <CharString name="emdash">
          266 47 hstem
          56 442 vstem
          498 313 rmoveto
          -442 -47 437 hlineto
          endchar
        </CharString>
        <CharString name="endash">
          266 47 hstem
          77 401 vstem
          478 313 rmoveto
          -401 -47 396 hlineto
          endchar
        </CharString>
        <CharString name="eogonek">
          -209 50 171 -21 5 46 189 40 174 51 hstemhm
          71 60 125 56 107 59 hintmask 10111111
          428 -209 rmoveto
          6 50 rlineto
          -88 10 -34 18 0 24 rrcurveto
          hintmask 11011111
          0 23 30 30 108 45 rrcurveto
          hintmask 10111111
          8 51 rlineto
          -248 7 -73 53 -6 125 rrcurveto
          344 8 rlineto
          18 154 -67 107 -130 0 -125 0 -100 -113 0 -147 0 -147 75 -84 238 -9 -94 -44 -34 -38 0 -36 rrcurveto
          0 -43 45 -32 127 -12 rrcurveto
          -144 654 rmoveto
          -71 callsubr
          endchar
        </CharString>
        <CharString name="equal">
          190 58 126 57 hstem
          90 370 vstem
          460 431 rmoveto
          -370 -57 370 hlineto
          -126 vmoveto
          -370 -58 370 hlineto
          endchar
        </CharString>
        <CharString name="eth">
          -12 51 371 51 160 -20 hstem
          61 59 308 58 vstem
          265 -12 rmoveto
          119 102 88 169 hvcurveto
          0 130 -51 114 -109 103 rrcurveto
          102 55 -16 38 -118 -64 rlineto
          -35 29 -39 28 -45 27 rrcurveto
          -37 -40 rlineto
          39 -23 35 -24 30 -25 rrcurveto
          -116 -63 17 -38 133 72 rlineto
          38 -35 30 -36 24 -37 -152 28 -155 -84 0 -182 rrcurveto
          -143 91 -87 113 vhcurveto
          8 51 rmoveto
          -90 -63 74 112 hvcurveto
          0 139 100 89 181 -63 18 -48 9 -50 0 -51 rrcurveto
          -130 -62 -72 -93 vhcurveto
          endchar
        </CharString>
        <CharString name="exclam">
          -10 120 577 -20 hstemhm
          215 120 -94.5 66 hintmask 11010000
          309 687 rmoveto
          -72 0 7 -468 60 0 rlineto
          hintmask 11100000
          -29 -109 rmoveto
          -35 -25 -26 -33 -34 25 -27 35 35 25 27 34 hvcurveto
          33 -25 26 -35 vhcurveto
          endchar
        </CharString>
        <CharString name="exclamdown">
          524 96 hstemhm
          230 93.5 -72.5 40 hintmask 11000000
          231 620 rmoveto
          -2 -96 94 0 1 96 rlineto
          hintmask 10100000
          -73 -226 rmoveto
          -3 -116 -16 -212 -6 -121 rrcurveto
          78 hlineto
          -3 121 -10 212 0 116 rrcurveto
          endchar
        </CharString>
        <CharString name="f">
          0 46 386 47 165 59 hstem
          224 60 vstem
          472 46 rmoveto
          -188 386 198 47 -198 8 hlineto
          0 114 31 33 198 10 rrcurveto
          -5 59 rlineto
          -218 -11 -65 -83 -1 -130 rrcurveto
          -140 0 -6 -47 146 0 0 -386 -140 0 0 -46 383 0 rlineto
          endchar
        </CharString>
        <CharString name="five">
          10 -21 577 54 hstem
          118 54.5 237.5 57 vstem
          467 203 rmoveto
          0 81 -71 69 -230 21 rrcurveto
          13 192 263 0 6 54 -320 0 -20 -290 rlineto
          230 -15 72 -52 0 -62 0 -81 -84 -52 -232 -22 rrcurveto
          4 -57 rlineto
          255 21 114 84 0 109 rrcurveto
          endchar
        </CharString>
        <CharString name="five.den">
          -220 47 166 37 110 45 hstem
          158.5 44.5 166 48 vstem
          417 -82 rmoveto
          20 callsubr
          endchar
        </CharString>
        <CharString name="five.inf">
          -160 47 166 37 110 45 hstem
          158.5 44.5 166 48 vstem
          417 -22 rmoveto
          20 callsubr
          endchar
        </CharString>
        <CharString name="five.num">
          415 47 166 37 110 45 hstem
          158.5 44.5 166 48 vstem
          417 553 rmoveto
          20 callsubr
          endchar
        </CharString>
        <CharString name="five.small">
          -10 47 166 37 110 45 hstem
          158.5 44.5 166 48 vstem
          417 128 rmoveto
          20 callsubr
          endchar
        </CharString>
        <CharString name="five.sup">
          315 47 166 37 110 45 hstem
          158.5 44.5 166 48 vstem
          417 453 rmoveto
          20 callsubr
          endchar
        </CharString>
        <CharString name="fiveeighths">
          -220 40 189 -21 25 -21 161 40 90 43 89 47 166 37 110 45 hstemhm
          128 50 -42 51 -28.5 44.5 163 49 -46 48 -47 52 hintmask 1011111100101000
          417 553 rmoveto
          20 callsubr
          -355 -270 rmoveto
          -25 callsubr
          hintmask 1011111110000100
          205 -546 rmoveto
          24 callsubr
          hintmask 1011111101010000
          33 callsubr
          hintmask 1101111101001000
          34 callsubr
          hintmask 1011111110001000
          26 callsubr
          hintmask 1101111101010000
          -80 316 rmoveto
          27 callsubr
          hintmask 1011111110000100
          86 -276 rmoveto
          28 callsubr
          endchar
        </CharString>
        <CharString name="fivesixths">
          -219 43 168 39 252 43 89 47 166 37 110 45 hstemhm
          127 48 -16.5 44.5 166 48 -40 48 hintmask 1111110110000000
          417 553 rmoveto
          20 callsubr
          -355 -270 rmoveto
          -25 callsubr
          hintmask 1110011001000000
          213 -545 rmoveto
          21 callsubr
          6 43 rmoveto
          22 callsubr
          endchar
        </CharString>
        <CharString name="four">
          0 190 -54 54 433 -20 25 -20 hstemhm
          88 48 236 57 hintmask 01011100
          502 136 rmoveto
          6 54 -79 0 0 231 -57 -6 0 -225 -236 0 rlineto
          hintmask 01101100
          6 75 52 234 29 124 rrcurveto
          hintmask 01011100
          -66 5 rlineto
          -46 -187 -25 -193 2 -112 rrcurveto
          284 hlineto
          hintmask 10011100
          -136 57 vlineto
          hintmask 01011100
          136 vlineto
          endchar
        </CharString>
        <CharString name="four.den">
          -125 43 hstem
          136 43 162.5 47 vstem
          443 -126 rmoveto
          -24 callsubr
          endchar
        </CharString>
        <CharString name="four.inf">
          -65 43 hstem
          136 43 162.5 47 vstem
          443 -66 rmoveto
          -24 callsubr
          endchar
        </CharString>
        <CharString name="four.num">
          510 43 hstem
          136 43 162.5 47 vstem
          443 509 rmoveto
          -24 callsubr
          endchar
        </CharString>
        <CharString name="four.small">
          0 128 -43 43 hstemhm
          136 43 162.5 47 hintmask 01110000
          443 84 rmoveto
          4 44 -59 0 1 141 -48 -4 1 -137 -163 0 rlineto
          3 41 39 161 20 68 rrcurveto
          -55 4 rlineto
          -32 -120 -19 -124 1 -74 rrcurveto
          206 2 rlineto
          hintmask 10110000
          -1 -86 48 0 rlineto
          hintmask 01110000
          -1 85 rlineto
          endchar
        </CharString>
        <CharString name="four.sup">
          410 43 hstem
          136 43 162.5 47 vstem
          443 409 rmoveto
          -24 callsubr
          endchar
        </CharString>
        <CharString name="fourfifths">
          -220 47 166 37 110 45 98 43 184 43 hstemhm
          136 43 -20.5 44.5 138.5 47 -19.5 48 hintmask 1111101100000000
          443 509 rmoveto
          4 44 -59 0 1 141 -48 -4 1 -137 rlineto
          hintmask 1111110100000000
          -163 hlineto
          3 41 39 161 20 68 rrcurveto
          -55 4 rlineto
          -32 -120 -19 -124 1 -74 rrcurveto
          206 2 -1 -86 48 0 -1 85 rlineto
          -326 -227 rmoveto
          -25 callsubr
          hintmask 1111101010000000
          355 -408 rmoveto
          20 callsubr
          endchar
        </CharString>
        <CharString name="fraction">
          -160 912 hstem
          42 459 vstem
          93 -160 rmoveto
          408 889 -52 23 -407 -890 rlineto
          endchar
        </CharString>
        <CharString name="fraction.afrc">
          283 43 hstem
          62 426 vstem
          62 283 rmoveto
          -25 callsubr
          endchar
        </CharString>
        <CharString name="g">
          -150 -21 0 56 149 50 359 52 hstemhm
          62 61 273 61 hintmask 10111100
          128 -171 rmoveto
          -70 callsubr
          hintmask 01111100
          -69 callsubr
          148 199 rmoveto
          -68 callsubr
          endchar
        </CharString>
        <CharString name="gbreve">
          -150 -21 0 56 149 50 359 52 76 50 hstemhm
          62 61 273 61 hintmask 10111110
          284 571 rmoveto
          4 callsubr
          -156 -742 rmoveto
          -70 callsubr
          hintmask 01111110
          -69 callsubr
          148 199 rmoveto
          -68 callsubr
          endchar
        </CharString>
        <CharString name="gcommaaccent">
          -150 -21 0 56 149 50 359 52 hstemhm
          62 61 119 64 90 61 hintmask 10111110
          332 763 rmoveto
          10 callsubr
          -204 -934 rmoveto
          -70 callsubr
          hintmask 01111110
          -69 callsubr
          148 199 rmoveto
          -68 callsubr
          endchar
        </CharString>
        <CharString name="gdotaccent">
          -150 -21 0 56 149 50 359 52 78 132 hstemhm
          62 61 132.5 63 77.5 61 hintmask 10111111
          316 573 rmoveto
          6 callsubr
          -126 -744 rmoveto
          -70 callsubr
          hintmask 01111111
          -69 callsubr
          148 199 rmoveto
          -68 callsubr
          endchar
        </CharString>
        <CharString name="germandbls">
          -5 53 -27 -21 650 53 hstemhm
          93 60 110 60 50 61 16 59 hintmask 10111010
          323 354 rmoveto
          hintmask 01111110
          0 59 111 47 0 112 rrcurveto
          64 -44 67 -100 -127 -70 -100 -140 vhcurveto
          -463 60 477 vlineto
          111 41 62 83 66 30 -44 -46 vhcurveto
          0 -84 -110 -52 0 -77 rrcurveto
          hintmask 10111010
          0 -107 187 -34 0 -80 0 -48 -53 -43 -132 17 rrcurveto
          -3 -57 rlineto
          183 -13 64 76 0 73 rrcurveto
          0 112 -186 37 0 74 rrcurveto
          endchar
        </CharString>
        <CharString name="grave">
          550 207 hstem
          143 237 vstem
          380 577 rmoveto
          -78 callsubr
          endchar
        </CharString>
        <CharString name="greater">
          38 551 hstem
          429 53 vstem
          100 589 rmoveto
          -32 -49 361 -227 -361 -226 37 -49 377 236 0 78 rlineto
          endchar
        </CharString>
        <CharString name="greaterequal">
          20 52 hstem
          399 62 vstem
          399 350 rmoveto
          0 -8 -300 -166 22 -48 341 189 -2 52 -334 215 -26 -46 rlineto
          -20 -466 rmoveto
          -52 391 52 vlineto
          endchar
        </CharString>
        <CharString name="guillemotleft">
          6 -21 513 -20 hstem
          52.5 44.5 190 44 vstem
          223 -15 rmoveto
          -34 callsubr
          406 -227 rmoveto
          -33 callsubr
          endchar
        </CharString>
        <CharString name="guillemotleft.cap">
          52 513 hstem
          52.5 44.5 190 44 vstem
          223 52 rmoveto
          -34 callsubr
          406 -227 rmoveto
          -33 callsubr
          endchar
        </CharString>
        <CharString name="guillemotright">
          6 -21 513 -20 hstem
          220 44 190 44.5 vstem
          325 -15 rmoveto
          -27 callsubr
          -189 -38 rmoveto
          -26 callsubr
          endchar
        </CharString>
        <CharString name="guillemotright.cap">
          52 513 hstem
          220 44 190 44.5 vstem
          325 52 rmoveto
          -27 callsubr
          -189 -38 rmoveto
          -26 callsubr
          endchar
        </CharString>
        <CharString name="guilsinglleft">
          6 -21 515 -20 hstem
          132 47 vstem
          379 -15 rmoveto
          16 callsubr
          endchar
        </CharString>
        <CharString name="guilsinglleft.cap">
          52 515 hstem
          132 47 vstem
          379 52 rmoveto
          16 callsubr
          endchar
        </CharString>
        <CharString name="guilsinglright">
          6 -21 515 -20 hstem
          372 47 vstem
          167 -15 rmoveto
          17 callsubr
          endchar
        </CharString>
        <CharString name="guilsinglright.cap">
          52 515 hstem
          372 47 vstem
          167 52 rmoveto
          17 callsubr
          endchar
        </CharString>
        <CharString name="h">
          21 -21 443 52 203 -20 25 -20 hstemhm
          96 60 248 60 hintmask 11011100
          294 443 rmoveto
          69 41 -36 -99 hvcurveto
          -308 60 327 vlineto
          119 -58 49 -90 vhcurveto
          -66 0 -53 -28 -41 -31 rrcurveto
          0 267 rlineto
          hintmask 11101100
          -60 -5 0 -698 60 0 0 396 rlineto
          42 28 44 19 52 0 rrcurveto
          endchar
        </CharString>
        <CharString name="hbar">
          21 -21 443 51 90 42 -42 119 -5 -20 hstemhm
          95 61 248 60 hintmask 11101110
          294 443 rmoveto
          69 41 -36 -99 hvcurveto
          -308 60 327 vlineto
          118 -58 49 -90 vhcurveto
          -66 0 -53 -28 -41 -31 rrcurveto
          149 138 42 -138 vlineto
          hintmask 11010110
          0 77 rlineto
          hintmask 11101110
          -61 -5 0 -72 -74 0 0 -43 74 0 0 -583 61 0 0 396 rlineto
          42 28 44 19 52 0 rrcurveto
          endchar
        </CharString>
        <CharString name="hcoslug">
          -100 75 4 9 -8 10 -10 14 -4 11 -10 10 -9 7 0 12 -11 11 -7 15 -15 26 -25 26 -15 8 -8 15 -12 12 0 14 -9 10 -10 19 -9 11 2 8 -7 32 71.5 22.5 hstemhm
          50 64 10 16 -3 8 5 40 -35 12 -1 12 14 10 -2 10 -10 42 -31 9 -1 7 3 12 -6 11 9 40 -29 13 -9 10 0 12 -4 11 -2 12 -5 16 18 11 10 8 hintmask 001000000000000010000010000010000010000010010000
          500 700 rmoveto
          -450 hlineto
          hintmask 100000000000000000001110000000100000001000000000
          -800 450 vlineto
          -300 396 rmoveto
          0 -17 11 -11 17 -16 9 13 5 12 0 12 rrcurveto
          18 -9 11 -13 -12 -8 -9 -13 vhcurveto
          49 -64 rmoveto
          12 -12 9 -12 9 -11 15 25 3 18 -17 17 -7 -7 -10 -9 -14 -9 rrcurveto
          -39 -93 rmoveto
          12 0 9 3 8 6 -21 27 -21 22 -14 13 -8 -8 -4 -11 0 -11 0 -23 17 -18 22 0 rrcurveto
          91 34 rmoveto
          19 -22 13 -9 15 0 15 0 9 9 8 13 rrcurveto
          5 -1 rlineto
          -1 -44 -27 -27 -32 0 -22 0 -17 8 -25 26 -21 -23 -25 -11 -32 0 -45 0 -36 30 0 40 0 31 21 24 40 13 -16 17 -7 13 0 22 rrcurveto
          32 31 32 51 46 25 -30 -26 vhcurveto
          0 -10 -2 -8 -5 -7 20 0 15 -8 2 -20 12 18 14 10 19 0 rrcurveto
          21 16 -15 -24 -23 -16 -17 -21 hvcurveto
          -14 0 -12 7 -6 12 -12 -7 -12 -10 -11 -15 rrcurveto
          hintmask 000000000000000000001000000000000100000000000000
          -72 -105 rmoveto
          -8 10 -5 -10 vlineto
          hintmask 000000000000000001000000000000000100000000000000
          -15 vlineto
          -3 1 -1 2 vhcurveto
          2 0 1 1 1 4 rrcurveto
          4 -1 rlineto
          -2 -7 -3 -3 -6 0 rrcurveto
          -6 -3 4 6 hvcurveto
          hintmask 000000000000000000100000000000010000000000000000
          15 -5 5 5 7 vlineto
          hintmask 000000000000000010000000100000000000000000000000
          -75 -21 rmoveto
          35 callsubr
          hintmask 000000000000000010000010000000000000000000000000
          22 hmoveto
          36 callsubr
          hintmask 000000000000000100000000000000000000000100000000
          132 -1 rmoveto
          6 -2 4 -3 -5 -1 -5 -5 -6 1 -4 5 vhcurveto
          3 2 4 6 hvcurveto
          hintmask 000000000000000010000010000000000000000000000000
          -120 -9 rmoveto
          4 hlineto
          hintmask 000000000000000000100010000000000000000000000000
          19 -4 5 vlineto
          hintmask 000000000000000000001000000010000000000000000000
          13 -6 hlineto
          2 4 3 3 5 0 rrcurveto
          7 2 -5 -6 hvcurveto
          hintmask 000000000000000010000000000000010000000000000000
          -14 5 -5 vlineto
          hintmask 000000000001000000000000000010000000000000000000
          -17 5 3 hlineto
          hintmask 000000000000000000100000000010000000000000000000
          13 vlineto
          3 -1 3 -3 -3 -3 -3 -5 vhcurveto
          -11 3 -5 vlineto
          hintmask 000000000000000010000010000000000000000000000000
          -16 hlineto
          -71 5 rmoveto
          6 hlineto
          hintmask 000000000000000000010010000000000000000000000000
          31 -6 5 vlineto
          hintmask 000000000000000000001000001000000000000000000000
          38 hlineto
          hintmask 000000000000000000100000001000000000000000000000
          -15 -5 vlineto
          -2 8 -1 2 -6 0 rrcurveto
          -8 hlineto
          hintmask 000000000000000000010001000000000000000000000000
          -14 3 vlineto
          4 0 0 1 1 5 rrcurveto
          5 hlineto
          hintmask 000000000000000010000000100000000000000000000000
          -17 -5 vlineto
          -1 5 0 1 -4 0 rrcurveto
          -3 hlineto
          hintmask 000000000000000010000001000000000000000000000000
          -12 7 -5 vlineto
          hintmask 000000000000000010000010000000000000000000000000
          -23 hlineto
          hintmask 000000000000000001000000000000000100000000000000
          133 10 rmoveto
          5 hlineto
          3 -4 3 -3 3 0 3 0 1 2 0 1 rrcurveto
          hintmask 000000000000000000010000000000000100000000000000
          0 7 -18 -4 0 12 0 4 4 5 7 0 3 0 3 -1 2 -3 rrcurveto
          1 4 5 0 0 -10 -5 0 rlineto
          -3 4 -2 1 -3 0 -2 0 -2 -1 0 -2 rrcurveto
          hintmask 000000000001000000000000000000000000100000000000
          0 -5 18 2 0 -11 0 -5 -3 -4 -7 0 -5 0 -3 2 -2 2 rrcurveto
          -1 -3 -5 0 rlineto
          hintmask 000000000000000000010000000000000000100000000000
          38 38 rmoveto
          -5 5 hlineto
          hintmask 000000000000000000001000000000000000000100000000
          14 hlineto
          hintmask 000000000000000000010000000000000000000100000000
          -20 vlineto
          1 4 4 3 4 0 rrcurveto
          hintmask 000000000010000000000000000000000000000010000000
          7 5 -6 -9 -7 -3 -9 -9 hvcurveto
          -6 0 -3 2 -2 4 rrcurveto
          -3 -6 -4 0 rlineto
          hintmask 100000000000000000001000000000000000000010000000
          39 -6 rmoveto
          3 3 2 4 hvcurveto
          -3 7 -9 18 0 0 rrcurveto
          -3 5 18 -5 -4 hlineto
          7 -15 6 15 -4 0 0 5 13 0 0 -5 -4 0 rlineto
          hintmask 000000000100000000000000000000000000000010000000
          -10 -24 rlineto
          -3 -7 -4 -5 -6 0 rrcurveto
          -6 -3 3 4 3 2 2 3 hvcurveto
          5 0 1 -5 -2 -2 rrcurveto
          hintmask 000000001000000000000000000000000000000000000000
          45 -24 rmoveto
          -6 -4 vlineto
          -2 -4 -2 -3 -3 -3 2 -2 2 -2 1 0 1 0 1 1 1 3 rrcurveto
          3 -1 rlineto
          -1 -5 -2 -4 -6 0 rrcurveto
          hintmask 100000000000000000000000000000000000000001000000
          -4 0 -2 2 -3 3 -3 -3 -4 -2 -6 0 -7 0 -5 4 0 6 0 6 4 3 6 2 -3 3 -2 3 0 4 rrcurveto
          hintmask 000000000000100000000000000000000000000000100000
          5 4 6 9 6 4 -4 -5 vhcurveto
          0 -5 -3 -2 -5 -3 2 -2 4 -5 3 -3 2 2 2 3 1 2 rrcurveto
          -5 6 hlineto
          hintmask 000000000010000000000000000000000010000000000000
          -114 4 rmoveto
          11 4 hlineto
          -3 -2 2 2 2 1 1 0 hvcurveto
          0 -1 1 -2 -2 -2 -2 -6 vhcurveto
          hintmask 100000000000000000000000000000000000000000010000
          132 -13 rmoveto
          hintmask 000010000000000000000000000000000000000000010000
          15 9 8 11 vhcurveto
          hintmask 000010000000000000000000000000000000000000000000
          5 0 4 -2 3 -3 rrcurveto
          4 6 -16 -6 vlineto
          hintmask 000000010000000000000000000000000000000000000000
          -3 9 -2 3 -6 0 rrcurveto
          -6 -4 -5 -12 hvcurveto
          hintmask 010000000000000000000000000000000000000000000000
          -11 4 -6 8 vhcurveto
          hintmask 000001000000000000000000000000000000000000000000
          6 0 3 6 1 6 rrcurveto
          6 hlineto
          hintmask 100000000000000000000000000000000000000000000000
          -1 -10 -6 -7 -11 0 rrcurveto
          -13 -8 7 14 hvcurveto
          hintmask 000000010000000000000000000000000000000000100000
          -29 4 rmoveto
          2 1 2 3 0 3 rrcurveto
          3 -2 2 -3 -2 -2 -1 -3 vhcurveto
          0 -2 2 -3 3 -3 rrcurveto
          hintmask 001000000000000000000000000000000000010000000000
          -68 -11 rmoveto
          37 callsubr
          hintmask 100000000000000000000000000000000000010000000000
          -1 -6 -4 -5 -8 0 rrcurveto
          -10 -6 6 9 hvcurveto
          hintmask 000000000001000000000000000000000000010000000000
          10 7 6 8 vhcurveto
          11 0 4 -7 -1 -10 rrcurveto
          hintmask 001000000000000000000000000001000000000000000000
          -89 hmoveto
          37 callsubr
          hintmask 100000000000000000000000000000001000000000000000
          -1 -6 -4 -5 -8 0 rrcurveto
          hintmask 100000000000000000000000010000000000000000000000
          -10 -6 6 9 hvcurveto
          hintmask 000000000001000000000000010000000000000000000000
          10 7 6 8 vhcurveto
          hintmask 000000000001000000000000000000001000000000000000
          11 0 4 -7 -1 -10 rrcurveto
          hintmask 001000000000000000000010000001000000000000000000
          -63 2 rmoveto
          35 callsubr
          252 hmoveto
          hintmask 001000000000000000000000000000000000000000000000
          9 7 6 9 9 7 -6 -9 vhcurveto
          hintmask 001000000000000000000010000001000000000000000000
          -9 -7 -7 -9 -9 -7 6 10 vhcurveto
          hintmask 000000100000000000000000000001000000010000000000
          -138 2 rmoveto
          10 hlineto
          6 -1 3 -4 vhcurveto
          -3 -2 -2 -7 hvcurveto
          -70 hmoveto
          10 hlineto
          6 -1 3 -4 -3 -2 -2 -7 vhcurveto
          hintmask 001000000000000000000000000100000000000000000000
          -22 -2 rmoveto
          36 callsubr
          hintmask 001000000000000000000000000000000000000000000000
          252 hmoveto
          36 callsubr
          hintmask 100000000000000000000000000000001000000000000000
          -208 -10 rmoveto
          4 hlineto
          hintmask 000000100000000000000000000000001000000000000000
          19 -5 5 5 1 vlineto
          hintmask 000000000000001000000000000000001000000000000000
          10 7 4 6 vhcurveto
          4 0 2 -1 2 -1 rrcurveto
          8 2 rlineto
          hintmask 001000000000000000000000000000000000100000000000
          -39 4 -5 vlineto
          hintmask 100000000000000000000000000000000010000000000000
          -17 5 4 hlineto
          hintmask 000000100000000000000000000000000010000000000000
          19 -11 vlineto
          hintmask 001000000000000000000000000000000010000000000000
          -19 4 -5 vlineto
          hintmask 100000000000000000000000000000001000000000000000
          -17 hlineto
          hintmask 100000000000000000000000000000000001000000000000
          69 5 rmoveto
          4 hlineto
          hintmask 000000100000000000000000000000000001000000000000
          19 -4 5 vlineto
          hintmask 000000000001000000000000000000000000000001000000
          13 -6 hlineto
          2 5 3 2 4 0 rrcurveto
          4 2 -2 -4 -3 -2 -2 -3 -2 -3 1 3 hvcurveto
          1 vlineto
          -1 0 -3 -3 -1 -4 rrcurveto
          hintmask 001000000000000000000000000000000000000001000000
          -12 6 -5 vlineto
          hintmask 100000000000000000000000000000000001000000000000
          -19 hlineto
          hintmask 100000000000000000000010000000000000000000000000
          -183 5 rmoveto
          6 hlineto
          hintmask 000000010000000000000010000000000000000000000000
          31 -6 5 vlineto
          hintmask 000000000000010000000001000000000000000000000000
          21 -5 -5 hlineto
          hintmask 000000010000000000000001000000000000000000000000
          -12 16 12 -5 5 vlineto
          hintmask 000000000000010000000000000100000000000000000000
          21 -5 -6 hlineto
          hintmask 001000000000000000000000000100000000000000000000
          -31 6 -5 vlineto
          hintmask 100000000000000000000001000000000000000000000000
          -21 5 5 hlineto
          hintmask 000100000000000000000001000000000000000000000000
          14 -16 vlineto
          hintmask 001000000000000000000001000000000000000000000000
          -14 5 -5 vlineto
          hintmask 100000000000000000000010000000000000000000000000
          -21 hlineto
          hintmask 001000000000000000000000000000000000000000100000
          234 7 rmoveto
          -2 2 -4 5 -4 4 -2 -2 -1 -2 0 -3 0 -4 3 -3 4 0 rrcurveto
          2 0 2 1 2 2 rrcurveto
          hintmask 100000000000000000000000000000000000000000000000
          111 -2 rmoveto
          -3 -2 -3 -4 -4 -2 3 3 3 2 3 4 vhcurveto
          4 2 -3 -3 hvcurveto
          endchar
        </CharString>
        <CharString name="hungarumlaut">
          558 218 hstem
          131 380 vstem
          131 578 rmoveto
          12 callsubr
          207 -1 rmoveto
          13 callsubr
          endchar
        </CharString>
        <CharString name="hyphen">
          284 58 hstem
          80 390 vstem
          80 284 rmoveto
          390 58 -390 hlineto
          endchar
        </CharString>
        <CharString name="i">
          0 47 391 46 83 132 hstemhm
          261.5 62.5 -60 61 hintmask 11110000
          320 567 rmoveto
          8 132 -64 0 -5 -132 rlineto
          252 -567 rmoveto
          5 47 rlineto
          hintmask 11101000
          -67 callsubr
          endchar
        </CharString>
        <CharString name="iacute">
          0 47 391 46 hstem
          264 61 vstem
          200 585 rmoveto
          -29 callsubr
          311 -585 rmoveto
          -3 callsubr
          endchar
        </CharString>
        <CharString name="ibreve">
          0 47 391 46 81 50 hstem
          264 61 vstem
          292 565 rmoveto
          4 callsubr
          219 -565 rmoveto
          -3 callsubr
          endchar
        </CharString>
        <CharString name="icircumflex">
          0 47 391 46 hstem
          264 61 vstem
          429 560 rmoveto
          -22 callsubr
          219 -681 rmoveto
          -3 callsubr
          endchar
        </CharString>
        <CharString name="idieresis">
          0 47 391 46 83 132 hstem
          156.5 62.5 45 61 50 62 vstem
          436 567 rmoveto
          -36 callsubr
          -157 hmoveto
          -35 callsubr
          354 -567 rmoveto
          -3 callsubr
          endchar
        </CharString>
        <CharString name="igrave">
          0 47 391 46 hstem
          264 61 vstem
          388 577 rmoveto
          -78 callsubr
          143 -550 rmoveto
          -3 callsubr
          endchar
        </CharString>
        <CharString name="imacron">
          0 47 391 46 126 53 hstem
          264 61 vstem
          458 663 rmoveto
          -32 callsubr
          53 -610 rmoveto
          -3 callsubr
          endchar
        </CharString>
        <CharString name="iogonek">
          0 47 391 46 83 132 hstemhm
          179 56 26.5 62.5 -60 61 hintmask 11101000
          320 567 rmoveto
          8 132 -64 0 -5 -132 rlineto
          98 -726 rmoveto
          hintmask 11110100
          -88 10 -34 16 0 28 0 24 21 29 66 52 rrcurveto
          189 0 5 47 rlineto
          hintmask 11100100
          -67 callsubr
          hintmask 11110100
          193 hlineto
          -63 -48 -25 -34 0 -37 0 -48 45 -31 127 -12 rrcurveto
          endchar
        </CharString>
        <CharString name="j">
          -175 58 555 46 83 132 hstemhm
          303.5 61.5 -57 61 hintmask 11110000
          362 567 rmoveto
          6 132 -63 0 -3 -132 rlineto
          hintmask 11101000
          67 -527 rmoveto
          444 -278 vlineto
          -4 -42 221 -8 0 -405 rlineto
          0 -106 -36 -30 -227 -10 rrcurveto
          -2 -58 rlineto
          251 10 75 65 0 140 rrcurveto
          endchar
        </CharString>
        <CharString name="k">
          16 -21 26 -21 26 -21 218 46 213 -20 25 -20 231 -20 25 -20 hstemhm
          110 60 hintmask 1001010110000000
          443 -5 rmoveto
          hintmask 0011100110000000
          -66 callsubr
          hintmask 0011010110000000
          -65 callsubr
          hintmask 0101011010000000
          -64 callsubr
          endchar
        </CharString>
        <CharString name="kcommaaccent">
          16 -21 26 -21 26 -21 218 46 213 -20 25 -20 231 -20 25 -20 hstemhm
          110 60 101 63 hintmask 1001010111000000
          443 -5 rmoveto
          hintmask 0011100111000000
          -66 callsubr
          hintmask 0011010111000000
          -65 callsubr
          hintmask 0101011011000000
          -64 callsubr
          -8 -491 rmoveto
          9 callsubr
          endchar
        </CharString>
        <CharString name="l">
          0 47 603.5 46.5 hstem
          247 61 vstem
          466 hmoveto
          -63 callsubr
          endchar
        </CharString>
        <CharString name="lacute">
          0 47 603.5 46.5 hstem
          247 61 vstem
          183 797 rmoveto
          -29 callsubr
          283 -797 rmoveto
          -63 callsubr
          endchar
        </CharString>
        <CharString name="lcaron">
          0 47 603.5 46.5 hstem
          247 61 165 60 vstem
          441 564 rmoveto
          8 callsubr
          25 -564 rmoveto
          -63 callsubr
          endchar
        </CharString>
        <CharString name="lcommaaccent">
          0 47 603.5 46.5 hstemhm
          247 61 -54 63 hintmask 11100000
          466 hmoveto
          -63 callsubr
          hintmask 11010000
          144 -262 rmoveto
          11 callsubr
          endchar
        </CharString>
        <CharString name="ldot">
          0 47 222 96 285.5 46.5 hstem
          247 61 204.5 79 vstem
          466 hmoveto
          -63 callsubr
          505 269 rmoveto
          5 96 -79 0 -5 -96 rlineto
          endchar
        </CharString>
        <CharString name="less">
          38 551 hstem
          68 52 vstem
          449 589 rmoveto
          -381 -236 0 -79 377 -236 37 46 -362 229 362 225 rlineto
          endchar
        </CharString>
        <CharString name="lessequal">
          20 52 hstem
          89.5 61.5 vstem
          151 350 rmoveto
          299 188 -26 46 -334 -215 -1 -52 341 -189 21 48 -300 166 rlineto
          320 -270 rmoveto
          -391 -52 391 hlineto
          endchar
        </CharString>
        <CharString name="lig.1">
          -10 54 316 56 230 50 hstemhm
          -450.08301 55.91602 -22 55.91699 241.08301 51.33398 76.08301 55.91699 -22 55.91602 241.08398 51.33301 hintmask 1110110110000000
          220 416 rmoveto
          -67.83301 -54.08398 58 63 63 34.83398 46 70.58301 hvcurveto
          49.5 0 33 -21 33 -41 rrcurveto
          36.66699 38 rlineto
          -50.41699 61 -46.75 13 -48.58301 0 -106.33398 0 -61.41602 -78 0 -87 0 -40 12.83301 -45 38.5 -30 rrcurveto
          -331.83301 hlineto
          -67.83398 -54.08301 58 63 63 34.83301 46 70.58398 hvcurveto
          49.5 0 33 -21 33 -41 rrcurveto
          36.66602 38 rlineto
          -50.41602 61 -46.75 13 -48.58398 0 -106.33301 0 -61.41699 -78 0 -87 0 -56 24.75 -65 85.25 -21 rrcurveto
          -3 vlineto
          hintmask 1111011010000000
          -93.5 -20 -50.41602 -71 0 -101 0 -97 55.91602 -107 142.08398 0 105.41602 0 54.08398 58 24.75 36 rrcurveto
          276 154.91602 vlineto
          -51.33301 -33 -27.5 -59 0 -74 0 -97 55.91699 -107 142.08301 0 105.41699 0 54.08301 58 24.75 36 rrcurveto
          276 88 56 vlineto
          -597.66699 -312 rmoveto
          -28.41602 -39 -47.66699 -21 -55.91699 0 rrcurveto
          -102.66602 -40.33398 76 74 74 42.16699 92 100.83301 hvcurveto
          132 hlineto
          458.33398 -256 rmoveto
          -28.41699 -39 -47.66699 -21 -55.91602 0 rrcurveto
          -102.66699 -40.33301 76 74 74 42.16602 92 100.83398 hvcurveto
          132 hlineto
          endchar
        </CharString>
        <CharString name="lig.10">
          25.66699 -100 rmoveto
          42 callsubr
          -251.16699 676 rmoveto
          43 callsubr
          endchar
        </CharString>
        <CharString name="lig.100">
          631 -20 hstemhm
          -308 68.75 -59.58301 52.25 hintmask 11000000
          -308 631 rmoveto
          hintmask 10100000
          9.16699 -266 -229.16699 89 -24.75 -73 237.41699 -71 -143 -205 59.58301 -44 128.33301 217 141.16699 -222 56.83301 49 -155.83301 205 231 73 -19.25 72 -230.08301 -88 rlineto
          hintmask 11000000
          7.33301 264 rlineto
          -303.41699 -23 rmoveto
          63 callsubr
          536.25 70 rmoveto
          99 callsubr
          endchar
        </CharString>
        <CharString name="lig.101">
          -286 56.83301 308 56.83398 vstem
          -286 712 rmoveto
          64 callsubr
          308 hmoveto
          100 callsubr
          -421.66699 -730 rmoveto
          101 callsubr
          endchar
        </CharString>
        <CharString name="lig.102">
          8 -21 651 -20 hstem
          -299.75 48.58301 vstem
          -251.16699 723 rmoveto
          -48.58301 -824 48.58301 hlineto
          -157.66602 739 rmoveto
          -422.58398 -285 0 -79 422.58398 -287 0 70 -374 256 374 254 rlineto
          266.75 70 rmoveto
          0 -68 375.83301 -256 -375.83301 -256 0 -72 424.41602 289 0 78 rlineto
          endchar
        </CharString>
        <CharString name="lig.103">
          -47 55 640 45 hstem
          -455.58301 67.83301 95.33301 58.66699 125.58301 67.83398 vstem
          -6.41699 608 rmoveto
          -56.83301 40 -98.08301 36 -72.41699 9 rrcurveto
          153 -58.66699 -153 vlineto
          -112.75 -11 -50.41602 -78 0 -71 0 -92 63.25 -59 99.91602 -36 rrcurveto
          -338 vlineto
          -62.33301 -6 -44.91699 6 -115.5 76 rrcurveto
          -331.83301 229 283.25 190 10.08301 79 -341 -229 0 -79 379.5 -259 rlineto
          99 -56 47.66699 -12 76.08301 6 rrcurveto
          -103 58.66699 104 vlineto
          103.58301 18 89.83398 73 0 130 0 129 -110.91699 61 -82.5 29 rrcurveto
          254 vlineto
          47.66699 -7 66 -20 113.66602 -81 rrcurveto
          331.83398 -227 -262.16699 -176 -11.91699 -86 322.66699 223 0 78 rlineto
          -666.41699 62 rmoveto
          -72.41602 31 -22.91699 33 0 51 0 64 41.25 43 54.08301 9 rrcurveto
          184.25 -464 rmoveto
          56 callsubr
          endchar
        </CharString>
        <CharString name="lig.104">
          190 58 126 57 hstem
          425.33301 374 rmoveto
          57 -1290.66602 vlineto
          29.33301 19 16.5 19 14.66699 18 rrcurveto
          65.08301 77 -46.75 42 -240.16699 -295 240.16699 -295 46.75 42 -65.08301 78 rlineto
          -14.66699 18 -16.5 18 -29.33301 18 rrcurveto
          1290.66602 58 -1323.66602 hlineto
          -52.25 63 52.25 63 rlineto
          endchar
        </CharString>
        <CharString name="lig.105">
          190 58 126 57 hstem
          236.5 606 rmoveto
          -46.75 -42 65.08301 -77 rlineto
          14.66699 -18 16.5 -19 29.33301 -19 rrcurveto
          -1180.66602 hlineto
          29.33301 19 16.5 19 14.66699 18 rrcurveto
          65.08301 77 -46.75 42 -240.16699 -295 240.16699 -295 46.75 42 -65.08301 78 rlineto
          -14.66699 18 -16.5 18 -29.33301 18 rrcurveto
          1180.66602 hlineto
          -29.33301 -18 -16.5 -18 -14.66699 -18 rrcurveto
          -65.08301 -78 46.75 -42 240.16699 295 rlineto
          -1375 -63 rmoveto
          -52.25 63 52.25 63 1246.66602 0 52.25 -63 -52.25 -63 rlineto
          endchar
        </CharString>
        <CharString name="lig.106">
          190 58 126 57 hstem
          -852.5 248 rmoveto
          -52.25 63 52.25 63 1102.75 0 156.75 190 -45.83301 42 -142.08398 -175 -1038.58301 0 rlineto
          29.33301 19 16.5 19 14.66699 18 rrcurveto
          65.08301 77 -46.75 42 -240.16602 -295 240.16602 -295 46.75 42 -65.08301 78 rlineto
          -14.66699 18 -16.5 18 -29.33301 18 rrcurveto
          1038.58301 0 142.08398 -174 45.83301 42 -156.75 190 rlineto
          endchar
        </CharString>
        <CharString name="lig.107">
          284 58 hstem
          190.66699 608 rmoveto
          -46.75 -42 151.25 -181 rlineto
          21.08301 -26 0 -2 22 -15 rrcurveto
          -1226.5 hlineto
          22 15 0 2 21.08301 26 rrcurveto
          151.25 181 -46.75 42 -240.16602 -295 240.16602 -295 46.75 42 -151.25 181 rlineto
          -12.83301 15 -13.75 16 -17.41699 12 rrcurveto
          1228.33398 hlineto
          -17.41699 -12 -13.75 -16 -12.83301 -15 rrcurveto
          -151.25 -181 46.75 -42 240.16602 295 rlineto
          endchar
        </CharString>
        <CharString name="lig.108">
          284 58 hstem
          -740.66699 608 rmoveto
          -240.16602 -295 240.16602 -295 46.75 42 -151.25 181 rlineto
          -12.83301 15 -13.75 16 -17.41699 12 rrcurveto
          1320 58 -1319.08301 hlineto
          22 15 0 2 21.08301 26 rrcurveto
          151.25 181 rlineto
          endchar
        </CharString>
        <CharString name="lig.109">
          284 58 hstem
          406.08301 566 rmoveto
          -46.75 42 -216.33301 -266 -1048.66699 0 rlineto
          22 15 -0.91602 2 22 26 rrcurveto
          156.75 188 -38.5 35 -241.08398 -295 241.08398 -295 38.5 35 -156.75 188 rlineto
          -12.83398 15 -13.75 16 -17.41602 12 rrcurveto
          1049.58301 0 216.33301 -266 46.75 42 -210.83301 253 rlineto
          endchar
        </CharString>
        <CharString name="lig.11">
          -189.75 48.58301 281.41699 48.58301 vstem
          -141.16699 806 rmoveto
          44 callsubr
          330 907 rmoveto
          44 callsubr
          endchar
        </CharString>
        <CharString name="lig.110">
          190 58 126 57 hstem
          -693.91699 564 rmoveto
          -46.75 42 -240.16602 -295 240.16602 -295 46.75 42 -210.83301 253 rlineto
          1329.16699 63 rmoveto
          57 -1035.83398 vlineto
          29.33398 19 16.5 19 14.66602 18 rrcurveto
          65.08398 77 -46.75 42 -240.16699 -295 240.16699 -295 46.75 42 -65.08398 78 rlineto
          -14.66602 18 -16.5 18 -29.33398 18 rrcurveto
          1035.83398 58 -1068.83398 hlineto
          -52.25 63 52.25 63 rlineto
          endchar
        </CharString>
        <CharString name="lig.111">
          284 58 hstem
          -740.66699 608 rmoveto
          96 callsubr
          208.08398 42 rmoveto
          -241.08398 -295 241.08398 -295 45.83301 42 -151.25 181 rlineto
          -11.91699 15 -13.75 16 -18.33301 12 rrcurveto
          1066.08301 58 -1065.16602 hlineto
          22 15 0 2 21.08301 26 rrcurveto
          151.25 181 rlineto
          endchar
        </CharString>
        <CharString name="lig.112">
          -520.66699 576 rmoveto
          67 callsubr
          434.5 51 rmoveto
          -403.33398 -225 0 -77 402.41699 -223 24.75 50 -376.75 212 376.75 212 rlineto
          434.5 51 rmoveto
          66 callsubr
          endchar
        </CharString>
        <CharString name="lig.113">
          283 55 hstem
          -304.33301 56.83301 vstem
          -542.66699 608 rmoveto
          63 callsubr
          536.25 70 rmoveto
          99 callsubr
          -621.5 233 rmoveto
          -56.83301 -247 -222.75 -55 222.75 -246 56.83301 246 224.58301 55 -224.58301 hlineto
          endchar
        </CharString>
        <CharString name="lig.114">
          -102.66699 674 rmoveto
          47.66699 108 -45.83301 25 -349.25 -784 -424.41699 290 331.83301 225 -30.25 51 -350.16602 -236 0 -79 449.16602 -305 -39.41602 -87 46.75 -23 340.08301 762 451.91699 -308 -331.83398 -226 34.83398 -49 rlineto
          345.58301 236 0 78 rlineto
          endchar
        </CharString>
        <CharString name="lig.115">
          21 -21 177 53 229 54 hstem
          496.83301 459 rmoveto
          54 -78.83301 vlineto
          22 174 -49.5 0 -21.08301 -174 -148.5 0 22.91602 174 -49.5 0 -22 -174 -304.33301 0 22 174 -49.5 0 -21.08301 -174 -148.5 0 22.91602 174 -49.5 0 -22 -174 rlineto
          -304.33301 0 22 174 -49.5 0 -21.08301 -174 -148.5 0 22.91602 174 -49.5 0 -22 -174 -85.25 0 0 -54 79.75 0 -29.33301 -229 -84.33301 0 0 -53 77.91602 0 rlineto
          -22 -177 49.5 0 22 177 146.66699 0 -21.08301 -177 49.5 0 20.16602 177 305.25 0 -22 -177 49.5 0 22 177 146.66699 0 -21.08301 -177 49.5 0 20.16602 177 rlineto
          305.25 0 -22 -177 49.5 0 22 177 146.66699 0 -21.08301 -177 49.5 0 20.16602 177 87.08398 0 0 53 -79.75 0 28.41602 229 rlineto
          -1177.91602 -229 rmoveto
          46 callsubr
          324.5 -229 rmoveto
          70 callsubr
          166.83398 -229 rmoveto
          46 callsubr
          324.5 -229 rmoveto
          70 callsubr
          166.83398 -229 rmoveto
          46 callsubr
          endchar
        </CharString>
        <CharString name="lig.116">
          -180 58 143 -21 177 53 229 54 hstem
          121 61.41699 vstem
          426.25 -148 rmoveto
          -130.16699 113 -121.91602 153 8.25 232 7.33301 223 59.58301 104 134.75 123 rrcurveto
          -26.58301 35 rlineto
          -150.33301 -132 -88.91699 -122 2.75 -231 2.75 -224 92.58301 -139 120.08398 -109 rrcurveto
          -1039.5 0 33.91602 299 86.16699 0 0 53 -78.83301 0 28.41602 229 84.33398 0 0 54 -77.91699 0 22 174 -49.5 0 -21.08301 -174 -148.5 0 22.91602 174 -49.5 0 rlineto
          -22 -174 -85.25 0 0 -54 79.75 0 -29.33301 -229 -84.33301 0 0 -53 77.91602 0 -22 -177 49.5 0 22 177 146.66699 0 -41.25 -357 1162.33301 0 -0.91602 2 rlineto
          2.75 -2 rlineto
          -1263.16699 410 rmoveto
          71 callsubr
          endchar
        </CharString>
        <CharString name="lig.117">
          190 58 -55 231 -50 57 hstemhm
          -931.33301 212.66602 199.83398 212.66602 hintmask 00111000
          444.58301 431 rmoveto
          -534.41602 -57 534.41602 hlineto
          hintmask 01011000
          -1269.58301 -181 rmoveto
          60.5 45.83301 49 66 66 -45.83301 50 -60.5 -60.5 -45.83301 -49 -66 hvcurveto
          -67 45.83301 -49 60.5 vhcurveto
          412.5 hmoveto
          79 callsubr
          hintmask 10011000
          857.08301 55 rmoveto
          -534.41602 -58 534.41602 hlineto
          endchar
        </CharString>
        <CharString name="lig.118">
          -10 162 hstem
          -726 148.5 181.5 148.5 vstem
          252.08301 589 rmoveto
          98 callsubr
          -1008.33301 -466 rmoveto
          102 callsubr
          330 hmoveto
          102 callsubr
          endchar
        </CharString>
        <CharString name="lig.119">
          -10 162 hstem
          -715.91699 148.5 218.16699 148.5 218.16699 148.5 vstem
          cntrmask 01110000
          -715.91699 72 rmoveto
          80 callsubr
          366.66699 hmoveto
          102 callsubr
          366.66699 hmoveto
          -47 31.16602 -35 43.08398 43.08301 31.16699 35 47 45 -31.16699 35 -43.08301 -43.08398 -31.16602 -35 -45 vhcurveto
          endchar
        </CharString>
        <CharString name="lig.12">
          -142 51 416 50 417 50 hstem
          -248.41699 49.5 427.16699 53.16699 vstem
          -248.41699 842 rmoveto
          -984 49.5 984 vlineto
          323.58398 hmoveto
          -275.91699 -50 275.91699 hlineto
          70.58301 0 34.83301 -17 -0.91602 -65 rrcurveto
          -0.91699 -236 rlineto
          0 -75 15.58301 -37 53.16699 -12 -54.08301 -12 -14.66699 -31 0 -81 rrcurveto
          -233 vlineto
          -66 -32.08301 -18 -71.5 vhcurveto
          -275.91699 -51 275.91699 hlineto
          83.41602 73.33398 28 120 hvcurveto
          211 vlineto
          66 6.41602 42 135.66699 vhcurveto
          50 vlineto
          -136.58301 0 -6.41699 40 0.91699 66 rrcurveto
          -0.91699 223 rlineto
          119 -72.41699 19 -83.41602 vhcurveto
          endchar
        </CharString>
        <CharString name="lig.120">
          283 55 hstem
          -762.66699 56.83398 401.5 56.83301 401.5 56.83301 vstem
          -247.5 283 rmoveto
          401.5 -196 56.83301 196 178.75 55 -178.75 197 -56.83301 -197 -401.5 197 -56.83301 -197 -401.5 hlineto
          197 -56.83398 -197 -176.91602 -55 176.91602 -196 56.83398 196 401.5 -196 56.83301 vlineto
          endchar
        </CharString>
        <CharString name="lig.121">
          190 58 126 57 hstem
          -952.41699 -100 rmoveto
          85 callsubr
          847.91699 509 rmoveto
          86 callsubr
          595.83301 57 rmoveto
          -531.66602 -57 531.66602 hlineto
          -595.83301 -126 rmoveto
          87 callsubr
          595.83301 58 rmoveto
          -531.66602 -58 531.66602 hlineto
          endchar
        </CharString>
        <CharString name="lig.122">
          -906.58301 -100 rmoveto
          42 callsubr
          505.08301 -22 rmoveto
          85 callsubr
          505.08301 -22 rmoveto
          85 callsubr
          endchar
        </CharString>
        <CharString name="lig.123">
          -180 58 hstem
          -299.75 48.58301 vstem
          -251.16699 -122 rmoveto
          845 -48.58301 -845 -616.91699 -58 1283.33398 58 vlineto
          endchar
        </CharString>
        <CharString name="lig.124">
          -10 120 hstemhm
          -835.08301 110 -83.41699 55 422.58301 110 -83.41602 55 424.41602 110 hintmask 10100100
          -748.91699 687 rmoveto
          57 callsubr
          508.75 468 rmoveto
          -66 0 rlineto
          hintmask 10001100
          58 callsubr
          -530.75 -109 rmoveto
          hintmask 11000100
          -32.08398 -22.91602 -26 -33 -34 22.91602 -27 32.08398 32.08301 22.91699 27 34 33 -22.91699 26 -32.08301 hvcurveto
          504.16602 hmoveto
          hintmask 10010100
          59 callsubr
          505.08398 hmoveto
          -31.16699 -22.91699 -26 -33 -34 22.91699 -27 31.16699 33 22.91602 27 34 33 -22.91602 26 -33 hvcurveto
          endchar
        </CharString>
        <CharString name="lig.125">
          21 -21 hstem
          -1005.58301 62.33301 vstem
          396.91699 525 rmoveto
          -70.58398 -487 -78.83301 420 -81.58301 0 -96.25 -420 -65.08398 420 -84.33301 0 -76.08301 -420 -71.5 420 -84.33398 0 -78.83301 -420 -76.08301 420 -84.33398 0 -77.91602 -420 -77 420 -81.58398 0 rlineto
          -85.25 -420 -70.58301 487 -62.33301 0 92.58301 -525 91.66699 0 72.41602 395 62.33398 -395 110.91602 0 65.08398 395 64.16602 -395 106.33398 0 67.83301 395 61.41699 -395 110.91602 0 59.58398 395 rlineto
          55.91602 -395 107.25 0 81.58398 395 66.91602 -395 95.33398 0 87.08301 525 rlineto
          endchar
        </CharString>
        <CharString name="lig.126">
          -1191.66699 56.83398 364.83301 56.83301 346.5 56.83398 vstem
          -1134.83301 712 rmoveto
          90 callsubr
          421.66602 802 rmoveto
          -56.83301 -802 56.83301 hlineto
          403.33398 802 rmoveto
          -56.83398 -802 56.83398 hlineto
          534.41602 364 0 78 rlineto
          -534.41602 -370 rmoveto
          91 callsubr
          endchar
        </CharString>
        <CharString name="lig.127">
          -790.16699 56.83398 346.5 56.83301 364.83301 56.83398 vstem
          -790.16699 712 rmoveto
          -534.41602 -360 0 -78 534.41602 -364 56.83398 0 0 802 rlineto
          346.5 hmoveto
          -802 56.83301 802 vlineto
          364.83301 hmoveto
          100 callsubr
          -881.83398 -730 rmoveto
          101 callsubr
          endchar
        </CharString>
        <CharString name="lig.128">
          -10 120 174 58 hstemhm
          -1155.91699 110 -83.41602 55 hintmask 11010000
          -1069.75 687 rmoveto
          57 callsubr
          -308 389 rmoveto
          -240.16699 -295 240.16699 -295 46.75 42 -151.25 181 rlineto
          -12.83398 15 -13.75 16 -17.41602 12 rrcurveto
          302.5 58 -301.58398 hlineto
          22 15 0 2 21.08398 26 rrcurveto
          151.25 181 rlineto
          370.33301 -282 rmoveto
          1396.08301 58 -1396.08301 hlineto
          -135.66699 -232 rmoveto
          hintmask 11100000
          59 callsubr
          endchar
        </CharString>
        <CharString name="lig.129">
          21 -21 177 53 229 54 hstem
          496.83301 459 rmoveto
          54 -78.83301 vlineto
          22 174 -49.5 0 -21.08301 -174 -148.5 0 22.91602 174 -49.5 0 -22 -174 -304.33301 0 22 174 -49.5 0 -21.08301 -174 -148.5 0 22.91602 174 -49.5 0 -22 -174 rlineto
          -304.33301 0 22 174 -49.5 0 -21.08301 -174 -148.5 0 22.91602 174 -49.5 0 -22 -174 -304.33301 0 22 174 -49.5 0 -21.08301 -174 -148.5 0 22.91602 174 -49.5 0 rlineto
          -22 -174 -85.25 0 0 -54 79.75 0 -29.33301 -229 -84.33301 0 0 -53 77.91602 0 -22 -177 49.5 0 22 177 146.66699 0 -21.08301 -177 49.5 0 20.16602 177 rlineto
          305.25 0 -22 -177 49.5 0 22 177 146.66699 0 -21.08301 -177 49.5 0 20.16602 177 305.25 0 -22 -177 49.5 0 22 177 146.66699 0 -21.08301 -177 49.5 0 rlineto
          20.16602 177 305.25 0 -22 -177 49.5 0 22 177 146.66699 0 -21.08301 -177 49.5 0 20.16602 177 87.08398 0 0 53 -79.75 0 28.41602 229 rlineto
          -1727.91602 -229 rmoveto
          46 callsubr
          324.5 -229 rmoveto
          70 callsubr
          166.83398 -229 rmoveto
          46 callsubr
          324.5 -229 rmoveto
          70 callsubr
          166.83398 -229 rmoveto
          46 callsubr
          324.5 -229 rmoveto
          70 callsubr
          166.83398 -229 rmoveto
          46 callsubr
          endchar
        </CharString>
        <CharString name="lig.13">
          -113 58 809 59 hstem
          -247.5 48.58301 427.16699 54.08301 vstem
          -247.5 813 rmoveto
          -926 48.58301 926 vlineto
          481.25 -926 rmoveto
          926 -431.75 -59 377.66699 -809 -377.66699 -58 vlineto
          endchar
        </CharString>
        <CharString name="lig.130">
          190 58 126 57 hstem
          236.5 606 rmoveto
          -46.75 -42 65.08301 -77 rlineto
          14.66699 -18 16.5 -19 29.33301 -19 rrcurveto
          -1730.66602 hlineto
          29.33301 19 16.5 19 14.66699 18 rrcurveto
          65.08301 77 -46.75 42 -240.16699 -295 240.16699 -295 46.75 42 -65.08301 78 rlineto
          -14.66699 18 -16.5 18 -29.33301 18 rrcurveto
          1730.66602 hlineto
          -29.33301 -18 -16.5 -18 -14.66699 -18 rrcurveto
          -65.08301 -78 46.75 -42 240.16699 295 rlineto
          -1925 -63 rmoveto
          -52.25 63 52.25 63 1796.66602 0 52.25 -63 -52.25 -63 rlineto
          endchar
        </CharString>
        <CharString name="lig.14">
          190 58 126 57 hstem
          -299.75 48.58301 vstem
          352.91699 374 rmoveto
          57 -604.08398 292 -48.58301 -824 48.58301 291 604.08398 58 -604.08398 126 vlineto
          endchar
        </CharString>
        <CharString name="lig.15">
          -275 56.83301 vstem
          -218.16699 712 rmoveto
          45 callsubr
          -534.41699 -370 rmoveto
          0 662 485.83398 -331 rlineto
          endchar
        </CharString>
        <CharString name="lig.16">
          284 58 hstem
          -299.75 48.58301 vstem
          351.08301 342 rmoveto
          -602.25 381 -48.58301 -824 48.58301 385 602.25 hlineto
          endchar
        </CharString>
        <CharString name="lig.17">
          -142 51 416 50 417 50 hstem
          -281.41699 53.16699 427.16699 49.5 vstem
          -124.66699 842 rmoveto
          -83.41602 -72.41699 -19 -119 hvcurveto
          -0.91699 -223 rlineto
          0.91699 -66 -6.41699 -40 -136.58301 0 rrcurveto
          -50 vlineto
          135.66699 6.41602 -42 -66 hvcurveto
          -211 vlineto
          -120 73.33398 -28 83.41602 vhcurveto
          275.91699 51 -275.91699 hlineto
          -71.5 -32.08301 18 66 hvcurveto
          233 vlineto
          0 81 -14.66699 31 -54.08301 12 53.16699 12 15.58301 37 0 75 rrcurveto
          -0.91699 236 rlineto
          -0.91602 65 34.83301 17 70.58301 0 rrcurveto
          275.91699 50 hlineto
          97.16699 hmoveto
          -49.5 -984 49.5 hlineto
          endchar
        </CharString>
        <CharString name="lig.18">
          -113 58 809 59 hstem
          -282.33301 54.08301 427.16699 48.58301 vstem
          -282.33301 -113 rmoveto
          431.75 58 -377.66699 809 377.66699 59 -431.75 hlineto
          529.83301 hmoveto
          -48.58301 -926 48.58301 hlineto
          endchar
        </CharString>
        <CharString name="lig.19">
          -113 57 77 -21 177 53 229 54 241 59 hstem
          -230.08301 54.08301 vstem
          441.83301 459 rmoveto
          54 -78.83301 vlineto
          22 174 -49.5 0 -21.08301 -174 -148.5 0 22.91602 174 -49.5 0 -22 -174 -293.33301 0 0 300 -214.5 0 0 -59 160.41699 0 0 -810 -160.41699 0 0 -57 rlineto
          214.5 290 252.08301 hlineto
          -22 -177 49.5 0 22 177 146.66699 0 -21.08301 -177 49.5 0 20.16602 177 87.08398 0 0 53 -79.75 0 28.41602 229 rlineto
          -274.08301 -229 rmoveto
          -258.5 229 287.83301 hlineto
          166.83398 -229 rmoveto
          46 callsubr
          endchar
        </CharString>
        <CharString name="lig.2">
          190 58 126 57 hstem
          -22 431 rmoveto
          -182.41699 327 -49.5 0 -173.25 -311 64.16699 0 132.91699 248 171.41602 -321 457.41699 0 0 57 rlineto
          -457.41699 -241 rmoveto
          457.41699 58 -457.41699 hlineto
          endchar
        </CharString>
        <CharString name="lig.20">
          -10 148 217 148 hstem
          -251.16699 134.75 231.91699 134.75 vstem
          -251.16699 430 rmoveto
          47 callsubr
          366.66699 hmoveto
          48 callsubr
          -366.66699 -365 rmoveto
          49 callsubr
          366.66699 hmoveto
          50 callsubr
          endchar
        </CharString>
        <CharString name="lig.21">
          114 148 -72 58 111 148 -133 57 hstemhm
          -352 135.66699 hintmask 00101000
          -352 434 rmoveto
          51 callsubr
          hintmask 00011000
          796.58301 -3 rmoveto
          52 callsubr
          -796.58301 -186 rmoveto
          hintmask 10001000
          53 callsubr
          hintmask 01001000
          796.58301 60 rmoveto
          54 callsubr
          endchar
        </CharString>
        <CharString name="lig.22">
          51 148 217 148 hstem
          -363.91699 134.75 vstem
          13.75 588 rmoveto
          55 callsubr
          -804.83398 140 rmoveto
          47 callsubr
          -365 vmoveto
          49 callsubr
          endchar
        </CharString>
        <CharString name="lig.23">
          -47 55 640 45 hstem
          -363.91699 67.83398 95.33301 58.66699 125.58301 67.83301 vstem
          86.16699 608 rmoveto
          -57.75 40 -98.08398 36 -72.41602 9 rrcurveto
          153 -58.66699 -153 vlineto
          -112.75 -11 -50.41699 -78 0 -71 0 -92 63.25 -59 99.91699 -36 rrcurveto
          -338 vlineto
          -62.33301 -6 -44.91699 6 -115.5 76 rrcurveto
          -69 vlineto
          99 -56 47.66699 -12 76.08301 6 rrcurveto
          -103 58.66699 104 vlineto
          103.58301 18 89.83301 73 0 130 0 129 -110.91602 61 -82.5 29 rrcurveto
          254 vlineto
          47.66602 -7 66 -20 114.58398 -81 rrcurveto
          330.91602 -227 -262.16602 -176 -11.91699 -86 322.66699 223 0 78 rlineto
          -666.41699 62 rmoveto
          -72.41699 31 -22.91602 33 0 51 0 64 41.25 43 54.08301 9 rrcurveto
          184.25 -464 rmoveto
          56 callsubr
          endchar
        </CharString>
        <CharString name="lig.24">
          190 58 126 57 hstem
          444.58301 431 rmoveto
          -889.16602 -57 889.16602 hlineto
          -126 vmoveto
          -889.16602 -58 889.16602 hlineto
          endchar
        </CharString>
        <CharString name="lig.25">
          190 58 126 57 hstem
          236.5 606 rmoveto
          -46.75 -42 65.08301 -77 rlineto
          14.66699 -18 16.5 -19 29.33301 -19 rrcurveto
          -740.66602 -57 773.66602 hlineto
          52.25 -63 -52.25 -63 -773.66602 0 0 -58 740.66602 0 rlineto
          -29.33301 -18 -16.5 -18 -14.66699 -18 rrcurveto
          -65.08301 -78 46.75 -42 240.16699 295 rlineto
          endchar
        </CharString>
        <CharString name="lig.26">
          11 -21 200 58 126 57 212 -20 hstem
          444.58301 374 rmoveto
          57 -351.08301 vlineto
          101.75 187 -45.83301 25 -116.41699 -212 -477.58301 0 0 -57 446.41602 0 -69.66602 -126 -376.75 0 0 -58 344.66602 0 -95.33301 -174 47.66699 -26 109.08301 200 483.08301 0 0 58 rlineto
          -451 0 68.75 126 rlineto
          endchar
        </CharString>
        <CharString name="lig.27">
          -10 120 hstemhm
          -220.91699 110 -83.41602 55 248.41602 110 -83.41602 55 hintmask 10100000
          -134.75 687 rmoveto
          57 callsubr
          334.58301 468 rmoveto
          -66 0 rlineto
          hintmask 10001000
          58 callsubr
          -356.58398 -109 rmoveto
          hintmask 11000000
          59 callsubr
          330 hmoveto
          hintmask 10010000
          59 callsubr
          endchar
        </CharString>
        <CharString name="lig.28">
          699 -20 hstem
          -239.25 142 rmoveto
          501.41699 243 0 71 -501.41699 243 -22 -54 470.25 -224 -470.25 -225 rlineto
          515.16699 16 rmoveto
          -501.41699 -240 21.08301 -54 501.41699 243 rlineto
          endchar
        </CharString>
        <CharString name="lig.29">
          -441.83301 576 rmoveto
          60 callsubr
          55 225 rmoveto
          61 callsubr
          endchar
        </CharString>
        <CharString name="lig.3">
          233 59 41 59 hstem
          357.5 379 rmoveto
          38 callsubr
          endchar
        </CharString>
        <CharString name="lig.30">
          284 58 hstem
          430.83301 342 rmoveto
          -599.5 0 -216.33301 266 -46.75 -42 210.83301 -253 -210.83301 -253 46.75 -42 216.33301 266 599.5 0 rlineto
          endchar
        </CharString>
        <CharString name="lig.31">
          233 59 -8 58 -9 59 hstemhm
          hintmask 10100000
          384.08301 379 rmoveto
          -23.83301 -47 -31.16699 -40 -38.5 0 -56.83301 0 -25.66699 100 -92.58301 0 rrcurveto
          hintmask 01000000
          -73.33301 0 -0.91699 -49 -75.16699 -1 rrcurveto
          -396.91602 -58 408.83301 hlineto
          hintmask 10100000
          66 1 11 48 57.75 0 59.58301 0 30.25 -100 85.25 0 80.66699 0 38.5 71 23.83301 46 rrcurveto
          endchar
        </CharString>
        <CharString name="lig.32">
          284 58 hstem
          251.16699 48.58301 vstem
          251.16699 723 rmoveto
          -381 -602.25 -58 602.25 -385 48.58301 824 vlineto
          endchar
        </CharString>
        <CharString name="lig.33">
          284 58 hstem
          190.66699 608 rmoveto
          -46.75 -42 151.25 -181 rlineto
          21.08301 -26 0 -2 22 -15 rrcurveto
          -769.08301 -58 770 hlineto
          -17.41699 -12 -13.75 -16 -12.83301 -15 rrcurveto
          -151.25 -181 46.75 -42 240.16602 295 rlineto
          endchar
        </CharString>
        <CharString name="lig.34">
          284 58 hstem
          -381.33301 284 rmoveto
          62 callsubr
          422.58301 -58 rmoveto
          62 callsubr
          endchar
        </CharString>
        <CharString name="lig.35">
          284 58 hstem
          431.75 566 rmoveto
          -46.75 42 -216.33301 -266 -599.5 0 0 -58 599.5 0 216.33301 -266 46.75 42 -210.83301 253 rlineto
          endchar
        </CharString>
        <CharString name="lig.36">
          236 58 42 64 hstem
          235.58301 394 rmoveto
          -99 0 -18.33301 -100 -66 0 -66 0 -18.33301 106 -99 0 -93.5 0 -7.33398 -68 -74.25 -12 rrcurveto
          0 -36 -0.91602 58 rlineto
          17.41602 12 13.75 16 12.83398 15 rrcurveto
          151.25 181 -46.75 42 -240.16699 -295 240.16699 -295 46.75 42 -151.25 181 rlineto
          -4.58398 6 -3.66602 4 -2.75 4 67.83301 16 19.25 65 55.91699 0 66 0 18.33301 -100 99 0 99 0 18.33301 100 66 0 34.83398 0 35.75 -35 22.91602 -48 rrcurveto
          54.08398 30 rlineto
          -15.58398 37 -65.08301 74 -66.91699 0 rrcurveto
          endchar
        </CharString>
        <CharString name="lig.37">
          631 -20 hstemhm
          196.16699 68.75 -59.58398 52.25 hintmask 11000000
          196.16699 631 rmoveto
          hintmask 10100000
          9.16602 -266 -229.16602 89 -24.75 -73 237.41602 -71 -143 -205 59.58398 -44 128.33301 217 141.16699 -222 56.83301 49 -155.83301 205 231 73 -19.25 72 -230.08398 -88 rlineto
          hintmask 11000000
          7.33398 264 rlineto
          -303.41699 -23 rmoveto
          63 callsubr
          endchar
        </CharString>
        <CharString name="lig.38">
          218.16699 56.83301 vstem
          218.16699 712 rmoveto
          64 callsubr
          -56.83301 -730 rmoveto
          -485.83398 331 485.83398 331 rlineto
          endchar
        </CharString>
        <CharString name="lig.39">
          51 148 217 148 hstem
          229.16699 134.75 vstem
          -13.75 588 rmoveto
          65 callsubr
          377.66699 -34 rmoveto
          41 -28.41699 32 -38.5 -39.41699 -28.41602 -32 -41 -41 28.41602 -34 39.41699 38.5 28.41699 34 41 vhcurveto
          -365 vmoveto
          39 -28.41699 34 -38.5 -39.41699 -28.41602 -34 -39 -43 28.41602 -32 39.41699 38.5 28.41699 32 43 vhcurveto
          endchar
        </CharString>
        <CharString name="lig.4">
          -90 59 -14 53 225 59 41 59 -4 51 191 67 hstemhm
          31.16699 57.75 187.91602 51.33398 135.66602 69.66699 hintmask 1011011110000000
          259.41699 697 rmoveto
          -41.25 0 -149.41699 -4 -62.33301 -94 -53.16699 -77 -32.08301 -118 -13.75 -25 -23.83398 -47 -31.16602 -40 -38.5 0 -56.83398 0 -25.66602 100 -92.58398 0 -81.58301 0 -37.58301 -68 -23.83398 -51 rrcurveto
          46.75 -27 rlineto
          23.83398 48 29.33301 39 40.33301 0 59.58398 0 30.25 -100 85.25 0 80.66602 0 38.5 71 23.83398 46 14.66602 28 26.58398 107 52.25 70 50.41602 71 133.83398 4 30.25 0 rrcurveto
          175.08301 26.58301 -162 -185 -161 0.91699 -153 -64.16699 -38.5 -33.91602 23 118 hvcurveto
          294 vlineto
          hintmask 0110111110000000
          -51.33398 30 -30.25 5 -40.33301 0 rrcurveto
          -107.25 -67.83301 -77 -177 -134 37.58301 -96 97.16699 hvcurveto
          76.08301 0 32.08301 54 16.5 45 rrcurveto
          3.66699 hlineto
          hintmask 1011011110000000
          -3.66699 -41 32.08398 -103 78.83301 0 rrcurveto
          108.16699 23.83301 120 252 hvcurveto
          190 -32.08301 225 -242 vhcurveto
          17.41602 -596 rmoveto
          hintmask 0110111110000000
          -12.83301 -28 -22.91699 -65 -70.58301 0 rrcurveto
          -61.41699 -20.16602 77 100 129 28.41602 74 94.41699 hvcurveto
          23.83301 0 20.16699 -4 21.08301 -12 rrcurveto
          endchar
        </CharString>
        <CharString name="lig.40">
          -47 55 640 45 hstem
          2.75 67.83301 95.33398 58.66602 125.58398 67.83301 vstem
          452.83301 540 rmoveto
          68 vlineto
          -57.75 40 -98.08301 36 -72.41699 9 rrcurveto
          153 -58.66602 -153 vlineto
          -112.75 -11 -50.41699 -78 0 -71 0 -92 63.25 -59 99.91699 -36 rrcurveto
          -338 vlineto
          -62.33398 -6 -44.91602 6 -115.5 76 rrcurveto
          -331.83398 229 283.25 190 10.08398 79 -341.91699 -229 0 -79 380.41699 -259 rlineto
          99 -56 47.66602 -12 76.08398 6 rrcurveto
          -103 58.66602 104 vlineto
          103.58398 18 89.83301 73 0 130 0 129 -110.91699 61 -82.5 29 rrcurveto
          254 vlineto
          47.66699 -7 66 -20 114.58301 -81 rrcurveto
          -286.91602 -126 rmoveto
          -72.41699 31 -22.91699 33 0 51 0 64 41.25 43 54.08398 9 rrcurveto
          184.25 -464 rmoveto
          0 -117 -57.75 -36 -67.83398 -15 rrcurveto
          312 vlineto
          76.08398 -33 49.5 -58 0 -53 rrcurveto
          endchar
        </CharString>
        <CharString name="lig.41">
          699 -20 hstem
          261.25 645 rmoveto
          -22 54 -501.41699 -243 0 -71 501.41699 -243 22 54 -470.25 225 rlineto
          -66 -260 rmoveto
          501.41699 -243 21.08301 54 -501.41699 240 rlineto
          endchar
        </CharString>
        <CharString name="lig.42">
          9 -21 647 -20 hstem
          635 vmoveto
          -418.91699 -282 0 -79 418.91699 -286 419.83301 286 0 78 rlineto
          -419.83301 -295 rmoveto
          -370.33301 256 370.33301 251 371.25 -251 rlineto
          endchar
        </CharString>
        <CharString name="lig.43">
          284 58 hstem
          -190.66699 608 rmoveto
          -240.16602 -295 240.16602 -295 46.75 42 -151.25 181 rlineto
          -12.83301 15 -13.75 16 -17.41699 12 rrcurveto
          770 58 -769.08301 hlineto
          22 15 0 2 21.08301 26 rrcurveto
          151.25 181 rlineto
          endchar
        </CharString>
        <CharString name="lig.44">
          -16.5 576 rmoveto
          66 callsubr
          434.5 51 rmoveto
          67 callsubr
          endchar
        </CharString>
        <CharString name="lig.45">
          283 55 hstem
          199.83301 56.83398 vstem
          -38.5 608 rmoveto
          63 callsubr
          295.16699 47 rmoveto
          -56.83398 -247 -222.75 -55 222.75 -246 56.83398 246 224.58301 55 -224.58301 hlineto
          endchar
        </CharString>
        <CharString name="lig.46">
          357.5 807 rmoveto
          -349.25 -784 -424.41699 290 331.83398 225 -30.25 51 -350.16699 -236 0 -79 449.16699 -305 -39.41699 -87 46.75 -23 411.58301 923 rlineto
          endchar
        </CharString>
        <CharString name="lig.47">
          -134 53 102 -21 177 53 95 50 84 54 268 53 hstem
          409.75 781 rmoveto
          53 vlineto
          -83.41699 0 -104.5 -29 11 -118 rrcurveto
          17.41699 -174 -327.25 0 22 174 -49.5 0 -21.08301 -174 -148.5 0 22.91602 174 -49.5 0 -22 -174 -85.25 0 0 -54 79.75 0 -29.33301 -229 -84.33301 0 0 -53 rlineto
          77.91602 0 -22 -177 49.5 0 22 177 146.66699 0 -21.08301 -177 49.5 0 20.16602 177 368.5 0 -16.5 -164 rlineto
          -11 -119 104.5 -28 83.41699 0 rrcurveto
          53 vlineto
          -70.58301 0 -59.58398 19 6.41699 66 rrcurveto
          20.16699 222 rlineto
          6.41602 81 -21.08301 31 -54.08301 12 54.08301 12 21.08301 36 -6.41602 76 rrcurveto
          -20.16699 222 rlineto
          -6.41699 65 59.58398 20 70.58301 0 rrcurveto
          -571.08301 -551 rmoveto
          46 callsubr
          242.91699 -84 rmoveto
          -50 vlineto
          127.41602 0 19.25 -37 -2.75 -58 rrcurveto
          -366.66602 0 28.41602 229 338.25 0 rlineto
          -53 -22.91602 -31 -121 vhcurveto
          endchar
        </CharString>
        <CharString name="lig.48">
          -113 58 76 -21 177 53 229 54 241 59 hstem
          176 54.08301 vstem
          390.5 754 rmoveto
          59 -214.5 -300 -253 vlineto
          22 174 -49.5 0 -21.08301 -174 -148.5 0 22.91602 174 -49.5 0 -22 -174 -85.25 0 0 -54 79.75 0 -29.33301 -229 -84.33301 0 0 -53 77.91602 0 -22 -177 rlineto
          49.5 0 22 177 146.66699 0 -21.08301 -177 49.5 0 20.16602 177 295.16699 0 0 -290 214.5 0 0 58 -160.41699 0 0 809 rlineto
          -391.41602 -524 rmoveto
          46 callsubr
          20.16699 -229 rmoveto
          28.41602 229 259.41699 0 0 -229 rlineto
          endchar
        </CharString>
        <CharString name="lig.49">
          21 -21 196 54 -44 54 118 54 -44 54 hstemhm
          hintmask 11001000
          -148.5 388 rmoveto
          85.25 54 -78.83301 hlineto
          32.08301 245 -49.5 0 -31.16699 -245 -148.5 0 33 245 -49.5 0 -32.08301 -245 -85.25 0 0 -54 79.75 0 -18.33301 -138 -83.41699 0 0 -54 77.91699 0 -23.83398 -196 rlineto
          49.5 0 22.91699 196 147.58301 0 -22.91602 -196 49.5 0 21.08301 196 87.08301 0 0 54 -78.83301 0 rlineto
          hintmask 10010000
          611.41699 182 rmoveto
          -425.33398 -54 425.33398 hlineto
          hintmask 11001000
          -807.58398 -128 rmoveto
          15.58398 138 148.5 0 -17.41699 -138 rlineto
          hintmask 10100000
          638 10 rmoveto
          -424.41699 -54 424.41699 hlineto
          endchar
        </CharString>
        <CharString name="lig.5">
          190 58 77 50 64 51 hstem
          -136.58301 490 rmoveto
          -103.58398 0 -56.83301 -83 -23.83301 -50 rrcurveto
          46.75 -19 rlineto
          23.83301 48 47.66699 53 63.25 0 72.41602 0 91.66699 -114 100.83301 0 105.41699 0 66 70 23.83301 47 rrcurveto
          -46.75 20 rlineto
          -23.83301 -47 -57.75 -40 -65.08301 0 -70.58398 0 -88 115 -105.41602 0 rrcurveto
          443.66602 -242 rmoveto
          -614.16602 -58 614.16602 hlineto
          endchar
        </CharString>
        <CharString name="lig.50">
          0 124 53 53 229 54 hstem
          -46.75 459 rmoveto
          68 callsubr
          341.91699 2 rmoveto
          55 455 -67.83301 0 -55 -455 rlineto
          -470.25 -2 rmoveto
          69 callsubr
          371.25 -230 rmoveto
          17.41699 124 -86.16699 0 -17.41602 -124 rlineto
          endchar
        </CharString>
        <CharString name="lig.51">
          21 -21 177 53 229 54 hstem
          496.83301 459 rmoveto
          54 -78.83301 vlineto
          22 174 -49.5 0 -21.08301 -174 -148.5 0 22.91602 174 -49.5 0 -22 -174 -304.33301 0 22 174 -49.5 0 -21.08301 -174 -148.5 0 22.91602 174 -49.5 0 -22 -174 rlineto
          -85.25 -54 79.75 hlineto
          -29.33301 -229 -84.33301 0 0 -53 77.91602 0 -22 -177 49.5 0 22 177 146.66699 0 -21.08301 -177 49.5 0 20.16602 177 305.25 0 -22 -177 49.5 0 22 177 rlineto
          146.66699 0 -21.08301 -177 49.5 0 20.16602 177 87.08398 0 0 53 -79.75 0 28.41602 229 rlineto
          -627.91602 -229 rmoveto
          46 callsubr
          324.5 -229 rmoveto
          70 callsubr
          166.83398 -229 rmoveto
          46 callsubr
          endchar
        </CharString>
        <CharString name="lig.52">
          21 -21 177 53 229 54 hstem
          121 61.41699 vstem
          194.33301 209 rmoveto
          21 -3.66602 vlineto
          -5.5 36 -2.75 40 0 44 0 40 1.83301 36 4.58301 33 rrcurveto
          5.5 35 hlineto
          24.75 131 63.25 82 101.75 93 rrcurveto
          -26.58301 35 rlineto
          -110.91699 -97 -75.16602 -92 -33 -133 rrcurveto
          -215.41699 0 22 174 -49.5 0 -21.08301 -174 -148.5 0 22.91602 174 -49.5 0 -22 -174 -85.25 0 0 -54 79.75 0 -29.33301 -229 -84.33301 0 0 -53 77.91602 0 rlineto
          -22 -177 49.5 0 22 177 146.66699 0 -21.08301 -177 49.5 0 20.16602 177 260.33398 0 rlineto
          33.91602 -128 75.16699 -89 107.25 -95 rrcurveto
          26.58301 35 rlineto
          -99 90 -65.08301 85 -25.66699 134 rrcurveto
          -355.66602 21 rmoveto
          46 callsubr
          20.16699 -229 rmoveto
          28.41602 229 211.75 0 rlineto
          -4.58301 -34 -2.75 -36 0 -39 0 -44 2.75 -39 6.41699 -37 rrcurveto
          endchar
        </CharString>
</ttFont>
